  0
SECTION
  2
HEADER
  9
$ACADVER
  1
AC1009
  0
ENDSEC
  0
SECTION
  2
TABLES
  0
TABLE
  2
VPORT
 70
     2
  0
VPORT
  2
*ACTIVE
 70
     0
 10
0.0
 20
0.0
 11
1.0
 21
1.0
 12
171.1001742006836
 22
93.871468638243499
 13
0.0
 23
0.0
 14
0.5
 24
0.5
 15
12.0
 25
12.0
 16
0.0
 26
0.0
 36
1.0
 17
0.0
 27
0.0
 37
0.0
 40
197.73420228825569
 41
1.7416356877323409
 42
50.0
 43
0.0
 44
0.0
 50
0.0
 51
0.0
 71
     0
 72
   100
 73
     1
 74
     3
 75
     0
 76
     1
 77
     0
 78
     0
  0
ENDTAB
  0
TABLE
  2
LTYPE
 70
     1
  0
LTYPE
  2
CONTINUOUS
 70
     0
  3
Solid line
 72
    65
 73
     0
 40
0.0
  0
ENDTAB
  0
TABLE
  2
LAYER
 70
     1
  0
LAYER
  2
0
 70
     0
 62
     7
  6
CONTINUOUS
  0
ENDTAB
  0
TABLE
  2
STYLE
 70
     1
  0
STYLE
  2
STANDARD
 70
     0
 40
0.0
 41
1.0
 50
0.0
 71
     0
 42
0.2
  3
txt
  4

  0
ENDTAB
  0
TABLE
  2
VIEW
 70
     0
  0
ENDTAB
  0
TABLE
  2
UCS
 70
     0
  0
ENDTAB
  0
TABLE
  2
APPID
 70
     3
  0
APPID
  2
ACAD
 70
     0
  0
APPID
  2
CONTENTBLOCKDESCRIPTION
 70
     0
  0
APPID
  2
CONTENTBLOCKICON
 70
     0
  0
ENDTAB
  0
TABLE
  2
DIMSTYLE
 70
     1
  0
DIMSTYLE
  2
STANDARD
 70
     0
  3

  4

  5

  6

  7

 40
1.0
 41
0.18
 42
0.0625
 43
0.38
 44
0.18
 45
0.0
 46
0.0
 47
0.0
 48
0.0
140
0.18
141
0.09
142
0.0
143
25.399999999999999
144
1.0
145
0.0
146
1.0
147
0.09
 71
     0
 72
     0
 73
     1
 74
     1
 75
     0
 76
     0
 77
     0
 78
     0
170
     0
171
     2
172
     0
173
     0
174
     0
175
     0
176
     0
177
     0
178
     0
  0
ENDTAB
  0
ENDSEC
  0
SECTION
  2
BLOCKS
  0
BLOCK
  8
0
  2
SPÜLE_-_DOPPELSPÜLE_MIT_91
 70
     2
 10
0.0
 20
0.0
 30
0.0
  3
SPÜLE_-_DOPPELSPÜLE_MIT_91
  1
SINK_DOUBLE_36_INCH_TOP
  0
ARC
  5
3DA
  8
0
 10
15.5
 20
-6.5
 30
0.0
 40
1.0
 50
0.0
 51
90.0
  0
ARC
  5
3DB
  8
0
 10
16.5
 20
-1.5
 30
0.0
 40
1.5
 50
0.0
 51
90.0
  0
CIRCLE
  5
3DC
  8
0
 10
8.5
 20
-12.5
 30
0.0
 40
0.5
  0
CIRCLE
  5
3DD
  8
0
 10
8.5
 20
-12.5
 30
0.0
 40
1.0
  0
ARC
  5
3DE
  8
0
 10
15.5
 20
-18.5
 30
0.0
 40
1.0
 50
270.0
 51
0.0
  0
ARC
  5
3DF
  8
0
 10
16.5
 20
-19.5
 30
0.0
 40
1.5
 50
270.0
 51
0.0
  0
POLYLINE
  5
3E0
  8
0
 66
     1
 10
0.0
 20
0.0
 30
0.0
  0
VERTEX
  5
A29
  8
0
 10
16.5
 20
-6.5
 30
0.0
  0
VERTEX
  5
A2A
  8
0
 10
16.5
 20
-18.5
 30
0.0
  0
SEQEND
  5
A2B
  8
0
  0
POLYLINE
  5
3E1
  8
0
 66
     1
 10
0.0
 20
0.0
 30
0.0
  0
VERTEX
  5
A2C
  8
0
 10
18.0
 20
-1.5
 30
0.0
  0
VERTEX
  5
A2D
  8
0
 10
18.0
 20
-19.5
 30
0.0
  0
SEQEND
  5
A2E
  8
0
  0
ARC
  5
3E2
  8
0
 10
1.75
 20
-6.5
 30
0.0
 40
1.0
 50
90.0
 51
180.0
  0
ARC
  5
3E3
  8
0
 10
-1.75
 20
-6.5
 30
0.0
 40
1.0
 50
0.0
 51
90.0
  0
ARC
  5
3E4
  8
0
 10
-15.5
 20
-6.5
 30
0.0
 40
1.0
 50
90.0
 51
180.0
  0
ARC
  5
3E5
  8
0
 10
-16.5
 20
-1.5
 30
0.0
 40
1.5
 50
90.0
 51
180.0
  0
POLYLINE
  5
3E6
  8
0
 66
     1
 10
0.0
 20
0.0
 30
0.0
  0
VERTEX
  5
A2F
  8
0
 10
-15.5
 20
-5.5
 30
0.0
  0
VERTEX
  5
A30
  8
0
 10
-1.75
 20
-5.5
 30
0.0
  0
SEQEND
  5
A31
  8
0
  0
ARC
  5
3E7
  8
0
 10
1.75
 20
-18.5
 30
0.0
 40
1.0
 50
180.0
 51
270.0
  0
ARC
  5
3E8
  8
0
 10
-1.75
 20
-18.5
 30
0.0
 40
1.0
 50
270.0
 51
0.0
  0
CIRCLE
  5
3E9
  8
0
 10
-8.5
 20
-12.5
 30
0.0
 40
0.5
  0
CIRCLE
  5
3EA
  8
0
 10
-8.5
 20
-12.5
 30
0.0
 40
1.0
  0
ARC
  5
3EB
  8
0
 10
-15.5
 20
-18.5
 30
0.0
 40
1.0
 50
180.0
 51
270.0
  0
ARC
  5
3EC
  8
0
 10
-16.5
 20
-19.5
 30
0.0
 40
1.5
 50
180.0
 51
270.0
  0
POLYLINE
  5
3ED
  8
0
 66
     1
 10
0.0
 20
0.0
 30
0.0
  0
VERTEX
  5
A32
  8
0
 10
-1.75
 20
-19.5
 30
0.0
  0
VERTEX
  5
A33
  8
0
 10
-15.5
 20
-19.5
 30
0.0
  0
SEQEND
  5
A34
  8
0
  0
POLYLINE
  5
3EE
  8
0
 66
     1
 10
0.0
 20
0.0
 30
0.0
  0
VERTEX
  5
A35
  8
0
 10
-16.5
 20
-18.5
 30
0.0
  0
VERTEX
  5
A36
  8
0
 10
-16.5
 20
-6.5
 30
0.0
  0
SEQEND
  5
A37
  8
0
  0
POLYLINE
  5
3EF
  8
0
 66
     1
 10
0.0
 20
0.0
 30
0.0
  0
VERTEX
  5
A38
  8
0
 10
-18.0
 20
-19.5
 30
0.0
  0
VERTEX
  5
A39
  8
0
 10
-18.0
 20
-1.5
 30
0.0
  0
SEQEND
  5
A3A
  8
0
  0
LINE
  5
3F0
  8
0
 10
0.75
 20
-6.5
 30
0.0
 11
0.75
 21
-18.5
 31
0.0
  0
LINE
  5
3F1
  8
0
 10
-0.75
 20
-18.5
 30
0.0
 11
-0.75
 21
-6.5
 31
0.0
  0
POLYLINE
  5
3F2
  8
0
 66
     1
 10
0.0
 20
0.0
 30
0.0
  0
VERTEX
  5
A3B
  8
0
 10
16.5
 20
-21.0
 30
0.0
  0
VERTEX
  5
A3C
  8
0
 10
-16.5
 20
-21.0
 30
0.0
  0
SEQEND
  5
A3D
  8
0
  0
POLYLINE
  5
3F3
  8
0
 66
     1
 10
0.0
 20
0.0
 30
0.0
  0
VERTEX
  5
A3E
  8
0
 10
-16.5
 20
0.0
 30
0.0
  0
VERTEX
  5
A3F
  8
0
 10
16.5
 20
0.0
 30
0.0
  0
SEQEND
  5
A40
  8
0
  0
LINE
  5
3F4
  8
0
 10
-18.0
 20
-4.0
 30
0.0
 11
18.0
 21
-4.0
 31
0.0
  0
POLYLINE
  5
3F5
  8
0
 66
     1
 10
0.0
 20
0.0
 30
0.0
  0
VERTEX
  5
A41
  8
0
 10
1.75
 20
-5.5
 30
0.0
  0
VERTEX
  5
A42
  8
0
 10
15.5
 20
-5.5
 30
0.0
  0
SEQEND
  5
A43
  8
0
  0
POLYLINE
  5
3F6
  8
0
 66
     1
 10
0.0
 20
0.0
 30
0.0
  0
VERTEX
  5
A44
  8
0
 10
15.5
 20
-19.5
 30
0.0
  0
VERTEX
  5
A45
  8
0
 10
1.75
 20
-19.5
 30
0.0
  0
SEQEND
  5
A46
  8
0
  0
ENDBLK
  5
3F8
  8
0
  0
BLOCK
  8
0
  2
SPÜLE_-_EINZELSPÜLE_MIT_76
 70
     2
 10
0.0
 20
0.0
 30
0.0
  3
SPÜLE_-_EINZELSPÜLE_MIT_76
  1
SINK_SINGLE_30_INCH_TOP
  0
ARC
  5
400
  8
0
 10
12.5
 20
-6.4999960000000012
 30
0.0
 40
1.0
 50
0.0
 51
90.0
  0
ARC
  5
401
  8
0
 10
-12.5
 20
-6.4999960000000012
 30
0.0
 40
1.0
 50
90.0
 51
180.0
  0
CIRCLE
  5
402
  8
0
 10
0.0
 20
-11.999995999999999
 30
0.0
 40
0.5
  0
CIRCLE
  5
403
  8
0
 10
0.0
 20
-11.999995999999999
 30
0.0
 40
1.0
  0
POLYLINE
  5
404
  8
0
 66
     1
 10
0.0
 20
0.0
 30
0.0
  0
VERTEX
  5
A49
  8
0
 10
-12.5
 20
-5.4999960000000012
 30
0.0
  0
VERTEX
  5
A4A
  8
0
 10
12.5
 20
-5.4999960000000012
 30
0.0
  0
SEQEND
  5
A4B
  8
0
  0
ARC
  5
405
  8
0
 10
12.5
 20
-17.499995999999989
 30
0.0
 40
1.0
 50
270.0
 51
0.0
  0
ARC
  5
406
  8
0
 10
13.5
 20
-18.499995999999999
 30
0.0
 40
1.5
 50
270.0
 51
0.0
  0
ARC
  5
407
  8
0
 10
-12.5
 20
-17.499995999999989
 30
0.0
 40
1.0
 50
180.0
 51
270.0
  0
ARC
  5
408
  8
0
 10
-13.5
 20
-18.499995999999999
 30
0.0
 40
1.5
 50
180.0
 51
270.0
  0
POLYLINE
  5
409
  8
0
 66
     1
 10
0.0
 20
0.0
 30
0.0
  0
VERTEX
  5
A4C
  8
0
 10
13.5
 20
-19.999995999999989
 30
0.0
  0
VERTEX
  5
A4D
  8
0
 10
-13.5
 20
-19.999995999999989
 30
0.0
  0
SEQEND
  5
A4E
  8
0
  0
POLYLINE
  5
40A
  8
0
 66
     1
 10
0.0
 20
0.0
 30
0.0
  0
VERTEX
  5
A4F
  8
0
 10
12.5
 20
-18.499995999999999
 30
0.0
  0
VERTEX
  5
A50
  8
0
 10
-12.5
 20
-18.499995999999999
 30
0.0
  0
SEQEND
  5
A51
  8
0
  0
POLYLINE
  5
40B
  8
0
 66
     1
 10
0.0
 20
0.0
 30
0.0
  0
VERTEX
  5
A52
  8
0
 10
-13.5
 20
-17.499995999999989
 30
0.0
  0
VERTEX
  5
A53
  8
0
 10
-13.5
 20
-6.4999960000000012
 30
0.0
  0
SEQEND
  5
A54
  8
0
  0
POLYLINE
  5
40C
  8
0
 66
     1
 10
0.0
 20
0.0
 30
0.0
  0
VERTEX
  5
A55
  8
0
 10
13.5
 20
-6.4999960000000012
 30
0.0
  0
VERTEX
  5
A56
  8
0
 10
13.5
 20
-17.499995999999989
 30
0.0
  0
SEQEND
  5
A57
  8
0
  0
ARC
  5
40D
  8
0
 10
13.5
 20
-1.5
 30
0.0
 40
1.5
 50
0.0
 51
90.0
  0
POLYLINE
  5
40E
  8
0
 66
     1
 10
0.0
 20
0.0
 30
0.0
  0
VERTEX
  5
A58
  8
0
 10
15.0
 20
-1.5
 30
0.0
  0
VERTEX
  5
A59
  8
0
 10
15.0
 20
-18.499995999999999
 30
0.0
  0
SEQEND
  5
A5A
  8
0
  0
ARC
  5
40F
  8
0
 10
-13.5
 20
-1.5
 30
0.0
 40
1.5
 50
90.0
 51
180.0
  0
POLYLINE
  5
410
  8
0
 66
     1
 10
0.0
 20
0.0
 30
0.0
  0
VERTEX
  5
A5B
  8
0
 10
-15.0
 20
-18.499995999999999
 30
0.0
  0
VERTEX
  5
A5C
  8
0
 10
-15.0
 20
-1.5
 30
0.0
  0
SEQEND
  5
A5D
  8
0
  0
POLYLINE
  5
411
  8
0
 66
     1
 10
0.0
 20
0.0
 30
0.0
  0
VERTEX
  5
A5E
  8
0
 10
-13.5
 20
0.0
 30
0.0
  0
VERTEX
  5
A5F
  8
0
 10
13.5
 20
0.0
 30
0.0
  0
SEQEND
  5
A60
  8
0
  0
LINE
  5
412
  8
0
 10
-15.0
 20
-3.9999960000000012
 30
0.0
 11
15.0
 21
-3.9999960000000012
 31
0.0
  0
ENDBLK
  5
414
  8
0
  0
ENDSEC
  0
SECTION
  2
ENTITIES
  0
INSERT
  5
47
  8
0
  2
SCHRANK_-_SCHRANKTÜR_1_IN_
 10
24.331368346318101
 20
144.8344702039895
 30
0.0
  0
INSERT
  5
6E
  8
0
  2
SCHRANK_-_SCHRANKTÜR_1_MIT
 10
29.6830998410204
 20
145.04317761806359
 30
0.0
  0
INSERT
  5
E2
  8
0
  2
ARMATUR_-_KÜCHENARMATUR_IN
 10
98.54882786903454
 20
171.85263706733321
 30
0.0
  0
INSERT
  5
103
  8
0
  2
ARMATUR_-_KÜCHENARMATUR_I0
 10
99.378535322428206
 20
164.94298264937009
 30
0.0
  0
INSERT
  5
128
  8
0
  2
ARMATUR_-_EINHEBELMISCHER_
 10
119.2915171402322
 20
172.4054092157217
 30
0.0
  0
INSERT
  5
13B
  8
0
  2
ARMATUR_-_EINHEBELMISCHER0
 10
118.46180968683881
 20
164.6665965751759
 30
0.0
  0
INSERT
  5
19A
  8
0
  2
EIS-_UND_WASSERSPENDER
 10
132.56362930600071
 20
159.60502300407529
 30
0.0
  0
INSERT
  5
318
  8
0
  2
KÜCHENBLOCK_-_2100_X_2400_
 10
6.0898855669328213
 20
42.533505871986719
 30
0.0
  0
INSERT
  5
3FE
  8
0
  2
SPÜLE_-_DOPPELSPÜLE_MIT_91
 10
20.53095125746756
 20
22.067018709510929
 30
0.0
  0
INSERT
  5
41A
  8
0
  2
SPÜLE_-_EINZELSPÜLE_MIT_76
 10
63.258567147448161
 20
22.494287215318121
 30
0.0
  0
ENDSEC
  0
EOF
