  0
SECTION
  2
HEADER
  9
$ACADVER
  1
AC1009
  0
ENDSEC
  0
SECTION
  2
BLOCKS
  0
BLOCK
  8
0
  2
GESCHIRRSPÜLMASCHINE
 70
     2
 10
0.0
 20
0.0
 30
0.0
  3
GESCHIRRSPÜLMASCHINE
  1
DISHWASHER
  0
LINE
  5
70
  8
0
 10
19.315600000000011
 20
33.184299999999958
 30
0.0
 11
19.5
 21
32.999999999999957
 31
0.0
  0
LINE
  5
71
  8
0
 10
20.5
 20
32.999999999999957
 30
0.0
 11
20.69380000000001
 21
33.193799999999982
 31
0.0
  0
LINE
  5
72
  8
0
 10
20.706100000000049
 20
31.793899999999962
 30
0.0
 11
20.5
 21
31.999999999999972
 31
0.0
  0
LINE
  5
73
  8
0
 10
19.5
 20
31.999999999999972
 30
0.0
 11
19.294200000000028
 21
31.794199999999989
 31
0.0
  0
LINE
  5
74
  8
0
 10
20.0
 20
32.249999999999957
 30
0.0
 11
20.0
 21
31.499999999999961
 31
0.0
  0
LINE
  5
75
  8
0
 10
20.0
 20
32.749999999999957
 30
0.0
 11
20.0
 21
33.499999999999957
 31
0.0
  0
LINE
  5
76
  8
0
 10
19.0
 20
32.499999999999957
 30
0.0
 11
19.75
 21
32.499999999999957
 31
0.0
  0
LINE
  5
77
  8
0
 10
21.0
 20
32.499999999999957
 30
0.0
 11
20.249999999999989
 21
32.499999999999957
 31
0.0
  0
CIRCLE
  5
78
  8
0
 10
20.0
 20
32.499999999999957
 30
0.0
 40
1.0
  0
LINE
  5
79
  8
0
 10
16.315600000000011
 20
33.184299999999958
 30
0.0
 11
16.5
 21
32.999999999999957
 31
0.0
  0
LINE
  5
7A
  8
0
 10
17.5
 20
32.999999999999957
 30
0.0
 11
17.69380000000001
 21
33.193799999999982
 31
0.0
  0
LINE
  5
7B
  8
0
 10
17.706100000000038
 20
31.793899999999962
 30
0.0
 11
17.5
 21
31.999999999999972
 31
0.0
  0
LINE
  5
7C
  8
0
 10
16.5
 20
31.999999999999972
 30
0.0
 11
16.294200000000039
 21
31.794199999999989
 31
0.0
  0
LINE
  5
7D
  8
0
 10
17.0
 20
32.249999999999957
 30
0.0
 11
17.0
 21
31.499999999999961
 31
0.0
  0
LINE
  5
7E
  8
0
 10
17.0
 20
32.749999999999957
 30
0.0
 11
17.0
 21
33.499999999999957
 31
0.0
  0
LINE
  5
7F
  8
0
 10
16.0
 20
32.499999999999957
 30
0.0
 11
16.75
 21
32.499999999999957
 31
0.0
  0
LINE
  5
80
  8
0
 10
18.0
 20
32.499999999999957
 30
0.0
 11
17.25
 21
32.499999999999957
 31
0.0
  0
CIRCLE
  5
81
  8
0
 10
17.0
 20
32.499999999999957
 30
0.0
 40
1.0
  0
POLYLINE
  5
82
  8
0
 66
     1
 10
0.0
 20
0.0
 30
0.0
 70
     1
  0
VERTEX
  5
919
  8
0
 10
15.0
 20
30.999999999999961
 30
0.0
  0
VERTEX
  5
91A
  8
0
 10
15.0
 20
33.999999999999957
 30
0.0
  0
VERTEX
  5
91B
  8
0
 10
22.0
 20
33.999999999999957
 30
0.0
  0
VERTEX
  5
91C
  8
0
 10
22.0
 20
30.999999999999961
 30
0.0
  0
SEQEND
  5
91D
  8
0
  0
CIRCLE
  5
83
  8
0
 10
7.5
 20
32.499999999999957
 30
0.0
 40
0.75
  0
CIRCLE
  5
84
  8
0
 10
5.0
 20
32.499999999999957
 30
0.0
 40
0.75
  0
CIRCLE
  5
85
  8
0
 10
2.5
 20
32.499999999999957
 30
0.0
 40
0.75
  0
CIRCLE
  5
86
  8
0
 10
10.0
 20
32.499999999999957
 30
0.0
 40
0.75
  0
POLYLINE
  5
87
  8
0
 66
     1
 10
0.0
 20
0.0
 30
0.0
 70
     1
  0
VERTEX
  5
91E
  8
0
 10
0.5
 20
30.999999999999961
 30
0.0
  0
VERTEX
  5
91F
  8
0
 10
0.5
 20
33.999999999999957
 30
0.0
  0
VERTEX
  5
920
  8
0
 10
12.0
 20
33.999999999999957
 30
0.0
  0
VERTEX
  5
921
  8
0
 10
12.0
 20
30.999999999999961
 30
0.0
  0
SEQEND
  5
922
  8
0
  0
LINE
  5
88
  8
0
 10
24.0
 20
30.499999999999972
 30
0.0
 11
0.0
 21
30.499999999999972
 31
0.0
  0
POLYLINE
  5
89
  8
0
 66
     1
 10
0.0
 20
0.0
 30
0.0
 70
     1
  0
VERTEX
  5
923
  8
0
 10
0.0
 20
0.0
 30
0.0
  0
VERTEX
  5
924
  8
0
 10
0.0
 20
34.499999999999957
 30
0.0
  0
VERTEX
  5
925
  8
0
 10
24.0
 20
34.499999999999957
 30
0.0
  0
VERTEX
  5
926
  8
0
 10
24.0
 20
0.0
 30
0.0
  0
SEQEND
  5
927
  8
0
  0
LINE
  5
8A
  8
0
 10
0.0
 20
5.0
 30
0.0
 11
24.0
 21
5.0
 31
0.0
  0
ENDBLK
  5
8C
  8
0
  0
BLOCK
  8
0
  2
SCHRANK_-_SCHRANKTÜR_1_IN_
 70
     2
 10
0.0
 20
0.0
 30
0.0
  3
SCHRANK_-_SCHRANKTÜR_1_IN_
  1
BASE_CABINET_1_DRAWER_SIDE
  0
LINE
  5
2C
  8
0
 10
-24.0
 20
6.0
 30
0.0
 11
-24.0
 21
28.500000000000028
 31
0.0
  0
LINE
  5
2D
  8
0
 10
-23.5
 20
28.500000000000028
 30
0.0
 11
-23.5
 21
6.0
 31
0.0
  0
POLYLINE
  5
2E
  8
0
 66
     1
 10
0.0
 20
0.0
 30
0.0
  0
VERTEX
  5
90F
  8
0
 10
-23.0
 20
5.0
 30
0.0
  0
VERTEX
  5
910
  8
0
 10
-23.0
 20
34.500000000000021
 30
0.0
  0
VERTEX
  5
911
  8
0
 10
0.0
 20
34.500000000000021
 30
0.0
  0
VERTEX
  5
912
  8
0
 10
0.0
 20
0.0
 30
0.0
  0
VERTEX
  5
913
  8
0
 10
-20.0
 20
0.0
 30
0.0
  0
SEQEND
  5
914
  8
0
  0
LINE
  5
2F
  8
0
 10
-20.0
 20
0.0
 30
0.0
 11
-20.0
 21
5.0
 31
0.0
  0
LINE
  5
30
  8
0
 10
-20.0
 20
5.0
 30
0.0
 11
-23.0
 21
5.0
 31
0.0
  0
LINE
  5
31
  8
0
 10
-23.5
 20
6.0
 30
0.0
 11
-24.0
 21
6.0
 31
0.0
  0
LINE
  5
32
  8
0
 10
-24.0
 20
33.500000000000028
 30
0.0
 11
-23.5
 21
33.500000000000028
 31
0.0
  0
LINE
  5
33
  8
0
 10
-23.5
 20
29.500000000000011
 30
0.0
 11
-24.0
 21
29.500000000000011
 31
0.0
  0
LINE
  5
34
  8
0
 10
-24.0
 20
28.500000000000028
 30
0.0
 11
-23.5
 21
28.500000000000028
 31
0.0
  0
LINE
  5
35
  8
0
 10
-23.5
 20
33.500000000000028
 30
0.0
 11
-23.5
 21
29.500000000000011
 31
0.0
  0
LINE
  5
36
  8
0
 10
-24.0
 20
29.500000000000011
 30
0.0
 11
-24.0
 21
33.500000000000028
 31
0.0
  0
ENDBLK
  5
38
  8
0
  0
BLOCK
  8
0
  2
SCHRANK_-_SCHRANKTÜR_1_MIT
 70
     2
 10
0.0
 20
0.0
 30
0.0
  3
SCHRANK_-_SCHRANKTÜR_1_MIT
  1
BASE_CABINET_1_DRWR_24IN_FRONT
  0
LINE
  5
4F
  8
0
 10
0.0
 20
5.0
 30
0.0
 11
24.0
 21
5.0
 31
0.0
  0
LINE
  5
50
  8
0
 10
23.0
 20
28.499999999999989
 30
0.0
 11
1.0
 21
28.499999999999989
 31
0.0
  0
LINE
  5
51
  8
0
 10
1.0
 20
29.499999999999989
 30
0.0
 11
23.0
 21
29.499999999999989
 31
0.0
  0
LINE
  5
52
  8
0
 10
0.0
 20
0.0
 30
0.0
 11
0.0
 21
34.5
 31
0.0
  0
LINE
  5
53
  8
0
 10
0.0
 20
34.5
 30
0.0
 11
24.0
 21
34.5
 31
0.0
  0
LINE
  5
54
  8
0
 10
24.0
 20
34.5
 30
0.0
 11
24.0
 21
0.0
 31
0.0
  0
LINE
  5
55
  8
0
 10
24.0
 20
0.0
 30
0.0
 11
0.0
 21
0.0
 31
0.0
  0
LINE
  5
56
  8
0
 10
23.0
 20
28.499999999999989
 30
0.0
 11
23.0
 21
6.0
 31
0.0
  0
LINE
  5
57
  8
0
 10
23.0
 20
6.0
 30
0.0
 11
1.0
 21
6.0
 31
0.0
  0
LINE
  5
58
  8
0
 10
1.0
 20
6.0
 30
0.0
 11
1.0
 21
28.499999999999989
 31
0.0
  0
LINE
  5
59
  8
0
 10
1.0
 20
29.499999999999989
 30
0.0
 11
1.0
 21
33.5
 31
0.0
  0
LINE
  5
5A
  8
0
 10
1.0
 20
33.5
 30
0.0
 11
23.0
 21
33.5
 31
0.0
  0
LINE
  5
5B
  8
0
 10
23.0
 20
33.5
 30
0.0
 11
23.0
 21
29.499999999999989
 31
0.0
  0
ENDBLK
  5
5D
  8
0
  0
BLOCK
  8
0
  2
MIKROWELLENGERÄT
 70
     2
 10
0.0
 20
0.0
 30
0.0
  3
MIKROWELLENGERÄT
  1
MICROWAVE_OVEN
  0
POLYLINE
  5
337
  8
0
 66
     1
 10
0.0
 20
0.0
 30
0.0
 70
     1
  0
VERTEX
  5
9AF
  8
0
 10
18.5
 20
4.5
 30
0.0
  0
VERTEX
  5
9B0
  8
0
 10
18.5
 20
5.5
 30
0.0
  0
VERTEX
  5
9B1
  8
0
 10
21.499999999999989
 20
5.5
 30
0.0
  0
VERTEX
  5
9B2
  8
0
 10
21.499999999999989
 20
4.5
 30
0.0
  0
SEQEND
  5
9B3
  8
0
  0
POLYLINE
  5
338
  8
0
 66
     1
 10
0.0
 20
0.0
 30
0.0
 70
     1
  0
VERTEX
  5
9B4
  8
0
 10
18.5
 20
3.0
 30
0.0
  0
VERTEX
  5
9B5
  8
0
 10
18.5
 20
4.0
 30
0.0
  0
VERTEX
  5
9B6
  8
0
 10
21.499999999999989
 20
4.0
 30
0.0
  0
VERTEX
  5
9B7
  8
0
 10
21.499999999999989
 20
3.0
 30
0.0
  0
SEQEND
  5
9B8
  8
0
  0
LINE
  5
339
  8
0
 10
19.0
 20
6.0
 30
0.0
 11
19.0
 21
7.0
 31
0.0
  0
LINE
  5
33A
  8
0
 10
20.0
 20
6.0
 30
0.0
 11
18.0
 21
6.0
 31
0.0
  0
LINE
  5
33B
  8
0
 10
20.0
 20
7.0
 30
0.0
 11
20.0
 21
6.0
 31
0.0
  0
LINE
  5
33C
  8
0
 10
21.0
 20
7.0
 30
0.0
 11
21.0
 21
11.0
 31
0.0
  0
LINE
  5
33D
  8
0
 10
20.0
 20
11.0
 30
0.0
 11
20.0
 21
7.0
 31
0.0
  0
LINE
  5
33E
  8
0
 10
19.0
 20
7.0
 30
0.0
 11
19.0
 21
11.0
 31
0.0
  0
LINE
  5
33F
  8
0
 10
22.0
 20
7.0
 30
0.0
 11
18.0
 21
7.0
 31
0.0
  0
LINE
  5
340
  8
0
 10
18.0
 20
8.0
 30
0.0
 11
22.0
 21
8.0
 31
0.0
  0
LINE
  5
341
  8
0
 10
22.0
 20
9.0
 30
0.0
 11
18.0
 21
9.0
 31
0.0
  0
LINE
  5
342
  8
0
 10
18.0
 20
10.0
 30
0.0
 11
22.0
 21
10.0
 31
0.0
  0
POLYLINE
  5
343
  8
0
 66
     1
 10
0.0
 20
0.0
 30
0.0
 70
     1
  0
VERTEX
  5
9B9
  8
0
 10
18.0
 20
2.0
 30
0.0
  0
VERTEX
  5
9BA
  8
0
 10
18.0
 20
11.0
 30
0.0
  0
VERTEX
  5
9BB
  8
0
 10
22.0
 20
11.0
 30
0.0
  0
VERTEX
  5
9BC
  8
0
 10
22.0
 20
2.0
 30
0.0
  0
SEQEND
  5
9BD
  8
0
  0
POLYLINE
  5
344
  8
0
 66
     1
 10
0.0
 20
0.0
 30
0.0
 70
     1
  0
VERTEX
  5
9BE
  8
0
 10
18.0
 20
12.0
 30
0.0
  0
VERTEX
  5
9BF
  8
0
 10
18.0
 20
16.0
 30
0.0
  0
VERTEX
  5
9C0
  8
0
 10
22.0
 20
16.0
 30
0.0
  0
VERTEX
  5
9C1
  8
0
 10
22.0
 20
12.0
 30
0.0
  0
SEQEND
  5
9C2
  8
0
  0
POLYLINE
  5
345
  8
0
 66
     1
 10
0.0
 20
0.0
 30
0.0
 70
     1
  0
VERTEX
  5
9C3
  8
0
 10
2.5
 20
2.5
 30
0.0
  0
VERTEX
  5
9C4
  8
0
 10
2.5
 20
15.5
 30
0.0
  0
VERTEX
  5
9C5
  8
0
 10
14.5
 20
15.5
 30
0.0
  0
VERTEX
  5
9C6
  8
0
 10
14.5
 20
2.5
 30
0.0
  0
SEQEND
  5
9C7
  8
0
  0
POLYLINE
  5
346
  8
0
 66
     1
 10
0.0
 20
0.0
 30
0.0
 70
     1
  0
VERTEX
  5
9C8
  8
0
 10
1.0
 20
1.0
 30
0.0
  0
VERTEX
  5
9C9
  8
0
 10
1.0
 20
17.0
 30
0.0
  0
VERTEX
  5
9CA
  8
0
 10
16.0
 20
17.0
 30
0.0
  0
VERTEX
  5
9CB
  8
0
 10
16.0
 20
1.0
 30
0.0
  0
SEQEND
  5
9CC
  8
0
  0
POLYLINE
  5
347
  8
0
 66
     1
 10
0.0
 20
0.0
 30
0.0
 70
     1
  0
VERTEX
  5
9CD
  8
0
 10
17.0
 20
1.0
 30
0.0
  0
VERTEX
  5
9CE
  8
0
 10
17.0
 20
17.0
 30
0.0
  0
VERTEX
  5
9CF
  8
0
 10
23.0
 20
17.0
 30
0.0
  0
VERTEX
  5
9D0
  8
0
 10
23.0
 20
1.0
 30
0.0
  0
SEQEND
  5
9D1
  8
0
  0
POLYLINE
  5
348
  8
0
 66
     1
 10
0.0
 20
0.0
 30
0.0
 70
     1
  0
VERTEX
  5
9D2
  8
0
 10
0.0
 20
0.0
 30
0.0
  0
VERTEX
  5
9D3
  8
0
 10
0.0
 20
18.0
 30
0.0
  0
VERTEX
  5
9D4
  8
0
 10
24.0
 20
18.0
 30
0.0
  0
VERTEX
  5
9D5
  8
0
 10
24.0
 20
0.0
 30
0.0
  0
SEQEND
  5
9D6
  8
0
  0
ENDBLK
  5
34A
  8
0
  0
ENDSEC
  0
SECTION
  2
ENTITIES
  0
INSERT
  5
47
  8
0
  2
SCHRANK_-_SCHRANKTÜR_1_IN_
 10
24.331368346318101
 20
144.8344702039895
 30
0.0
  0
INSERT
  5
6E
  8
0
  2
SCHRANK_-_SCHRANKTÜR_1_MIT
 10
29.6830998410204
 20
145.04317761806359
 30
0.0
  0
INSERT
  5
AB
  8
0
  2
GESCHIRRSPÜLMASCHINE
 10
60.105710772110569
 20
145.04317761806359
 30
0.0
  0
INSERT
  5
350
  8
0
  2
MIKROWELLENGERÄT
 10
122.4536224511608
 20
113.92970571603421
 30
0.0
  0
ENDSEC
  0
EOF
