999
dxflib 2.0.4.8
  0
SECTION
  2
HEADER
  9
$ACADVER
  1
AC1015
  9
$HANDSEED
  5
FFFF
  9
$USERR4
 40
0.0
  9
$DIMTAD
 70
0
  9
$VISRETAIN
 70
1
  9
$TILEMODE
 70
1
  9
$SHADEDIF
 70
70
  9
$USERR5
 40
0.0
  9
$UCSYDIR
 10
0.0
 20
1.0
 30
0.0
  9
$ATTREQ
 70
1
  9
$CHAMFERA
 40
0.5
  9
$MENU
  1
.
  9
$CLAYER
  8
0
  9
$UCSXDIR
 10
1.0
 20
0.0
 30
0.0
  9
$CHAMFERB
 40
0.5
  9
$DIMASZ
 40
0.18
  9
$TRACEWID
 40
0.05
  9
$REGENMODE
 70
1
  9
$ORTHOMODE
 70
0
  9
$EXTMIN
 10
0.3313683463181007
 20
0.75635853773111
 30
0.0
  9
$PUCSYDIR
 10
0.0
 20
1.0
 30
0.0
  9
$ANGBASE
 50
0.0
  9
$USRTIMER
 70
1
  9
$SKETCHINC
 40
0.1
  9
$DIMGAP
 40
0.09
  9
$DIMTFAC
 40
1.0
  9
$DIMSAH
 70
0
  9
$DIMALT
 70
0
  9
$DIMSHO
 70
1
  9
$PUCSXDIR
 10
1.0
 20
0.0
 30
0.0
  9
$SURFTYPE
 70
6
  9
$SPLFRAME
 70
0
  9
$DIMTSZ
 40
0.0
  9
$LIMMIN
 10
0.0
 20
0.0
  9
$SURFTAB1
 70
6
  9
$SPLINESEGS
 70
8
  9
$BLIPMODE
 70
0
  9
$AUPREC
 70
0
  9
$LUNITS
 70
2
  9
$UNITMODE
 70
0
  9
$USERI1
 70
0
  9
$SURFTAB2
 70
6
  9
$SKPOLY
 70
0
  9
$ELEVATION
 40
0.0
  9
$DIMCEN
 40
0.09
  9
$DIMRND
 40
0.0
  9
$INSBASE
 10
0.0
 20
0.0
 30
0.0
  9
$USERI2
 70
0
  9
$UCSORG
 10
0.0
 20
0.0
 30
0.0
  9
$PELEVATION
 40
0.0
  9
$DIMEXO
 40
0.0625
  9
$TEXTSIZE
 40
0.2
  9
$DRAGMODE
 70
2
  9
$FILLMODE
 70
1
  9
$EXTMAX
 10
241.86108504018389
 20
179.54317761806359
 30
0.0
  9
$INSUNITS
 70
4
  9
$USERI3
 70
0
  9
$SURFU
 70
6
  9
$ANGDIR
 70
0
  9
$TDUSRTIMER
 40
0.301987581
  9
$DIMZIN
 70
0
  9
$DIMDLE
 40
0.0
  9
$DIMSCALE
 40
1.0
  9
$WORLDVIEW
 70
1
  9
$USERI4
 70
0
  9
$SURFV
 70
6
  9
$OSMODE
 70
37
  9
$QTEXTMODE
 70
0
  9
$LIMMAX
 10
240.0
 20
180.0
  9
$USERI5
 70
0
  9
$HANDLING
 70
22529
  9
$PDMODE
 70
0
  9
$LIMCHECK
 70
0
  9
$THICKNESS
 40
0.0
  9
$DIMSE1
 70
0
  9
$DIMLIM
 70
0
  9
$DIMTXT
 40
0.18
  9
$ATTMODE
 70
1
  9
$PEXTMAX
 10
-100000000000000000000.0
 20
-100000000000000000000.0
 30
-100000000000000000000.0
  9
$PEXTMIN
 10
100000000000000000000.0
 20
100000000000000000000.0
 30
100000000000000000000.0
  9
$PUCSORG
 10
0.0
 20
0.0
 30
0.0
  9
$SPLINETYPE
 70
6
  9
$TDINDWG
 40
0.3019879282
  9
$LUPREC
 70
4
  9
$DIMSOXD
 70
0
  9
$DIMLFAC
 40
1.0
  9
$DIMSE2
 70
0
  9
$DIMTOH
 70
1
  9
$CELTYPE
  6
BYLAYER
  9
$PLIMCHECK
 70
0
  9
$PLINEWID
 40
0.0
  9
$DIMSTYLE
  2
STANDARD
  9
$DIMTVP
 40
0.0
  9
$DIMASO
 70
1
  9
$DIMTM
 40
0.0
  9
$DIMDLI
 40
0.38
  9
$CECOLOR
 62
256
  9
$PLIMMAX
 10
12.0
 20
9.0
  9
$PLIMMIN
 10
0.0
 20
0.0
  9
$MAXACTVP
 70
64
  9
$TDUPDATE
 40
2452556.8396023032
  9
$FILLETRAD
 40
0.5
  9
$DIMCLRT
 70
0
  9
$DIMALTD
 70
2
  9
$DIMTIH
 70
1
  9
$LTSCALE
 40
1.0
  9
$USERR1
 40
0.0
  9
$ATTDIA
 70
0
  9
$PDSIZE
 40
0.0
  9
$DIMCLRD
 70
0
  9
$DIMEXE
 40
0.18
  9
$PSLTSCALE
 70
1
  9
$PLINEGEN
 70
0
  9
$SHADEDGE
 70
3
  9
$USERR2
 40
0.0
  9
$COORDS
 70
1
  9
$TDCREATE
 40
2451192.901182164
  9
$DIMCLRE
 70
0
  9
$DIMTOFL
 70
0
  9
$DIMALTF
 40
25.399999999999999
  9
$DIMTOL
 70
0
  9
$DIMTP
 40
0.0
  9
$TEXTSTYLE
  7
STANDARD
  9
$USERR3
 40
0.0
  9
$AUNITS
 70
0
  9
$DIMTIX
 70
0
  9
$MIRRTEXT
 70
1
  0
ENDSEC
  0
SECTION
  2
TABLES
  0
TABLE
  2
VPORT
  5
8
100
AcDbSymbolTable
 70
1
  0
VPORT
  5
30
100
AcDbSymbolTableRecord
100
AcDbViewportTableRecord
  2
*Active
 70
0
 10
0.0
 20
0.0
 11
1.0
 21
1.0
 12
286.30555555555549
 22
148.5
 13
0.0
 23
0.0
 14
10.0
 24
10.0
 15
10.0
 25
10.0
 16
0.0
 26
0.0
 36
1.0
 17
0.0
 27
0.0
 37
0.0
 40
297.0
 41
1.92798353909465
 42
50.0
 43
0.0
 44
0.0
 50
0.0
 51
0.0
 71
0
 72
100
 73
1
 74
3
 75
1
 76
1
 77
0
 78
0
281
0
 65
1
110
0.0
120
0.0
130
0.0
111
1.0
121
0.0
131
0.0
112
0.0
122
1.0
132
0.0
 79
0
146
0.0
  0
ENDTAB
  0
TABLE
  2
LTYPE
  5
5
100
AcDbSymbolTable
 70
21
  0
LTYPE
  5
14
100
AcDbSymbolTableRecord
100
AcDbLinetypeTableRecord
  2
ByBlock
 70
0
  3

 72
65
 73
0
 40
0.0
  0
LTYPE
  5
15
100
AcDbSymbolTableRecord
100
AcDbLinetypeTableRecord
  2
ByLayer
 70
0
  3

 72
65
 73
0
 40
0.0
  0
LTYPE
  5
16
100
AcDbSymbolTableRecord
100
AcDbLinetypeTableRecord
  2
CONTINUOUS
 70
0
  3
Solid line
 72
65
 73
0
 40
0.0
  0
LTYPE
  5
31
100
AcDbSymbolTableRecord
100
AcDbLinetypeTableRecord
  2
DOT
 70
0
  3
Dot . . . . . . . . . . . . . . . . . . . . . .
 72
65
 73
2
 40
6.3499999999999996
 49
0.0
 74
0
 49
-6.3499999999999996
 74
0
  0
LTYPE
  5
32
100
AcDbSymbolTableRecord
100
AcDbLinetypeTableRecord
  2
DOT2
 70
0
  3
Dot (.5x) .....................................
 72
65
 73
2
 40
3.1749999999999998
 49
0.0
 74
0
 49
-3.1749999999999998
 74
0
  0
LTYPE
  5
33
100
AcDbSymbolTableRecord
100
AcDbLinetypeTableRecord
  2
DOTX2
 70
0
  3
Dot (2x) .  .  .  .  .  .  .  .  .  .  .  .  .
 72
65
 73
2
 40
12.699999999999999
 49
0.0
 74
0
 49
-12.699999999999999
 74
0
  0
LTYPE
  5
34
100
AcDbSymbolTableRecord
100
AcDbLinetypeTableRecord
  2
DASHED
 70
0
  3
Dashed __ __ __ __ __ __ __ __ __ __ __ __ __ _
 72
65
 73
2
 40
19.050000000000001
 49
12.699999999999999
 74
0
 49
-6.3499999999999996
 74
0
  0
LTYPE
  5
35
100
AcDbSymbolTableRecord
100
AcDbLinetypeTableRecord
  2
DASHED2
 70
0
  3
Dashed (.5x) _ _ _ _ _ _ _ _ _ _ _ _ _ _ _ _ _
 72
65
 73
2
 40
9.5250000000000004
 49
6.3499999999999996
 74
0
 49
-3.1749999999999998
 74
0
  0
LTYPE
  5
36
100
AcDbSymbolTableRecord
100
AcDbLinetypeTableRecord
  2
DASHEDX2
 70
0
  3
Dashed (2x) ____  ____  ____  ____  ____  ___
 72
65
 73
2
 40
38.100000000000001
 49
25.399999999999999
 74
0
 49
-12.699999999999999
 74
0
  0
LTYPE
  5
37
100
AcDbSymbolTableRecord
100
AcDbLinetypeTableRecord
  2
DASHDOT
 70
0
  3
Dash dot __ . __ . __ . __ . __ . __ . __ . __
 72
65
 73
4
 40
25.399999999999999
 49
12.699999999999999
 74
0
 49
-6.3499999999999996
 74
0
 49
0.0
 74
0
 49
-6.3499999999999996
 74
0
  0
LTYPE
  5
38
100
AcDbSymbolTableRecord
100
AcDbLinetypeTableRecord
  2
DASHDOT2
 70
0
  3
Dash dot (.5x) _._._._._._._._._._._._._._._.
 72
65
 73
4
 40
12.699999999999999
 49
6.3499999999999996
 74
0
 49
-3.1749999999999998
 74
0
 49
0.0
 74
0
 49
-3.1749999999999998
 74
0
  0
LTYPE
  5
39
100
AcDbSymbolTableRecord
100
AcDbLinetypeTableRecord
  2
DASHDOTX2
 70
0
  3
Dash dot (2x) ____  .  ____  .  ____  .  ___
 72
65
 73
4
 40
50.799999999999997
 49
25.399999999999999
 74
0
 49
-12.699999999999999
 74
0
 49
0.0
 74
0
 49
-12.699999999999999
 74
0
  0
LTYPE
  5
3A
100
AcDbSymbolTableRecord
100
AcDbLinetypeTableRecord
  2
DIVIDE
 70
0
  3
Divide ____ . . ____ . . ____ . . ____ . . ____
 72
65
 73
6
 40
31.75
 49
12.699999999999999
 74
0
 49
-6.3499999999999996
 74
0
 49
0.0
 74
0
 49
-6.3499999999999996
 74
0
 49
0.0
 74
0
 49
-6.3499999999999996
 74
0
  0
LTYPE
  5
3B
100
AcDbSymbolTableRecord
100
AcDbLinetypeTableRecord
  2
DIVIDE2
 70
0
  3
Divide (.5x) __..__..__..__..__..__..__..__.._
 72
65
 73
6
 40
15.875
 49
6.3499999999999996
 74
0
 49
-3.1749999999999998
 74
0
 49
0.0
 74
0
 49
-3.1749999999999998
 74
0
 49
0.0
 74
0
 49
-3.1749999999999998
 74
0
  0
LTYPE
  5
3C
100
AcDbSymbolTableRecord
100
AcDbLinetypeTableRecord
  2
DIVIDEX2
 70
0
  3
Divide (2x) ________  .  .  ________  .  .  _
 72
65
 73
6
 40
63.5
 49
25.399999999999999
 74
0
 49
-12.699999999999999
 74
0
 49
0.0
 74
0
 49
-12.699999999999999
 74
0
 49
0.0
 74
0
 49
-12.699999999999999
 74
0
  0
LTYPE
  5
3D
100
AcDbSymbolTableRecord
100
AcDbLinetypeTableRecord
  2
CENTER
 70
0
  3
Center ____ _ ____ _ ____ _ ____ _ ____ _ ____
 72
65
 73
4
 40
50.799999999999997
 49
31.75
 74
0
 49
-6.3499999999999996
 74
0
 49
6.3499999999999996
 74
0
 49
-6.3499999999999996
 74
0
  0
LTYPE
  5
3E
100
AcDbSymbolTableRecord
100
AcDbLinetypeTableRecord
  2
CENTER2
 70
0
  3
Center (.5x) ___ _ ___ _ ___ _ ___ _ ___ _ ___
 72
65
 73
4
 40
28.574999999999999
 49
19.050000000000001
 74
0
 49
-3.1749999999999998
 74
0
 49
3.1749999999999998
 74
0
 49
-3.1749999999999998
 74
0
  0
LTYPE
  5
3F
100
AcDbSymbolTableRecord
100
AcDbLinetypeTableRecord
  2
CENTERX2
 70
0
  3
Center (2x) ________  __  ________  __  _____
 72
65
 73
4
 40
101.59999999999999
 49
63.5
 74
0
 49
-12.699999999999999
 74
0
 49
12.699999999999999
 74
0
 49
-12.699999999999999
 74
0
  0
LTYPE
  5
40
100
AcDbSymbolTableRecord
100
AcDbLinetypeTableRecord
  2
BORDER
 70
0
  3
Border __ __ . __ __ . __ __ . __ __ . __ __ .
 72
65
 73
6
 40
44.450000000000003
 49
12.699999999999999
 74
0
 49
-6.3499999999999996
 74
0
 49
12.699999999999999
 74
0
 49
-6.3499999999999996
 74
0
 49
0.0
 74
0
 49
-6.3499999999999996
 74
0
  0
LTYPE
  5
41
100
AcDbSymbolTableRecord
100
AcDbLinetypeTableRecord
  2
BORDER2
 70
0
  3
Border (.5x) __.__.__.__.__.__.__.__.__.__.__.
 72
65
 73
6
 40
22.225000000000001
 49
6.3499999999999996
 74
0
 49
-3.1749999999999998
 74
0
 49
6.3499999999999996
 74
0
 49
-3.1749999999999998
 74
0
 49
0.0
 74
0
 49
-3.1749999999999998
 74
0
  0
LTYPE
  5
42
100
AcDbSymbolTableRecord
100
AcDbLinetypeTableRecord
  2
BORDERX2
 70
0
  3
Border (2x) ____  ____  .  ____  ____  .  ___
 72
65
 73
6
 40
88.900000000000006
 49
25.399999999999999
 74
0
 49
-12.699999999999999
 74
0
 49
25.399999999999999
 74
0
 49
-12.699999999999999
 74
0
 49
0.0
 74
0
 49
-12.699999999999999
 74
0
  0
ENDTAB
  0
TABLE
  2
LAYER
  5
2
100
AcDbSymbolTable
 70
1
  0
LAYER
  5
10
100
AcDbSymbolTableRecord
100
AcDbLayerTableRecord
  2
0
 70
0
 62
7
  6
CONTINUOUS
390
F
  0
ENDTAB
  0
TABLE
  2
STYLE
  5
3
100
AcDbSymbolTable
 70
1
  0
STYLE
  5
11
100
AcDbSymbolTableRecord
100
AcDbTextStyleTableRecord
  2
Standard
 70
0
 40
0.0
 41
0.75
 50
0.0
 71
0
 42
2.5
  3
txt
  4

  0
ENDTAB
  0
TABLE
  2
VIEW
  5
6
100
AcDbSymbolTable
 70
0
  0
ENDTAB
  0
TABLE
  2
UCS
  5
7
100
AcDbSymbolTable
 70
0
  0
ENDTAB
  0
TABLE
  2
APPID
  5
9
100
AcDbSymbolTable
 70
1
  0
APPID
  5
12
100
AcDbSymbolTableRecord
100
AcDbRegAppTableRecord
  2
ACAD
 70
0
  0
ENDTAB
  0
TABLE
  2
DIMSTYLE
  5
A
100
AcDbSymbolTable
 70
1
100
AcDbDimStyleTable
 71
0
  0
DIMSTYLE
105
27
100
AcDbSymbolTableRecord
100
AcDbDimStyleTableRecord
  2
Standard
 41
0.18
 42
0.0625
 43
3.75
 44
0.18
 70
0
 73
0
 74
0
 77
1
 78
8
140
0.18
141
2.5
143
0.03937007874016
147
0.09
171
3
172
1
271
2
272
2
274
3
278
44
283
0
284
8
340
11
  0
ENDTAB
  0
TABLE
  2
BLOCK_RECORD
  5
1
100
AcDbSymbolTable
 70
1
  0
BLOCK_RECORD
  5
1F
100
AcDbSymbolTableRecord
100
AcDbBlockTableRecord
  2
*Model_Space
340
22
  0
BLOCK_RECORD
  5
1B
100
AcDbSymbolTableRecord
100
AcDbBlockTableRecord
  2
*Paper_Space
340
1E
  0
BLOCK_RECORD
  5
23
100
AcDbSymbolTableRecord
100
AcDbBlockTableRecord
  2
*Paper_Space0
340
26
  0
BLOCK_RECORD
  5
43
100
AcDbSymbolTableRecord
100
AcDbBlockTableRecord
  2
SCHRANK_-_SCHRANKTÜR_1_IN_
340
0
  0
BLOCK_RECORD
  5
44
100
AcDbSymbolTableRecord
100
AcDbBlockTableRecord
  2
SCHRANK_-_SCHRANKTÜR_1_MIT
340
0
  0
BLOCK_RECORD
  5
45
100
AcDbSymbolTableRecord
100
AcDbBlockTableRecord
  2
GESCHIRRSPÜLMASCHINE
340
0
  0
BLOCK_RECORD
  5
46
100
AcDbSymbolTableRecord
100
AcDbBlockTableRecord
  2
ARMATUR_-_KÜCHENARMATUR_IN
340
0
  0
BLOCK_RECORD
  5
47
100
AcDbSymbolTableRecord
100
AcDbBlockTableRecord
  2
ARMATUR_-_KÜCHENARMATUR_I0
340
0
  0
BLOCK_RECORD
  5
48
100
AcDbSymbolTableRecord
100
AcDbBlockTableRecord
  2
ARMATUR_-_EINHEBELMISCHER_
340
0
  0
BLOCK_RECORD
  5
49
100
AcDbSymbolTableRecord
100
AcDbBlockTableRecord
  2
ARMATUR_-_EINHEBELMISCHER0
340
0
  0
BLOCK_RECORD
  5
4A
100
AcDbSymbolTableRecord
100
AcDbBlockTableRecord
  2
EIS-_UND_WASSERSPENDER
340
0
  0
BLOCK_RECORD
  5
4B
100
AcDbSymbolTableRecord
100
AcDbBlockTableRecord
  2
KÜCHENBLOCK_-_2100_X_2400_
340
0
  0
BLOCK_RECORD
  5
4C
100
AcDbSymbolTableRecord
100
AcDbBlockTableRecord
  2
MIKROWELLENGERÄT
340
0
  0
BLOCK_RECORD
  5
4D
100
AcDbSymbolTableRecord
100
AcDbBlockTableRecord
  2
TELEFONSTECKDOSE
340
0
  0
BLOCK_RECORD
  5
4E
100
AcDbSymbolTableRecord
100
AcDbBlockTableRecord
  2
HERD_-_76_CM_IN_VORDERANSI
340
0
  0
BLOCK_RECORD
  5
4F
100
AcDbSymbolTableRecord
100
AcDbBlockTableRecord
  2
HERD_-_76_CM_IN_DRAUFSICHT
340
0
  0
BLOCK_RECORD
  5
50
100
AcDbSymbolTableRecord
100
AcDbBlockTableRecord
  2
HERDABZUGSHAUBE_-_76_CM_IN
340
0
  0
BLOCK_RECORD
  5
51
100
AcDbSymbolTableRecord
100
AcDbBlockTableRecord
  2
KÜHLSCHRANK_-_ZWEITÜRIGER_
340
0
  0
BLOCK_RECORD
  5
52
100
AcDbSymbolTableRecord
100
AcDbBlockTableRecord
  2
KÜHLSCHRANK_-_ZWEITÜRIGER0
340
0
  0
BLOCK_RECORD
  5
53
100
AcDbSymbolTableRecord
100
AcDbBlockTableRecord
  2
SPÜLE_-_DOPPELSPÜLE_MIT_91
340
0
  0
BLOCK_RECORD
  5
54
100
AcDbSymbolTableRecord
100
AcDbBlockTableRecord
  2
SPÜLE_-_EINZELSPÜLE_MIT_76
340
0
  0
BLOCK_RECORD
  5
55
100
AcDbSymbolTableRecord
100
AcDbBlockTableRecord
  2
LICHTSCHALTER_-_DOPPELSCHA
340
0
  0
BLOCK_RECORD
  5
56
100
AcDbSymbolTableRecord
100
AcDbBlockTableRecord
  2
HÄNGESCHRANK_-_46_X_30_CM_
340
0
  0
BLOCK_RECORD
  5
57
100
AcDbSymbolTableRecord
100
AcDbBlockTableRecord
  2
HÄNGESCHRANK_-_46_X_91_CM_
340
0
  0
ENDTAB
  0
ENDSEC
  0
SECTION
  2
BLOCKS
  0
BLOCK
  5
20
100
AcDbEntity
  8
0
100
AcDbBlockBegin
  2
*Model_Space
 70
0
 10
0.0
 20
0.0
 30
0.0
  3
*Model_Space
  1

  0
ENDBLK
  5
21
100
AcDbEntity
  8
0
100
AcDbBlockEnd
  0
BLOCK
  5
1C
100
AcDbEntity
 67
1
  8
0
100
AcDbBlockBegin
  2
*Paper_Space
 70
0
 10
0.0
 20
0.0
 30
0.0
  3
*Paper_Space
  1

  0
ENDBLK
  5
1D
100
AcDbEntity
 67
1
  8
0
100
AcDbBlockEnd
  0
BLOCK
  5
24
100
AcDbEntity
  8
0
100
AcDbBlockBegin
  2
*Paper_Space0
 70
0
 10
0.0
 20
0.0
 30
0.0
  3
*Paper_Space0
  1

  0
ENDBLK
  5
25
100
AcDbEntity
  8
0
100
AcDbBlockEnd
  0
BLOCK
  5
58
100
AcDbEntity
  8
0
100
AcDbBlockBegin
  2
SCHRANK_-_SCHRANKTÜR_1_IN_
 70
0
 10
0.0
 20
0.0
 30
0.0
  3
SCHRANK_-_SCHRANKTÜR_1_IN_
  1

  0
LINE
  5
59
100
AcDbEntity
100
AcDbLine
  8
0
 62
256
370
-1
  6
ByLayer
 10
-24.0
 20
6.0
 30
0.0
 11
-24.0
 21
28.500000000000028
 31
0.0
  0
LINE
  5
5A
100
AcDbEntity
100
AcDbLine
  8
0
 62
256
370
-1
  6
ByLayer
 10
-23.5
 20
28.500000000000028
 30
0.0
 11
-23.5
 21
6.0
 31
0.0
  0
LWPOLYLINE
  5
5B
  8
0
 62
256
370
-1
  6
ByLayer
100
AcDbEntity
100
AcDbPolyline
 90
5
 70
0
 10
-23.0
 20
5.0
 10
-23.0
 20
34.500000000000021
 10
0.0
 20
34.500000000000021
 10
0.0
 20
0.0
 10
-20.0
 20
0.0
  0
LINE
  5
5C
100
AcDbEntity
100
AcDbLine
  8
0
 62
256
370
-1
  6
ByLayer
 10
-20.0
 20
0.0
 30
0.0
 11
-20.0
 21
5.0
 31
0.0
  0
LINE
  5
5D
100
AcDbEntity
100
AcDbLine
  8
0
 62
256
370
-1
  6
ByLayer
 10
-20.0
 20
5.0
 30
0.0
 11
-23.0
 21
5.0
 31
0.0
  0
LINE
  5
5E
100
AcDbEntity
100
AcDbLine
  8
0
 62
256
370
-1
  6
ByLayer
 10
-23.5
 20
6.0
 30
0.0
 11
-24.0
 21
6.0
 31
0.0
  0
LINE
  5
5F
100
AcDbEntity
100
AcDbLine
  8
0
 62
256
370
-1
  6
ByLayer
 10
-24.0
 20
33.500000000000028
 30
0.0
 11
-23.5
 21
33.500000000000028
 31
0.0
  0
LINE
  5
60
100
AcDbEntity
100
AcDbLine
  8
0
 62
256
370
-1
  6
ByLayer
 10
-23.5
 20
29.500000000000011
 30
0.0
 11
-24.0
 21
29.500000000000011
 31
0.0
  0
LINE
  5
61
100
AcDbEntity
100
AcDbLine
  8
0
 62
256
370
-1
  6
ByLayer
 10
-24.0
 20
28.500000000000028
 30
0.0
 11
-23.5
 21
28.500000000000028
 31
0.0
  0
LINE
  5
62
100
AcDbEntity
100
AcDbLine
  8
0
 62
256
370
-1
  6
ByLayer
 10
-23.5
 20
33.500000000000028
 30
0.0
 11
-23.5
 21
29.500000000000011
 31
0.0
  0
LINE
  5
63
100
AcDbEntity
100
AcDbLine
  8
0
 62
256
370
-1
  6
ByLayer
 10
-24.0
 20
29.500000000000011
 30
0.0
 11
-24.0
 21
33.500000000000028
 31
0.0
  0
ENDBLK
  5
64
100
AcDbEntity
  8
0
100
AcDbBlockEnd
  0
BLOCK
  5
65
100
AcDbEntity
  8
0
100
AcDbBlockBegin
  2
SCHRANK_-_SCHRANKTÜR_1_MIT
 70
0
 10
0.0
 20
0.0
 30
0.0
  3
SCHRANK_-_SCHRANKTÜR_1_MIT
  1

  0
LINE
  5
66
100
AcDbEntity
100
AcDbLine
  8
0
 62
256
370
-1
  6
ByLayer
 10
0.0
 20
5.0
 30
0.0
 11
24.0
 21
5.0
 31
0.0
  0
LINE
  5
67
100
AcDbEntity
100
AcDbLine
  8
0
 62
256
370
-1
  6
ByLayer
 10
23.0
 20
28.499999999999989
 30
0.0
 11
1.0
 21
28.499999999999989
 31
0.0
  0
LINE
  5
68
100
AcDbEntity
100
AcDbLine
  8
0
 62
256
370
-1
  6
ByLayer
 10
1.0
 20
29.499999999999989
 30
0.0
 11
23.0
 21
29.499999999999989
 31
0.0
  0
LINE
  5
69
100
AcDbEntity
100
AcDbLine
  8
0
 62
256
370
-1
  6
ByLayer
 10
0.0
 20
0.0
 30
0.0
 11
0.0
 21
34.5
 31
0.0
  0
LINE
  5
6A
100
AcDbEntity
100
AcDbLine
  8
0
 62
256
370
-1
  6
ByLayer
 10
0.0
 20
34.5
 30
0.0
 11
24.0
 21
34.5
 31
0.0
  0
LINE
  5
6B
100
AcDbEntity
100
AcDbLine
  8
0
 62
256
370
-1
  6
ByLayer
 10
24.0
 20
34.5
 30
0.0
 11
24.0
 21
0.0
 31
0.0
  0
LINE
  5
6C
100
AcDbEntity
100
AcDbLine
  8
0
 62
256
370
-1
  6
ByLayer
 10
24.0
 20
0.0
 30
0.0
 11
0.0
 21
0.0
 31
0.0
  0
LINE
  5
6D
100
AcDbEntity
100
AcDbLine
  8
0
 62
256
370
-1
  6
ByLayer
 10
23.0
 20
28.499999999999989
 30
0.0
 11
23.0
 21
6.0
 31
0.0
  0
LINE
  5
6E
100
AcDbEntity
100
AcDbLine
  8
0
 62
256
370
-1
  6
ByLayer
 10
23.0
 20
6.0
 30
0.0
 11
1.0
 21
6.0
 31
0.0
  0
LINE
  5
6F
100
AcDbEntity
100
AcDbLine
  8
0
 62
256
370
-1
  6
ByLayer
 10
1.0
 20
6.0
 30
0.0
 11
1.0
 21
28.499999999999989
 31
0.0
  0
LINE
  5
70
100
AcDbEntity
100
AcDbLine
  8
0
 62
256
370
-1
  6
ByLayer
 10
1.0
 20
29.499999999999989
 30
0.0
 11
1.0
 21
33.5
 31
0.0
  0
LINE
  5
71
100
AcDbEntity
100
AcDbLine
  8
0
 62
256
370
-1
  6
ByLayer
 10
1.0
 20
33.5
 30
0.0
 11
23.0
 21
33.5
 31
0.0
  0
LINE
  5
72
100
AcDbEntity
100
AcDbLine
  8
0
 62
256
370
-1
  6
ByLayer
 10
23.0
 20
33.5
 30
0.0
 11
23.0
 21
29.499999999999989
 31
0.0
  0
ENDBLK
  5
73
100
AcDbEntity
  8
0
100
AcDbBlockEnd
  0
BLOCK
  5
74
100
AcDbEntity
  8
0
100
AcDbBlockBegin
  2
GESCHIRRSPÜLMASCHINE
 70
0
 10
0.0
 20
0.0
 30
0.0
  3
GESCHIRRSPÜLMASCHINE
  1

  0
LINE
  5
75
100
AcDbEntity
100
AcDbLine
  8
0
 62
256
370
-1
  6
ByLayer
 10
19.315600000000011
 20
33.184299999999958
 30
0.0
 11
19.5
 21
32.999999999999957
 31
0.0
  0
LINE
  5
76
100
AcDbEntity
100
AcDbLine
  8
0
 62
256
370
-1
  6
ByLayer
 10
20.5
 20
32.999999999999957
 30
0.0
 11
20.69380000000001
 21
33.193799999999982
 31
0.0
  0
LINE
  5
77
100
AcDbEntity
100
AcDbLine
  8
0
 62
256
370
-1
  6
ByLayer
 10
20.706100000000049
 20
31.793899999999962
 30
0.0
 11
20.5
 21
31.999999999999972
 31
0.0
  0
LINE
  5
78
100
AcDbEntity
100
AcDbLine
  8
0
 62
256
370
-1
  6
ByLayer
 10
19.5
 20
31.999999999999972
 30
0.0
 11
19.294200000000028
 21
31.794199999999989
 31
0.0
  0
LINE
  5
79
100
AcDbEntity
100
AcDbLine
  8
0
 62
256
370
-1
  6
ByLayer
 10
20.0
 20
32.249999999999957
 30
0.0
 11
20.0
 21
31.499999999999961
 31
0.0
  0
LINE
  5
7A
100
AcDbEntity
100
AcDbLine
  8
0
 62
256
370
-1
  6
ByLayer
 10
20.0
 20
32.749999999999957
 30
0.0
 11
20.0
 21
33.499999999999957
 31
0.0
  0
LINE
  5
7B
100
AcDbEntity
100
AcDbLine
  8
0
 62
256
370
-1
  6
ByLayer
 10
19.0
 20
32.499999999999957
 30
0.0
 11
19.75
 21
32.499999999999957
 31
0.0
  0
LINE
  5
7C
100
AcDbEntity
100
AcDbLine
  8
0
 62
256
370
-1
  6
ByLayer
 10
21.0
 20
32.499999999999957
 30
0.0
 11
20.249999999999989
 21
32.499999999999957
 31
0.0
  0
CIRCLE
  5
7D
100
AcDbEntity
100
AcDbCircle
  8
0
 62
256
370
-1
  6
ByLayer
 10
20.0
 20
32.499999999999957
 30
0.0
 40
1.0
  0
LINE
  5
7E
100
AcDbEntity
100
AcDbLine
  8
0
 62
256
370
-1
  6
ByLayer
 10
16.315600000000011
 20
33.184299999999958
 30
0.0
 11
16.5
 21
32.999999999999957
 31
0.0
  0
LINE
  5
7F
100
AcDbEntity
100
AcDbLine
  8
0
 62
256
370
-1
  6
ByLayer
 10
17.5
 20
32.999999999999957
 30
0.0
 11
17.69380000000001
 21
33.193799999999982
 31
0.0
  0
LINE
  5
80
100
AcDbEntity
100
AcDbLine
  8
0
 62
256
370
-1
  6
ByLayer
 10
17.706100000000038
 20
31.793899999999962
 30
0.0
 11
17.5
 21
31.999999999999972
 31
0.0
  0
LINE
  5
81
100
AcDbEntity
100
AcDbLine
  8
0
 62
256
370
-1
  6
ByLayer
 10
16.5
 20
31.999999999999972
 30
0.0
 11
16.294200000000039
 21
31.794199999999989
 31
0.0
  0
LINE
  5
82
100
AcDbEntity
100
AcDbLine
  8
0
 62
256
370
-1
  6
ByLayer
 10
17.0
 20
32.249999999999957
 30
0.0
 11
17.0
 21
31.499999999999961
 31
0.0
  0
LINE
  5
83
100
AcDbEntity
100
AcDbLine
  8
0
 62
256
370
-1
  6
ByLayer
 10
17.0
 20
32.749999999999957
 30
0.0
 11
17.0
 21
33.499999999999957
 31
0.0
  0
LINE
  5
84
100
AcDbEntity
100
AcDbLine
  8
0
 62
256
370
-1
  6
ByLayer
 10
16.0
 20
32.499999999999957
 30
0.0
 11
16.75
 21
32.499999999999957
 31
0.0
  0
LINE
  5
85
100
AcDbEntity
100
AcDbLine
  8
0
 62
256
370
-1
  6
ByLayer
 10
18.0
 20
32.499999999999957
 30
0.0
 11
17.25
 21
32.499999999999957
 31
0.0
  0
CIRCLE
  5
86
100
AcDbEntity
100
AcDbCircle
  8
0
 62
256
370
-1
  6
ByLayer
 10
17.0
 20
32.499999999999957
 30
0.0
 40
1.0
  0
LWPOLYLINE
  5
87
  8
0
 62
256
370
-1
  6
ByLayer
100
AcDbEntity
100
AcDbPolyline
 90
4
 70
1
 10
15.0
 20
30.999999999999961
 10
15.0
 20
33.999999999999957
 10
22.0
 20
33.999999999999957
 10
22.0
 20
30.999999999999961
  0
CIRCLE
  5
88
100
AcDbEntity
100
AcDbCircle
  8
0
 62
256
370
-1
  6
ByLayer
 10
7.5
 20
32.499999999999957
 30
0.0
 40
0.75
  0
CIRCLE
  5
89
100
AcDbEntity
100
AcDbCircle
  8
0
 62
256
370
-1
  6
ByLayer
 10
5.0
 20
32.499999999999957
 30
0.0
 40
0.75
  0
CIRCLE
  5
8A
100
AcDbEntity
100
AcDbCircle
  8
0
 62
256
370
-1
  6
ByLayer
 10
2.5
 20
32.499999999999957
 30
0.0
 40
0.75
  0
CIRCLE
  5
8B
100
AcDbEntity
100
AcDbCircle
  8
0
 62
256
370
-1
  6
ByLayer
 10
10.0
 20
32.499999999999957
 30
0.0
 40
0.75
  0
LWPOLYLINE
  5
8C
  8
0
 62
256
370
-1
  6
ByLayer
100
AcDbEntity
100
AcDbPolyline
 90
4
 70
1
 10
0.5
 20
30.999999999999961
 10
0.5
 20
33.999999999999957
 10
12.0
 20
33.999999999999957
 10
12.0
 20
30.999999999999961
  0
LINE
  5
8D
100
AcDbEntity
100
AcDbLine
  8
0
 62
256
370
-1
  6
ByLayer
 10
24.0
 20
30.499999999999972
 30
0.0
 11
0.0
 21
30.499999999999972
 31
0.0
  0
LWPOLYLINE
  5
8E
  8
0
 62
256
370
-1
  6
ByLayer
100
AcDbEntity
100
AcDbPolyline
 90
4
 70
1
 10
0.0
 20
0.0
 10
0.0
 20
34.499999999999957
 10
24.0
 20
34.499999999999957
 10
24.0
 20
0.0
  0
LINE
  5
8F
100
AcDbEntity
100
AcDbLine
  8
0
 62
256
370
-1
  6
ByLayer
 10
0.0
 20
5.0
 30
0.0
 11
24.0
 21
5.0
 31
0.0
  0
ENDBLK
  5
90
100
AcDbEntity
  8
0
100
AcDbBlockEnd
  0
BLOCK
  5
91
100
AcDbEntity
  8
0
100
AcDbBlockBegin
  2
ARMATUR_-_KÜCHENARMATUR_IN
 70
0
 10
0.0
 20
0.0
 30
0.0
  3
ARMATUR_-_KÜCHENARMATUR_IN
  1

  0
LWPOLYLINE
  5
92
  8
0
 62
256
370
-1
  6
ByLayer
100
AcDbEntity
100
AcDbPolyline
 90
6
 70
0
 10
5.0
 20
3.251299999999957
 10
5.0
 20
3.5
 10
3.0
 20
3.5
 10
3.0
 20
1.5
 10
5.0
 20
1.5
 10
5.0
 20
2.5
  0
LWPOLYLINE
  5
93
  8
0
 62
256
370
-1
  6
ByLayer
100
AcDbEntity
100
AcDbPolyline
 90
4
 70
1
 10
5.5
 20
2.5
 10
5.5
 20
3.25
 10
4.5
 20
3.25
 10
4.5
 20
2.5
  0
LINE
  5
94
100
AcDbEntity
100
AcDbLine
  8
0
 62
256
370
-1
  6
ByLayer
 10
3.5
 20
1.5
 30
0.0
 11
3.5
 21
1.0
 31
0.0
  0
LINE
  5
95
100
AcDbEntity
100
AcDbLine
  8
0
 62
256
370
-1
  6
ByLayer
 10
4.5
 20
1.0
 30
0.0
 11
4.5
 21
1.5
 31
0.0
  0
LINE
  5
96
100
AcDbEntity
100
AcDbLine
  8
0
 62
256
370
-1
  6
ByLayer
 10
-0.75
 20
3.5
 30
0.0
 11
0.319199999999995
 21
3.5
 31
0.0
  0
LINE
  5
97
100
AcDbEntity
100
AcDbLine
  8
0
 62
256
370
-1
  6
ByLayer
 10
0.75
 20
2.5
 30
0.0
 11
0.75
 21
1.0
 31
0.0
  0
LINE
  5
98
100
AcDbEntity
100
AcDbLine
  8
0
 62
256
370
-1
  6
ByLayer
 10
-0.25
 20
2.5
 30
0.0
 11
-0.25
 21
3.0
 31
0.0
  0
LINE
  5
99
100
AcDbEntity
100
AcDbLine
  8
0
 62
256
370
-1
  6
ByLayer
 10
0.75
 20
2.5
 30
0.0
 11
-0.25
 21
2.5
 31
0.0
  0
LINE
  5
9A
100
AcDbEntity
100
AcDbLine
  8
0
 62
256
370
-1
  6
ByLayer
 10
4.1921099999999853
 20
5.5040999999999931
 30
0.0
 11
0.75
 21
2.5
 31
0.0
  0
LINE
  5
9B
100
AcDbEntity
100
AcDbLine
  8
0
 62
256
370
-1
  6
ByLayer
 10
3.75
 20
5.5
 30
0.0
 11
3.75
 21
6.0
 31
0.0
  0
LINE
  5
9C
100
AcDbEntity
100
AcDbLine
  8
0
 62
256
370
-1
  6
ByLayer
 10
4.75
 20
5.5
 30
0.0
 11
3.75
 21
5.5
 31
0.0
  0
LINE
  5
9D
100
AcDbEntity
100
AcDbLine
  8
0
 62
256
370
-1
  6
ByLayer
 10
4.75
 20
6.0
 30
0.0
 11
4.75
 21
5.5
 31
0.0
  0
LINE
  5
9E
100
AcDbEntity
100
AcDbLine
  8
0
 62
256
370
-1
  6
ByLayer
 10
3.75
 20
6.0
 30
0.0
 11
-0.25
 21
2.5
 31
0.0
  0
LINE
  5
9F
100
AcDbEntity
100
AcDbLine
  8
0
 62
256
370
-1
  6
ByLayer
 10
3.75
 20
6.0
 30
0.0
 11
3.75
 21
6.5
 31
0.0
  0
LINE
  5
A0
100
AcDbEntity
100
AcDbLine
  8
0
 62
256
370
-1
  6
ByLayer
 10
4.75
 20
6.0
 30
0.0
 11
3.75
 21
6.0
 31
0.0
  0
LINE
  5
A1
100
AcDbEntity
100
AcDbLine
  8
0
 62
256
370
-1
  6
ByLayer
 10
4.75
 20
6.5
 30
0.0
 11
4.75
 21
6.0
 31
0.0
  0
LINE
  5
A2
100
AcDbEntity
100
AcDbLine
  8
0
 62
256
370
-1
  6
ByLayer
 10
3.75
 20
6.5
 30
0.0
 11
4.75
 21
6.5
 31
0.0
  0
LINE
  5
A3
100
AcDbEntity
100
AcDbLine
  8
0
 62
256
370
-1
  6
ByLayer
 10
-0.25
 20
3.0
 30
0.0
 11
3.75
 21
6.5
 31
0.0
  0
LINE
  5
A4
100
AcDbEntity
100
AcDbLine
  8
0
 62
256
370
-1
  6
ByLayer
 10
-0.75
 20
1.0
 30
0.0
 11
-0.75
 21
3.5
 31
0.0
  0
LWPOLYLINE
  5
A5
  8
0
 62
256
370
-1
  6
ByLayer
100
AcDbEntity
100
AcDbPolyline
 90
6
 70
0
 10
-5.0
 20
3.251299999999957
 10
-5.0
 20
3.5
 10
-3.0
 20
3.5
 10
-3.0
 20
1.5
 10
-5.0
 20
1.5
 10
-5.0
 20
2.5
  0
LWPOLYLINE
  5
A6
  8
0
 62
256
370
-1
  6
ByLayer
100
AcDbEntity
100
AcDbPolyline
 90
4
 70
1
 10
-5.5
 20
2.5
 10
-5.5
 20
3.25
 10
-4.5
 20
3.25
 10
-4.5
 20
2.5
  0
LINE
  5
A7
100
AcDbEntity
100
AcDbLine
  8
0
 62
256
370
-1
  6
ByLayer
 10
-3.5
 20
1.5
 30
0.0
 11
-3.5
 21
1.0
 31
0.0
  0
LINE
  5
A8
100
AcDbEntity
100
AcDbLine
  8
0
 62
256
370
-1
  6
ByLayer
 10
-4.5
 20
1.0
 30
0.0
 11
-4.5
 21
1.5
 31
0.0
  0
LWPOLYLINE
  5
A9
  8
0
 62
256
370
-1
  6
ByLayer
100
AcDbEntity
100
AcDbPolyline
 90
4
 70
1
 10
-6.0
 20
0.0
 10
-6.0
 20
1.0
 10
6.0
 20
1.0
 10
6.0
 20
0.0
  0
ENDBLK
  5
AA
100
AcDbEntity
  8
0
100
AcDbBlockEnd
  0
BLOCK
  5
AB
100
AcDbEntity
  8
0
100
AcDbBlockBegin
  2
ARMATUR_-_KÜCHENARMATUR_I0
 70
0
 10
0.0
 20
0.0
 30
0.0
  3
ARMATUR_-_KÜCHENARMATUR_I0
  1

  0
LWPOLYLINE
  5
AC
  8
0
 62
256
370
-1
  6
ByLayer
100
AcDbEntity
100
AcDbPolyline
 90
6
 70
0
 10
-0.0058699999999945
 20
-2.0
 10
-6.0
 20
-2.0
 10
-6.0
 20
0.0
 10
6.0
 20
0.0
 10
6.0
 20
-2.0
 10
1.151949999999998
 20
-2.0
  0
CIRCLE
  5
AD
100
AcDbEntity
100
AcDbCircle
  8
0
 62
256
370
-1
  6
ByLayer
 10
-4.0
 20
-1.0
 30
0.0
 40
1.0
  0
LINE
  5
AE
100
AcDbEntity
100
AcDbLine
  8
0
 62
256
370
-1
  6
ByLayer
 10
5.5
 20
-1.25
 30
0.0
 11
4.9427800000000062
 21
-1.25
 31
0.0
  0
LINE
  5
AF
100
AcDbEntity
100
AcDbLine
  8
0
 62
256
370
-1
  6
ByLayer
 10
4.9427800000000062
 20
-0.75
 30
0.0
 11
5.5
 21
-0.75
 31
0.0
  0
LINE
  5
B0
100
AcDbEntity
100
AcDbLine
  8
0
 62
256
370
-1
  6
ByLayer
 10
5.5
 20
-0.75
 30
0.0
 11
5.5
 21
-1.25
 31
0.0
  0
CIRCLE
  5
B1
100
AcDbEntity
100
AcDbCircle
  8
0
 62
256
370
-1
  6
ByLayer
 10
4.0
 20
-1.0
 30
0.0
 40
1.0
  0
CIRCLE
  5
B2
100
AcDbEntity
100
AcDbCircle
  8
0
 62
256
370
-1
  6
ByLayer
 10
0.0
 20
-1.0
 30
0.0
 40
0.75
  0
LINE
  5
B3
100
AcDbEntity
100
AcDbLine
  8
0
 62
256
370
-1
  6
ByLayer
 10
-5.5
 20
-0.75
 30
0.0
 11
-5.5
 21
-1.25
 31
0.0
  0
LINE
  5
B4
100
AcDbEntity
100
AcDbLine
  8
0
 62
256
370
-1
  6
ByLayer
 10
-5.5
 20
-1.25
 30
0.0
 11
-4.9427799999999991
 21
-1.25
 31
0.0
  0
LINE
  5
B5
100
AcDbEntity
100
AcDbLine
  8
0
 62
256
370
-1
  6
ByLayer
 10
-4.9427799999999991
 20
-0.75
 30
0.0
 11
-5.5
 21
-0.75
 31
0.0
  0
ARC
  5
B6
100
AcDbEntity
  8
0
 62
256
370
-1
  6
ByLayer
100
AcDbCircle
 10
4.0
 20
-7.9282000000000021
 30
0.0
 40
0.5
100
AcDbArc
 50
209.99999999999989
 51
29.999999999999996
  0
LINE
  5
B7
100
AcDbEntity
100
AcDbLine
  8
0
 62
256
370
-1
  6
ByLayer
 10
-0.147750000000002
 20
-1.7441000000000031
 30
0.0
 11
3.566980000000008
 21
-8.1782000000000021
 31
0.0
  0
LINE
  5
B8
100
AcDbEntity
100
AcDbLine
  8
0
 62
256
370
-1
  6
ByLayer
 10
4.433010000000003
 20
-7.6782000000000021
 30
0.0
 11
0.7182800000000073
 21
-1.244100000000002
 31
0.0
  0
ENDBLK
  5
B9
100
AcDbEntity
  8
0
100
AcDbBlockEnd
  0
BLOCK
  5
BA
100
AcDbEntity
  8
0
100
AcDbBlockBegin
  2
ARMATUR_-_EINHEBELMISCHER_
 70
0
 10
0.0
 20
0.0
 30
0.0
  3
ARMATUR_-_EINHEBELMISCHER_
  1

  0
LINE
  5
BB
100
AcDbEntity
100
AcDbLine
  8
0
 62
256
370
-1
  6
ByLayer
 10
-0.75
 20
1.0
 30
0.0
 11
0.75
 21
1.0
 31
0.0
  0
LINE
  5
BC
100
AcDbEntity
100
AcDbLine
  8
0
 62
256
370
-1
  6
ByLayer
 10
-0.5
 20
4.0
 30
0.0
 11
0.5
 21
4.0
 31
0.0
  0
LINE
  5
BD
100
AcDbEntity
100
AcDbLine
  8
0
 62
256
370
-1
  6
ByLayer
 10
-0.5
 20
4.0
 30
0.0
 11
-2.0
 21
5.5
 31
0.0
  0
LINE
  5
BE
100
AcDbEntity
100
AcDbLine
  8
0
 62
256
370
-1
  6
ByLayer
 10
-1.0
 20
5.5
 30
0.0
 11
0.5
 21
4.0
 31
0.0
  0
LINE
  5
BF
100
AcDbEntity
100
AcDbLine
  8
0
 62
256
370
-1
  6
ByLayer
 10
-1.0
 20
5.5
 30
0.0
 11
-1.0
 21
6.0
 31
0.0
  0
LINE
  5
C0
100
AcDbEntity
100
AcDbLine
  8
0
 62
256
370
-1
  6
ByLayer
 10
-2.0
 20
5.5
 30
0.0
 11
-1.0
 21
5.5
 31
0.0
  0
LINE
  5
C1
100
AcDbEntity
100
AcDbLine
  8
0
 62
256
370
-1
  6
ByLayer
 10
-2.0
 20
6.0
 30
0.0
 11
-2.0
 21
5.5
 31
0.0
  0
LINE
  5
C2
100
AcDbEntity
100
AcDbLine
  8
0
 62
256
370
-1
  6
ByLayer
 10
-1.0
 20
6.0
 30
0.0
 11
-2.0
 21
6.0
 31
0.0
  0
LINE
  5
C3
100
AcDbEntity
100
AcDbLine
  8
0
 62
256
370
-1
  6
ByLayer
 10
0.5
 20
4.0
 30
0.0
 11
-1.0
 21
6.0
 31
0.0
  0
ARC
  5
C4
100
AcDbEntity
  8
0
 62
256
370
-1
  6
ByLayer
100
AcDbCircle
 10
1.254260000000001
 20
3.030199999999978
 30
0.0
 40
2.0044819999999981
100
AcDbArc
 50
151.06460000000001
 51
180.86289999999991
  0
ARC
  5
C5
100
AcDbEntity
  8
0
 62
256
370
-1
  6
ByLayer
100
AcDbCircle
 10
-1.254260000000001
 20
3.030199999999978
 30
0.0
 40
2.0044819999999981
100
AcDbArc
 50
359.1370999999998
 51
28.935359999999999
  0
LINE
  5
C6
100
AcDbEntity
100
AcDbLine
  8
0
 62
256
370
-1
  6
ByLayer
 10
0.75
 20
1.5
 30
0.0
 11
0.75
 21
0.5
 31
0.0
  0
LINE
  5
C7
100
AcDbEntity
100
AcDbLine
  8
0
 62
256
370
-1
  6
ByLayer
 10
0.75
 20
3.0
 30
0.0
 11
0.75
 21
2.738600000000019
 31
0.0
  0
LINE
  5
C8
100
AcDbEntity
100
AcDbLine
  8
0
 62
256
370
-1
  6
ByLayer
 10
-0.25
 20
1.5
 30
0.0
 11
-0.25
 21
2.0
 31
0.0
  0
LINE
  5
C9
100
AcDbEntity
100
AcDbLine
  8
0
 62
256
370
-1
  6
ByLayer
 10
0.75
 20
1.5
 30
0.0
 11
-0.25
 21
1.5
 31
0.0
  0
LINE
  5
CA
100
AcDbEntity
100
AcDbLine
  8
0
 62
256
370
-1
  6
ByLayer
 10
0.75
 20
1.5
 30
0.0
 11
4.0874200000000078
 21
4.002999999999985
 31
0.0
  0
LINE
  5
CB
100
AcDbEntity
100
AcDbLine
  8
0
 62
256
370
-1
  6
ByLayer
 10
-0.75
 20
3.0
 30
0.0
 11
0.75
 21
3.0
 31
0.0
  0
LINE
  5
CC
100
AcDbEntity
100
AcDbLine
  8
0
 62
256
370
-1
  6
ByLayer
 10
-0.75
 20
0.5
 30
0.0
 11
-0.75
 21
3.0
 31
0.0
  0
LINE
  5
CD
100
AcDbEntity
100
AcDbLine
  8
0
 62
256
370
-1
  6
ByLayer
 10
3.75
 20
4.0
 30
0.0
 11
3.75
 21
4.5
 31
0.0
  0
LINE
  5
CE
100
AcDbEntity
100
AcDbLine
  8
0
 62
256
370
-1
  6
ByLayer
 10
4.75
 20
4.0
 30
0.0
 11
3.75
 21
4.0
 31
0.0
  0
LINE
  5
CF
100
AcDbEntity
100
AcDbLine
  8
0
 62
256
370
-1
  6
ByLayer
 10
4.75
 20
4.5
 30
0.0
 11
4.75
 21
4.0
 31
0.0
  0
LINE
  5
D0
100
AcDbEntity
100
AcDbLine
  8
0
 62
256
370
-1
  6
ByLayer
 10
3.75
 20
4.5
 30
0.0
 11
-0.25
 21
1.5
 31
0.0
  0
LINE
  5
D1
100
AcDbEntity
100
AcDbLine
  8
0
 62
256
370
-1
  6
ByLayer
 10
3.75
 20
4.5
 30
0.0
 11
3.75
 21
5.0
 31
0.0
  0
LINE
  5
D2
100
AcDbEntity
100
AcDbLine
  8
0
 62
256
370
-1
  6
ByLayer
 10
4.75
 20
4.5
 30
0.0
 11
3.75
 21
4.5
 31
0.0
  0
LINE
  5
D3
100
AcDbEntity
100
AcDbLine
  8
0
 62
256
370
-1
  6
ByLayer
 10
4.75
 20
5.0
 30
0.0
 11
4.75
 21
4.5
 31
0.0
  0
LINE
  5
D4
100
AcDbEntity
100
AcDbLine
  8
0
 62
256
370
-1
  6
ByLayer
 10
3.75
 20
5.0
 30
0.0
 11
4.75
 21
5.0
 31
0.0
  0
LINE
  5
D5
100
AcDbEntity
100
AcDbLine
  8
0
 62
256
370
-1
  6
ByLayer
 10
-0.25
 20
2.0
 30
0.0
 11
3.75
 21
5.0
 31
0.0
  0
LWPOLYLINE
  5
D6
  8
0
 62
256
370
-1
  6
ByLayer
100
AcDbEntity
100
AcDbPolyline
 90
4
 70
1
 10
-6.0
 20
0.0
 10
-6.0
 20
0.5
 10
6.0
 20
0.5
 10
6.0
 20
0.0
  0
ENDBLK
  5
D7
100
AcDbEntity
  8
0
100
AcDbBlockEnd
  0
BLOCK
  5
D8
100
AcDbEntity
  8
0
100
AcDbBlockBegin
  2
ARMATUR_-_EINHEBELMISCHER0
 70
0
 10
0.0
 20
0.0
 30
0.0
  3
ARMATUR_-_EINHEBELMISCHER0
  1

  0
LWPOLYLINE
  5
D9
  8
0
 62
256
370
-1
  6
ByLayer
100
AcDbEntity
100
AcDbPolyline
 90
2
 70
0
 10
-0.0067515000000018
 20
-2.0
 10
-0.1165915000000002
 20
-2.0
  0
ARC
  5
DA
100
AcDbEntity
  8
0
 62
256
370
-1
  6
ByLayer
100
AcDbCircle
 10
-0.0000015000000015
 20
-1.0
 30
0.0
 40
0.75
100
AcDbArc
 50
269.22460000000001
 51
216.2304
  0
LINE
  5
DB
100
AcDbEntity
100
AcDbLine
  8
0
 62
256
370
-1
  6
ByLayer
 10
-2.261461499999998
 20
-4.3369999999999891
 30
0.0
 11
-1.3704615
 21
-4.790999999999995
 31
0.0
  0
ARC
  5
DC
100
AcDbEntity
  8
0
 62
256
370
-1
  6
ByLayer
100
AcDbCircle
 10
3.9999984999999998
 20
-7.9282000000000021
 30
0.0
 40
0.5
100
AcDbArc
 50
209.99999999999989
 51
29.999999999999996
  0
LINE
  5
DD
100
AcDbEntity
100
AcDbLine
  8
0
 62
256
370
-1
  6
ByLayer
 10
0.0793784999999989
 20
-0.2599999999999909
 30
0.0
 11
-2.261461499999998
 21
-4.3369999999999891
 31
0.0
  0
LINE
  5
DE
100
AcDbEntity
100
AcDbLine
  8
0
 62
256
370
-1
  6
ByLayer
 10
-1.3704615
 20
-4.790999999999995
 30
0.0
 11
0.5507084999999991
 21
-0.5036999999999808
 31
0.0
  0
LINE
  5
DF
100
AcDbEntity
100
AcDbLine
  8
0
 62
256
370
-1
  6
ByLayer
 10
-0.0600815000000008
 20
-1.895899999999983
 30
0.0
 11
3.5669884999999968
 21
-8.1782000000000021
 31
0.0
  0
LINE
  5
E0
100
AcDbEntity
100
AcDbLine
  8
0
 62
256
370
-1
  6
ByLayer
 10
4.4330184999999984
 20
-7.6782000000000021
 30
0.0
 11
0.7182785000000003
 21
-1.244100000000002
 31
0.0
  0
LWPOLYLINE
  5
E1
  8
0
 62
256
370
-1
  6
ByLayer
100
AcDbEntity
100
AcDbPolyline
 90
6
 70
0
 10
-0.9178414999999995
 20
-2.0
 10
-5.9999985000000011
 20
-2.0
 10
-5.9999985000000011
 20
0.0
 10
5.9999985000000002
 20
0.0
 10
5.9999985000000002
 20
-2.0
 10
1.1565984999999981
 20
-2.0
  0
ENDBLK
  5
E2
100
AcDbEntity
  8
0
100
AcDbBlockEnd
  0
BLOCK
  5
E3
100
AcDbEntity
  8
0
100
AcDbBlockBegin
  2
EIS-_UND_WASSERSPENDER
 70
0
 10
0.0
 20
0.0
 30
0.0
  3
EIS-_UND_WASSERSPENDER
  1

  0
LINE
  5
E4
100
AcDbEntity
100
AcDbLine
  8
0
 62
256
370
-1
  6
ByLayer
 10
6.5
 20
8.0
 30
0.0
 11
7.0
 21
8.0
 31
0.0
  0
LINE
  5
E5
100
AcDbEntity
100
AcDbLine
  8
0
 62
256
370
-1
  6
ByLayer
 10
7.0
 20
8.5
 30
0.0
 11
6.5
 21
8.5
 31
0.0
  0
LINE
  5
E6
100
AcDbEntity
100
AcDbLine
  8
0
 62
256
370
-1
  6
ByLayer
 10
6.75
 20
10.25
 30
0.0
 11
5.75
 21
10.25
 31
0.0
  0
LINE
  5
E7
100
AcDbEntity
100
AcDbLine
  8
0
 62
256
370
-1
  6
ByLayer
 10
7.0
 20
9.5
 30
0.0
 11
6.75
 21
10.25
 31
0.0
  0
LINE
  5
E8
100
AcDbEntity
100
AcDbLine
  8
0
 62
256
370
-1
  6
ByLayer
 10
5.75
 20
10.25
 30
0.0
 11
5.5
 21
9.5
 31
0.0
  0
LINE
  5
E9
100
AcDbEntity
100
AcDbLine
  8
0
 62
256
370
-1
  6
ByLayer
 10
5.5
 20
9.5
 30
0.0
 11
7.0
 21
9.5
 31
0.0
  0
LINE
  5
EA
100
AcDbEntity
100
AcDbLine
  8
0
 62
256
370
-1
  6
ByLayer
 10
6.5
 20
9.0
 30
0.0
 11
6.0
 21
9.0
 31
0.0
  0
LINE
  5
EB
100
AcDbEntity
100
AcDbLine
  8
0
 62
256
370
-1
  6
ByLayer
 10
6.5
 20
7.5
 30
0.0
 11
6.5
 21
9.0
 31
0.0
  0
LINE
  5
EC
100
AcDbEntity
100
AcDbLine
  8
0
 62
256
370
-1
  6
ByLayer
 10
7.0
 20
7.0
 30
0.0
 11
6.5
 21
7.5
 31
0.0
  0
LINE
  5
ED
100
AcDbEntity
100
AcDbLine
  8
0
 62
256
370
-1
  6
ByLayer
 10
5.5
 20
7.0
 30
0.0
 11
7.0
 21
7.0
 31
0.0
  0
LINE
  5
EE
100
AcDbEntity
100
AcDbLine
  8
0
 62
256
370
-1
  6
ByLayer
 10
6.0
 20
7.5
 30
0.0
 11
5.5
 21
7.0
 31
0.0
  0
LINE
  5
EF
100
AcDbEntity
100
AcDbLine
  8
0
 62
256
370
-1
  6
ByLayer
 10
6.0
 20
9.0
 30
0.0
 11
6.0
 21
7.5
 31
0.0
  0
LINE
  5
F0
100
AcDbEntity
100
AcDbLine
  8
0
 62
256
370
-1
  6
ByLayer
 10
7.5
 20
2.25
 30
0.0
 11
7.0
 21
2.75
 31
0.0
  0
LINE
  5
F1
100
AcDbEntity
100
AcDbLine
  8
0
 62
256
370
-1
  6
ByLayer
 10
7.0
 20
3.0
 30
0.0
 11
8.0
 21
2.0
 31
0.0
  0
LINE
  5
F2
100
AcDbEntity
100
AcDbLine
  8
0
 62
256
370
-1
  6
ByLayer
 10
7.0
 20
3.0
 30
0.0
 11
7.0
 21
11.0
 31
0.0
  0
LINE
  5
F3
100
AcDbEntity
100
AcDbLine
  8
0
 62
256
370
-1
  6
ByLayer
 10
3.5636000000000081
 20
9.0
 30
0.0
 11
3.5
 21
9.0
 31
0.0
  0
LINE
  5
F4
100
AcDbEntity
100
AcDbLine
  8
0
 62
256
370
-1
  6
ByLayer
 10
4.0
 20
9.0
 30
0.0
 11
3.941600000000022
 21
9.0
 31
0.0
  0
LWPOLYLINE
  5
F5
  8
0
 62
256
370
-1
  6
ByLayer
100
AcDbEntity
100
AcDbPolyline
 90
4
 70
1
 10
3.5625
 20
8.0
 10
3.5625
 20
9.5
 10
3.9375
 20
9.5
 10
3.9375
 20
8.0
  0
LINE
  5
F6
100
AcDbEntity
100
AcDbLine
  8
0
 62
256
370
-1
  6
ByLayer
 10
3.5
 20
8.5
 30
0.0
 11
3.0
 21
8.5
 31
0.0
  0
LINE
  5
F7
100
AcDbEntity
100
AcDbLine
  8
0
 62
256
370
-1
  6
ByLayer
 10
3.0
 20
8.0
 30
0.0
 11
3.5
 21
8.0
 31
0.0
  0
LINE
  5
F8
100
AcDbEntity
100
AcDbLine
  8
0
 62
256
370
-1
  6
ByLayer
 10
4.0
 20
7.5
 30
0.0
 11
4.0
 21
9.0
 31
0.0
  0
LINE
  5
F9
100
AcDbEntity
100
AcDbLine
  8
0
 62
256
370
-1
  6
ByLayer
 10
4.5
 20
7.0
 30
0.0
 11
4.0
 21
7.5
 31
0.0
  0
LINE
  5
FA
100
AcDbEntity
100
AcDbLine
  8
0
 62
256
370
-1
  6
ByLayer
 10
3.0
 20
7.0
 30
0.0
 11
4.5
 21
7.0
 31
0.0
  0
LINE
  5
FB
100
AcDbEntity
100
AcDbLine
  8
0
 62
256
370
-1
  6
ByLayer
 10
3.5
 20
7.5
 30
0.0
 11
3.0
 21
7.0
 31
0.0
  0
LINE
  5
FC
100
AcDbEntity
100
AcDbLine
  8
0
 62
256
370
-1
  6
ByLayer
 10
3.5
 20
9.0
 30
0.0
 11
3.5
 21
7.5
 31
0.0
  0
LINE
  5
FD
100
AcDbEntity
100
AcDbLine
  8
0
 62
256
370
-1
  6
ByLayer
 10
3.0
 20
2.75
 30
0.0
 11
2.5
 21
2.25
 31
0.0
  0
LINE
  5
FE
100
AcDbEntity
100
AcDbLine
  8
0
 62
256
370
-1
  6
ByLayer
 10
2.0
 20
2.0
 30
0.0
 11
3.0
 21
3.0
 31
0.0
  0
LINE
  5
FF
100
AcDbEntity
100
AcDbLine
  8
0
 62
256
370
-1
  6
ByLayer
 10
3.0
 20
11.0
 30
0.0
 11
3.0
 21
3.0
 31
0.0
  0
LINE
  5
100
100
AcDbEntity
100
AcDbLine
  8
0
 62
256
370
-1
  6
ByLayer
 10
2.990200000000014
 20
2.7400000000000091
 30
0.0
 11
7.0100000000000193
 21
2.7400000000000091
 31
0.0
  0
LINE
  5
101
100
AcDbEntity
100
AcDbLine
  8
0
 62
256
370
-1
  6
ByLayer
 10
2.9817000000000169
 20
2.7300000000000169
 30
0.0
 11
7.0203999999999951
 21
2.7300000000000169
 31
0.0
  0
LINE
  5
102
100
AcDbEntity
100
AcDbLine
  8
0
 62
256
370
-1
  6
ByLayer
 10
2.970899999999999
 20
2.719999999999998
 30
0.0
 11
7.0302000000000078
 21
2.719999999999998
 31
0.0
  0
LINE
  5
103
100
AcDbEntity
100
AcDbLine
  8
0
 62
256
370
-1
  6
ByLayer
 10
2.9602000000000128
 20
2.7100000000000062
 30
0.0
 11
7.0400999999999954
 21
2.7100000000000062
 31
0.0
  0
LINE
  5
104
100
AcDbEntity
100
AcDbLine
  8
0
 62
256
370
-1
  6
ByLayer
 10
2.9505000000000039
 20
2.7000000000000171
 30
0.0
 11
7.0500000000000123
 21
2.7000000000000171
 31
0.0
  0
LINE
  5
105
100
AcDbEntity
100
AcDbLine
  8
0
 62
256
370
-1
  6
ByLayer
 10
2.938700000000011
 20
2.6899999999999959
 30
0.0
 11
7.0598999999999972
 21
2.6899999999999959
 31
0.0
  0
LINE
  5
106
100
AcDbEntity
100
AcDbLine
  8
0
 62
256
370
-1
  6
ByLayer
 10
2.9312000000000169
 20
2.680000000000005
 30
0.0
 11
7.0703000000000022
 21
2.680000000000005
 31
0.0
  0
LINE
  5
107
100
AcDbEntity
100
AcDbLine
  8
0
 62
256
370
-1
  6
ByLayer
 10
2.9205000000000041
 20
2.670000000000015
 30
0.0
 11
7.080600000000004
 21
2.670000000000015
 31
0.0
  0
LINE
  5
108
100
AcDbEntity
100
AcDbLine
  8
0
 62
256
370
-1
  6
ByLayer
 10
2.9107999999999929
 20
2.6599999999999961
 30
0.0
 11
7.0904999999999907
 21
2.6599999999999961
 31
0.0
  0
LINE
  5
109
100
AcDbEntity
100
AcDbLine
  8
0
 62
256
370
-1
  6
ByLayer
 10
2.900100000000009
 20
2.6500000000000039
 30
0.0
 11
7.1004000000000076
 21
2.6500000000000039
 31
0.0
  0
LINE
  5
10A
100
AcDbEntity
100
AcDbLine
  8
0
 62
256
370
-1
  6
ByLayer
 10
2.891500000000006
 20
2.6400000000000139
 30
0.0
 11
7.1098000000000079
 21
2.6400000000000139
 31
0.0
  0
LINE
  5
10B
100
AcDbEntity
100
AcDbLine
  8
0
 62
256
370
-1
  6
ByLayer
 10
2.879700000000013
 20
2.629999999999995
 30
0.0
 11
7.1202000000000121
 21
2.629999999999995
 31
0.0
  0
LINE
  5
10C
100
AcDbEntity
100
AcDbLine
  8
0
 62
256
370
-1
  6
ByLayer
 10
2.8701000000000061
 20
2.6200000000000032
 30
0.0
 11
7.1299999999999946
 21
2.6200000000000032
 31
0.0
  0
LINE
  5
10D
100
AcDbEntity
100
AcDbLine
  8
0
 62
256
370
-1
  6
ByLayer
 10
2.8603999999999981
 20
2.6100000000000132
 30
0.0
 11
7.1399000000000123
 21
2.6100000000000132
 31
0.0
  0
LINE
  5
10E
100
AcDbEntity
100
AcDbLine
  8
0
 62
256
370
-1
  6
ByLayer
 10
2.8517999999999968
 20
2.599999999999993
 30
0.0
 11
7.149799999999999
 21
2.599999999999993
 31
0.0
  0
LINE
  5
10F
100
AcDbEntity
100
AcDbLine
  8
0
 62
256
370
-1
  6
ByLayer
 10
2.8425000000000011
 20
2.5900000000000021
 30
0.0
 11
7.1603000000000048
 21
2.5900000000000021
 31
0.0
  0
LINE
  5
110
100
AcDbEntity
100
AcDbLine
  8
0
 62
256
370
-1
  6
ByLayer
 10
2.8320999999999952
 20
2.5800000000000112
 30
0.0
 11
7.1699000000000126
 21
2.5800000000000112
 31
0.0
  0
LINE
  5
111
100
AcDbEntity
100
AcDbLine
  8
0
 62
256
370
-1
  6
ByLayer
 10
2.8226999999999971
 20
2.5699999999999932
 30
0.0
 11
7.1804999999999941
 21
2.5699999999999932
 31
0.0
  0
LINE
  5
112
100
AcDbEntity
100
AcDbLine
  8
0
 62
256
370
-1
  6
ByLayer
 10
2.8112000000000128
 20
2.5600000000000018
 30
0.0
 11
7.190100000000001
 21
2.5600000000000018
 31
0.0
  0
LINE
  5
113
100
AcDbEntity
100
AcDbLine
  8
0
 62
256
370
-1
  6
ByLayer
 10
2.8019000000000172
 20
2.55000000000001
 30
0.0
 11
7.1997000000000071
 21
2.55000000000001
 31
0.0
  0
LINE
  5
114
100
AcDbEntity
100
AcDbLine
  8
0
 62
256
370
-1
  6
ByLayer
 10
2.790400000000004
 20
2.5399999999999912
 30
0.0
 11
7.2104000000000212
 21
2.5399999999999912
 31
0.0
  0
LINE
  5
115
100
AcDbEntity
100
AcDbLine
  8
0
 62
256
370
-1
  6
ByLayer
 10
2.782100000000014
 20
2.5299999999999998
 30
0.0
 11
7.2210000000000019
 21
2.5299999999999998
 31
0.0
  0
LINE
  5
116
100
AcDbEntity
100
AcDbLine
  8
0
 62
256
370
-1
  6
ByLayer
 10
2.7707000000000042
 20
2.5200000000000089
 30
0.0
 11
7.2296000000000031
 21
2.5200000000000089
 31
0.0
  0
LINE
  5
117
100
AcDbEntity
100
AcDbLine
  8
0
 62
256
370
-1
  6
ByLayer
 10
2.7623000000000091
 20
2.510000000000018
 30
0.0
 11
7.2412999999999954
 21
2.510000000000018
 31
0.0
  0
LINE
  5
118
100
AcDbEntity
100
AcDbLine
  8
0
 62
256
370
-1
  6
ByLayer
 10
2.750900000000001
 20
2.5
 30
0.0
 11
7.2509000000000006
 21
2.5
 31
0.0
  0
LINE
  5
119
100
AcDbEntity
100
AcDbLine
  8
0
 62
256
370
-1
  6
ByLayer
 10
2.7426000000000088
 20
2.4900000000000091
 30
0.0
 11
7.2605000000000084
 21
2.4900000000000091
 31
0.0
  0
LINE
  5
11A
100
AcDbEntity
100
AcDbLine
  8
0
 62
256
370
-1
  6
ByLayer
 10
2.7301000000000211
 20
2.4800000000000182
 30
0.0
 11
7.2701000000000127
 21
2.4800000000000182
 31
0.0
  0
LINE
  5
11B
100
AcDbEntity
100
AcDbLine
  8
0
 62
256
370
-1
  6
ByLayer
 10
2.7218000000000009
 20
2.4699999999999971
 30
0.0
 11
7.2797000000000178
 21
2.4699999999999971
 31
0.0
  0
LINE
  5
11C
100
AcDbEntity
100
AcDbLine
  8
0
 62
256
370
-1
  6
ByLayer
 10
2.7113999999999971
 20
2.4600000000000071
 30
0.0
 11
7.2914000000000092
 21
2.4600000000000071
 31
0.0
  0
LINE
  5
11D
100
AcDbEntity
100
AcDbLine
  8
0
 62
256
370
-1
  6
ByLayer
 10
2.7009000000000181
 20
2.4500000000000171
 30
0.0
 11
7.299900000000008
 21
2.4500000000000171
 31
0.0
  0
LINE
  5
11E
100
AcDbEntity
100
AcDbLine
  8
0
 62
256
370
-1
  6
ByLayer
 10
2.6895000000000091
 20
2.4399999999999959
 30
0.0
 11
7.3095000000000132
 21
2.4399999999999959
 31
0.0
  0
LINE
  5
11F
100
AcDbEntity
100
AcDbLine
  8
0
 62
256
370
-1
  6
ByLayer
 10
2.6812000000000178
 20
2.430000000000005
 30
0.0
 11
7.321300000000007
 21
2.430000000000005
 31
0.0
  0
LINE
  5
120
100
AcDbEntity
100
AcDbLine
  8
0
 62
256
370
-1
  6
ByLayer
 10
2.6708000000000141
 20
2.420000000000015
 30
0.0
 11
7.3309000000000131
 21
2.420000000000015
 31
0.0
  0
LINE
  5
121
100
AcDbEntity
100
AcDbLine
  8
0
 62
256
370
-1
  6
ByLayer
 10
2.660400000000009
 20
2.4099999999999961
 30
0.0
 11
7.3404999999999907
 21
2.4099999999999961
 31
0.0
  0
LINE
  5
122
100
AcDbEntity
100
AcDbLine
  8
0
 62
256
370
-1
  6
ByLayer
 10
2.6500000000000039
 20
2.4000000000000039
 30
0.0
 11
7.3500999999999967
 21
2.4000000000000039
 31
0.0
  0
LINE
  5
123
100
AcDbEntity
100
AcDbLine
  8
0
 62
256
370
-1
  6
ByLayer
 10
2.6406000000000049
 20
2.3900000000000139
 30
0.0
 11
7.3607000000000076
 21
2.3900000000000139
 31
0.0
  0
LINE
  5
124
100
AcDbEntity
100
AcDbLine
  8
0
 62
256
370
-1
  6
ByLayer
 10
2.6302000000000021
 20
2.379999999999995
 30
0.0
 11
7.3703000000000118
 21
2.379999999999995
 31
0.0
  0
LINE
  5
125
100
AcDbEntity
100
AcDbLine
  8
0
 62
256
370
-1
  6
ByLayer
 10
2.621900000000009
 20
2.3700000000000032
 30
0.0
 11
7.3810000000000002
 21
2.3700000000000032
 31
0.0
  0
LINE
  5
126
100
AcDbEntity
100
AcDbLine
  8
0
 62
256
370
-1
  6
ByLayer
 10
2.6094000000000221
 20
2.3600000000000132
 30
0.0
 11
7.3916000000000111
 21
2.3600000000000132
 31
0.0
  0
LINE
  5
127
100
AcDbEntity
100
AcDbLine
  8
0
 62
256
370
-1
  6
ByLayer
 10
2.6011000000000011
 20
2.349999999999993
 30
0.0
 11
7.4002000000000132
 21
2.349999999999993
 31
0.0
  0
LINE
  5
128
100
AcDbEntity
100
AcDbLine
  8
0
 62
256
370
-1
  6
ByLayer
 10
2.5896000000000181
 20
2.3400000000000021
 30
0.0
 11
7.4119000000000019
 21
2.3400000000000021
 31
0.0
  0
LINE
  5
129
100
AcDbEntity
100
AcDbLine
  8
0
 62
256
370
-1
  6
ByLayer
 10
2.581299999999997
 20
2.3300000000000112
 30
0.0
 11
7.4215000000000071
 21
2.3300000000000112
 31
0.0
  0
LINE
  5
12A
100
AcDbEntity
100
AcDbLine
  8
0
 62
256
370
-1
  6
ByLayer
 10
2.5698000000000141
 20
2.3199999999999932
 30
0.0
 11
7.4311000000000131
 21
2.3199999999999932
 31
0.0
  0
LINE
  5
12B
100
AcDbEntity
100
AcDbLine
  8
0
 62
256
370
-1
  6
ByLayer
 10
2.5614999999999948
 20
2.3100000000000018
 30
0.0
 11
7.4416999999999973
 21
2.3100000000000018
 31
0.0
  0
LINE
  5
12C
100
AcDbEntity
100
AcDbLine
  8
0
 62
256
370
-1
  6
ByLayer
 10
2.5501000000000138
 20
2.30000000000001
 30
0.0
 11
7.4524000000000123
 21
2.30000000000001
 31
0.0
  0
LINE
  5
12D
100
AcDbEntity
100
AcDbLine
  8
0
 62
256
370
-1
  6
ByLayer
 10
2.5407000000000148
 20
2.2899999999999912
 30
0.0
 11
7.4609000000000076
 21
2.2899999999999912
 31
0.0
  0
LINE
  5
12E
100
AcDbEntity
100
AcDbLine
  8
0
 62
256
370
-1
  6
ByLayer
 10
2.529300000000005
 20
2.2799999999999998
 30
0.0
 11
7.4705000000000137
 21
2.2799999999999998
 31
0.0
  0
LINE
  5
12F
100
AcDbEntity
100
AcDbLine
  8
0
 62
256
370
-1
  6
ByLayer
 10
2.519900000000006
 20
2.2700000000000089
 30
0.0
 11
7.4812000000000012
 21
2.2700000000000089
 31
0.0
  0
LINE
  5
130
100
AcDbEntity
100
AcDbLine
  8
0
 62
256
370
-1
  6
ByLayer
 10
2.5095000000000018
 20
2.260000000000018
 30
0.0
 11
7.4908000000000081
 21
2.260000000000018
 31
0.0
  0
LINE
  5
131
100
AcDbEntity
100
AcDbLine
  8
0
 62
256
370
-1
  6
ByLayer
 10
7.0
 20
2.75
 30
0.0
 11
3.0
 21
2.75
 31
0.0
  0
LINE
  5
132
100
AcDbEntity
100
AcDbLine
  8
0
 62
256
370
-1
  6
ByLayer
 10
2.5
 20
2.25
 30
0.0
 11
7.5
 21
2.25
 31
0.0
  0
LINE
  5
133
100
AcDbEntity
100
AcDbLine
  8
0
 62
256
370
-1
  6
ByLayer
 10
4.0
 20
8.0
 30
0.0
 11
6.0
 21
8.0
 31
0.0
  0
LINE
  5
134
100
AcDbEntity
100
AcDbLine
  8
0
 62
256
370
-1
  6
ByLayer
 10
6.0
 20
8.5
 30
0.0
 11
4.0
 21
8.5
 31
0.0
  0
LINE
  5
135
100
AcDbEntity
100
AcDbLine
  8
0
 62
256
370
-1
  6
ByLayer
 10
3.0
 20
3.0
 30
0.0
 11
7.0
 21
3.0
 31
0.0
  0
LWPOLYLINE
  5
136
  8
0
 62
256
370
-1
  6
ByLayer
100
AcDbEntity
100
AcDbPolyline
 90
4
 70
1
 10
2.0
 20
2.0
 10
2.0
 20
11.0
 10
8.0
 20
11.0
 10
8.0
 20
2.0
  0
LWPOLYLINE
  5
137
  8
0
 62
256
370
-1
  6
ByLayer
100
AcDbEntity
100
AcDbPolyline
 90
4
 70
1
 10
2.0
 20
12.0
 10
2.0
 20
16.0
 10
8.0
 20
16.0
 10
8.0
 20
12.0
  0
LWPOLYLINE
  5
138
  8
0
 62
256
370
-1
  6
ByLayer
100
AcDbEntity
100
AcDbPolyline
 90
4
 70
1
 10
1.0
 20
1.0
 10
1.0
 20
17.0
 10
9.0
 20
17.0
 10
9.0
 20
1.0
  0
LWPOLYLINE
  5
139
  8
0
 62
256
370
-1
  6
ByLayer
100
AcDbEntity
100
AcDbPolyline
 90
4
 70
1
 10
0.0
 20
0.0
 10
0.0
 20
18.0
 10
10.0
 20
18.0
 10
10.0
 20
0.0
  0
ENDBLK
  5
13A
100
AcDbEntity
  8
0
100
AcDbBlockEnd
  0
BLOCK
  5
13B
100
AcDbEntity
  8
0
100
AcDbBlockBegin
  2
KÜCHENBLOCK_-_2100_X_2400_
 70
0
 10
0.0
 20
0.0
 30
0.0
  3
KÜCHENBLOCK_-_2100_X_2400_
  1

  0
LINE
  5
13C
100
AcDbEntity
100
AcDbLine
  8
0
 62
256
370
-1
  6
ByLayer
 10
0.0
 20
24.0
 30
0.0
 11
96.0
 21
24.0
 31
0.0
  0
LINE
  5
13D
100
AcDbEntity
100
AcDbLine
  8
0
 62
256
370
-1
  6
ByLayer
 10
96.0
 20
0.0
 30
0.0
 11
0.0
 21
0.0
 31
0.0
  0
LINE
  5
13E
100
AcDbEntity
100
AcDbLine
  8
0
 62
256
370
-1
  6
ByLayer
 10
0.0
 20
0.0
 30
0.0
 11
0.0
 21
24.0
 31
0.0
  0
LINE
  5
13F
100
AcDbEntity
100
AcDbLine
  8
0
 62
256
370
-1
  6
ByLayer
 10
96.0
 20
24.0
 30
0.0
 11
96.0
 21
0.0
 31
0.0
  0
LINE
  5
140
100
AcDbEntity
100
AcDbLine
  8
0
 62
256
370
-1
  6
ByLayer
 10
96.0
 20
60.0
 30
0.0
 11
34.0
 21
60.0
 31
0.0
  0
LINE
  5
141
100
AcDbEntity
100
AcDbLine
  8
0
 62
256
370
-1
  6
ByLayer
 10
34.0
 20
84.0
 30
0.0
 11
96.0
 21
84.0
 31
0.0
  0
LINE
  5
142
100
AcDbEntity
100
AcDbLine
  8
0
 62
256
370
-1
  6
ByLayer
 10
34.0
 20
60.0
 30
0.0
 11
34.0
 21
84.0
 31
0.0
  0
LINE
  5
143
100
AcDbEntity
100
AcDbLine
  8
0
 62
256
370
-1
  6
ByLayer
 10
96.0
 20
84.0
 30
0.0
 11
96.0
 21
60.0
 31
0.0
  0
ARC
  5
144
100
AcDbEntity
  8
0
 62
256
370
-1
  6
ByLayer
100
AcDbCircle
 10
34.5
 20
6.5
 30
0.0
 40
1.0
100
AcDbArc
 50
180.0
 51
270.0
  0
ARC
  5
145
100
AcDbEntity
  8
0
 62
256
370
-1
  6
ByLayer
100
AcDbCircle
 10
33.5
 20
1.5
 30
0.0
 40
1.5
100
AcDbArc
 50
180.0
 51
270.0
  0
CIRCLE
  5
146
100
AcDbEntity
100
AcDbCircle
  8
0
 62
256
370
-1
  6
ByLayer
 10
40.499999999999993
 20
12.5
 30
0.0
 40
0.5
  0
CIRCLE
  5
147
100
AcDbEntity
100
AcDbCircle
  8
0
 62
256
370
-1
  6
ByLayer
 10
40.499999999999993
 20
12.5
 30
0.0
 40
1.0
  0
ARC
  5
148
100
AcDbEntity
  8
0
 62
256
370
-1
  6
ByLayer
100
AcDbCircle
 10
34.5
 20
18.5
 30
0.0
 40
1.0
100
AcDbArc
 50
90.0
 51
180.0
  0
ARC
  5
149
100
AcDbEntity
  8
0
 62
256
370
-1
  6
ByLayer
100
AcDbCircle
 10
33.5
 20
19.5
 30
0.0
 40
1.5
100
AcDbArc
 50
90.0
 51
180.0
  0
LWPOLYLINE
  5
14A
  8
0
 62
256
370
-1
  6
ByLayer
100
AcDbEntity
100
AcDbPolyline
 90
2
 70
0
 10
33.5
 20
6.5
 10
33.5
 20
18.5
  0
LWPOLYLINE
  5
14B
  8
0
 62
256
370
-1
  6
ByLayer
100
AcDbEntity
100
AcDbPolyline
 90
2
 70
0
 10
32.0
 20
1.5
 10
32.0
 20
19.5
  0
ARC
  5
14C
100
AcDbEntity
  8
0
 62
256
370
-1
  6
ByLayer
100
AcDbCircle
 10
46.250000000000021
 20
6.5
 30
0.0
 40
1.0
100
AcDbArc
 50
270.0
 51
0.0
  0
ARC
  5
14D
100
AcDbEntity
  8
0
 62
256
370
-1
  6
ByLayer
100
AcDbCircle
 10
49.750000000000028
 20
6.5
 30
0.0
 40
1.0
100
AcDbArc
 50
180.0
 51
270.0
  0
ARC
  5
14E
100
AcDbEntity
  8
0
 62
256
370
-1
  6
ByLayer
100
AcDbCircle
 10
61.500000000000028
 20
6.5
 30
0.0
 40
1.0
100
AcDbArc
 50
270.0
 51
0.0
  0
ARC
  5
14F
100
AcDbEntity
  8
0
 62
256
370
-1
  6
ByLayer
100
AcDbCircle
 10
62.500000000000028
 20
1.5
 30
0.0
 40
1.5
100
AcDbArc
 50
270.0
 51
0.0
  0
LWPOLYLINE
  5
150
  8
0
 62
256
370
-1
  6
ByLayer
100
AcDbEntity
100
AcDbPolyline
 90
2
 70
0
 10
61.500000000000028
 20
5.5
 10
49.750000000000028
 20
5.5
  0
ARC
  5
151
100
AcDbEntity
  8
0
 62
256
370
-1
  6
ByLayer
100
AcDbCircle
 10
46.250000000000021
 20
18.5
 30
0.0
 40
1.0
100
AcDbArc
 50
0.0
 51
90.0
  0
ARC
  5
152
100
AcDbEntity
  8
0
 62
256
370
-1
  6
ByLayer
100
AcDbCircle
 10
49.750000000000028
 20
18.5
 30
0.0
 40
1.0
100
AcDbArc
 50
90.0
 51
180.0
  0
ARC
  5
153
100
AcDbEntity
  8
0
 62
256
370
-1
  6
ByLayer
100
AcDbCircle
 10
61.500000000000028
 20
18.5
 30
0.0
 40
1.0
100
AcDbArc
 50
0.0
 51
90.0
  0
ARC
  5
154
100
AcDbEntity
  8
0
 62
256
370
-1
  6
ByLayer
100
AcDbCircle
 10
62.500000000000028
 20
19.5
 30
0.0
 40
1.5
100
AcDbArc
 50
0.0
 51
90.0
  0
CIRCLE
  5
155
100
AcDbEntity
100
AcDbCircle
  8
0
 62
256
370
-1
  6
ByLayer
 10
55.500000000000028
 20
12.5
 30
0.0
 40
0.5
  0
CIRCLE
  5
156
100
AcDbEntity
100
AcDbCircle
  8
0
 62
256
370
-1
  6
ByLayer
 10
55.500000000000028
 20
12.5
 30
0.0
 40
1.0
  0
LWPOLYLINE
  5
157
  8
0
 62
256
370
-1
  6
ByLayer
100
AcDbEntity
100
AcDbPolyline
 90
2
 70
0
 10
49.750000000000028
 20
19.5
 10
61.500000000000028
 20
19.5
  0
LINE
  5
158
100
AcDbEntity
100
AcDbLine
  8
0
 62
256
370
-1
  6
ByLayer
 10
47.250000000000028
 20
6.5
 30
0.0
 11
47.250000000000028
 21
18.5
 31
0.0
  0
LINE
  5
159
100
AcDbEntity
100
AcDbLine
  8
0
 62
256
370
-1
  6
ByLayer
 10
48.750000000000028
 20
18.5
 30
0.0
 11
48.750000000000028
 21
6.5
 31
0.0
  0
LWPOLYLINE
  5
15A
  8
0
 62
256
370
-1
  6
ByLayer
100
AcDbEntity
100
AcDbPolyline
 90
2
 70
0
 10
62.500000000000028
 20
18.5
 10
62.500000000000028
 20
6.5
  0
LWPOLYLINE
  5
15B
  8
0
 62
256
370
-1
  6
ByLayer
100
AcDbEntity
100
AcDbPolyline
 90
2
 70
0
 10
64.000000000000028
 20
19.5
 10
64.000000000000028
 20
1.5
  0
LWPOLYLINE
  5
15C
  8
0
 62
256
370
-1
  6
ByLayer
100
AcDbEntity
100
AcDbPolyline
 90
2
 70
0
 10
46.250000000000021
 20
5.5
 10
34.5
 20
5.5
  0
LWPOLYLINE
  5
15D
  8
0
 62
256
370
-1
  6
ByLayer
100
AcDbEntity
100
AcDbPolyline
 90
2
 70
0
 10
34.5
 20
19.5
 10
46.250000000000021
 20
19.5
  0
LWPOLYLINE
  5
15E
  8
0
 62
256
370
-1
  6
ByLayer
100
AcDbEntity
100
AcDbPolyline
 90
2
 70
0
 10
33.5
 20
21.0
 10
62.500000000000028
 20
21.0
  0
LWPOLYLINE
  5
15F
  8
0
 62
256
370
-1
  6
ByLayer
100
AcDbEntity
100
AcDbPolyline
 90
2
 70
0
 10
62.500000000000028
 20
0.0
 10
33.5
 20
0.0
  0
LINE
  5
160
100
AcDbEntity
100
AcDbLine
  8
0
 62
256
370
-1
  6
ByLayer
 10
64.000000000000028
 20
4.0
 30
0.0
 11
32.0
 21
4.0
 31
0.0
  0
LINE
  5
161
100
AcDbEntity
100
AcDbLine
  8
0
 62
256
370
-1
  6
ByLayer
 10
30.999999999999989
 20
54.999959999999987
 30
0.0
 11
30.999999999999989
 21
55.999959999999987
 31
0.0
  0
LINE
  5
162
100
AcDbEntity
100
AcDbLine
  8
0
 62
256
370
-1
  6
ByLayer
 10
31.999999999999989
 20
54.999959999999987
 30
0.0
 11
30.999999999999989
 21
54.999959999999987
 31
0.0
  0
LINE
  5
163
100
AcDbEntity
100
AcDbLine
  8
0
 62
256
370
-1
  6
ByLayer
 10
31.999999999999989
 20
55.999959999999987
 30
0.0
 11
31.999999999999989
 21
54.999959999999987
 31
0.0
  0
LINE
  5
164
100
AcDbEntity
100
AcDbLine
  8
0
 62
256
370
-1
  6
ByLayer
 10
-0.0000000000000071
 20
56.999959999999987
 30
0.0
 11
32.999999999999993
 21
56.999959999999987
 31
0.0
  0
LWPOLYLINE
  5
165
  8
0
 62
256
370
-1
  6
ByLayer
100
AcDbEntity
100
AcDbPolyline
 90
4
 70
1
 10
-0.0000000000000071
 20
55.999959999999987
 10
-0.0000000000000071
 20
84.0
 10
32.999999999999993
 20
84.0
 10
32.999999999999993
 20
55.999959999999987
  0
CIRCLE
  5
166
100
AcDbEntity
100
AcDbCircle
  8
0
 62
256
370
-1
  6
ByLayer
 10
89.0
 20
74.999999700000004
 30
0.0
 40
1.0
  0
CIRCLE
  5
167
100
AcDbEntity
100
AcDbCircle
  8
0
 62
256
370
-1
  6
ByLayer
 10
89.0
 20
74.999999700000004
 30
0.0
 40
3.0
  0
CIRCLE
  5
168
100
AcDbEntity
100
AcDbCircle
  8
0
 62
256
370
-1
  6
ByLayer
 10
89.0
 20
74.999999700000004
 30
0.0
 40
2.0
  0
LINE
  5
169
100
AcDbEntity
100
AcDbLine
  8
0
 62
256
370
-1
  6
ByLayer
 10
89.0
 20
59.999995999999982
 30
0.0
 11
89.0
 21
58.999996000000003
 31
0.0
  0
LINE
  5
16A
100
AcDbEntity
100
AcDbLine
  8
0
 62
256
370
-1
  6
ByLayer
 10
87.0
 20
58.999996000000003
 30
0.0
 11
87.0
 21
59.999995999999982
 31
0.0
  0
CIRCLE
  5
16B
100
AcDbEntity
100
AcDbCircle
  8
0
 62
256
370
-1
  6
ByLayer
 10
89.0
 20
66.0
 30
0.0
 40
2.0
  0
CIRCLE
  5
16C
100
AcDbEntity
100
AcDbCircle
  8
0
 62
256
370
-1
  6
ByLayer
 10
89.0
 20
66.0
 30
0.0
 40
1.0
  0
CIRCLE
  5
16D
100
AcDbEntity
100
AcDbCircle
  8
0
 62
256
370
-1
  6
ByLayer
 10
89.0
 20
66.0
 30
0.0
 40
4.0
  0
CIRCLE
  5
16E
100
AcDbEntity
100
AcDbCircle
  8
0
 62
256
370
-1
  6
ByLayer
 10
89.0
 20
66.0
 30
0.0
 40
3.0
  0
CIRCLE
  5
16F
100
AcDbEntity
100
AcDbCircle
  8
0
 62
256
370
-1
  6
ByLayer
 10
80.000002999999978
 20
74.999999700000004
 30
0.0
 40
1.0
  0
CIRCLE
  5
170
100
AcDbEntity
100
AcDbCircle
  8
0
 62
256
370
-1
  6
ByLayer
 10
80.000002999999978
 20
74.999999700000004
 30
0.0
 40
3.0
  0
CIRCLE
  5
171
100
AcDbEntity
100
AcDbCircle
  8
0
 62
256
370
-1
  6
ByLayer
 10
80.000002999999978
 20
74.999999700000004
 30
0.0
 40
2.0
  0
CIRCLE
  5
172
100
AcDbEntity
100
AcDbCircle
  8
0
 62
256
370
-1
  6
ByLayer
 10
80.000002999999978
 20
66.0
 30
0.0
 40
1.0
  0
LINE
  5
173
100
AcDbEntity
100
AcDbLine
  8
0
 62
256
370
-1
  6
ByLayer
 10
82.000003999999976
 20
58.999996000000003
 30
0.0
 11
82.000003999999976
 21
59.999995999999982
 31
0.0
  0
LINE
  5
174
100
AcDbEntity
100
AcDbLine
  8
0
 62
256
370
-1
  6
ByLayer
 10
80.000002999999978
 20
59.999995999999982
 30
0.0
 11
80.000002999999978
 21
58.999996000000003
 31
0.0
  0
CIRCLE
  5
175
100
AcDbEntity
100
AcDbCircle
  8
0
 62
256
370
-1
  6
ByLayer
 10
80.000002999999978
 20
66.0
 30
0.0
 40
2.0
  0
CIRCLE
  5
176
100
AcDbEntity
100
AcDbCircle
  8
0
 62
256
370
-1
  6
ByLayer
 10
80.000002999999978
 20
66.0
 30
0.0
 40
3.0
  0
LINE
  5
177
100
AcDbEntity
100
AcDbLine
  8
0
 62
256
370
-1
  6
ByLayer
 10
74.000003400000011
 20
81.0
 30
0.0
 11
95.0
 21
81.0
 31
0.0
  0
LWPOLYLINE
  5
178
  8
0
 62
256
370
-1
  6
ByLayer
100
AcDbEntity
100
AcDbPolyline
 90
4
 70
1
 10
76.000002999999964
 20
57.999995999999989
 10
76.000002999999964
 20
58.999996000000003
 10
93.0
 20
58.999996000000003
 10
93.0
 20
57.999995999999989
  0
CIRCLE
  5
179
100
AcDbEntity
100
AcDbCircle
  8
0
 62
256
370
-1
  6
ByLayer
 10
80.000002999999978
 20
74.999999700000004
 30
0.0
 40
4.0
  0
LWPOLYLINE
  5
17A
  8
0
 62
256
370
-1
  6
ByLayer
100
AcDbEntity
100
AcDbPolyline
 90
4
 70
1
 10
74.000003400000011
 20
59.999995999999982
 10
74.000003400000011
 20
84.0
 10
95.0
 20
84.0
 10
95.0
 20
59.999995999999982
  0
LINE
  5
17B
100
AcDbEntity
100
AcDbLine
  8
0
 62
256
370
-1
  6
ByLayer
 10
27.367520651087769
 20
24.0
 30
0.0
 11
62.867517764336242
 21
59.499997113248469
 31
0.0
  0
LINE
  5
17C
100
AcDbEntity
100
AcDbLine
  8
0
 62
256
370
-1
  6
ByLayer
 10
18.882239276849191
 20
24.0
 30
0.0
 11
54.382237238625642
 21
59.49999796177643
 31
0.0
  0
LINE
  5
17D
100
AcDbEntity
100
AcDbLine
  8
0
 62
256
370
-1
  6
ByLayer
 10
10.39695790261063
 20
24.0
 30
0.0
 11
45.896956712915042
 21
59.499998810304433
 31
0.0
  0
LINE
  5
17E
100
AcDbEntity
100
AcDbLine
  8
0
 62
256
370
-1
  6
ByLayer
 10
1.911676528372058
 20
24.0
 30
0.0
 11
32.91163652837205
 21
54.999959999999987
 31
0.0
  0
LINE
  5
17F
100
AcDbEntity
100
AcDbLine
  8
0
 62
256
370
-1
  6
ByLayer
 10
33.025246417648908
 20
55.11356988927686
 30
0.0
 11
37.411676187204463
 21
59.499999658832401
 31
0.0
  0
LINE
  5
180
100
AcDbEntity
100
AcDbLine
  8
0
 62
256
370
-1
  6
ByLayer
 10
-0.0000000000000107
 20
30.573604845866509
 30
0.0
 11
24.426355154133478
 21
54.999959999999987
 31
0.0
  0
LINE
  5
181
100
AcDbEntity
100
AcDbLine
  8
0
 62
256
370
-1
  6
ByLayer
 10
-0.0000000000000107
 20
39.058886220105073
 30
0.0
 11
15.94107377989492
 21
54.999959999999987
 31
0.0
  0
LINE
  5
182
100
AcDbEntity
100
AcDbLine
  8
0
 62
256
370
-1
  6
ByLayer
 10
-0.0000000000000071
 20
47.544167594343662
 30
0.0
 11
7.4557924056563474
 21
54.999959999999987
 31
0.0
  0
LINE
  5
183
100
AcDbEntity
100
AcDbLine
  8
0
 62
256
370
-1
  6
ByLayer
 10
35.852802025326319
 20
24.0
 30
0.0
 11
71.35279829004682
 21
59.499996264720487
 31
0.0
  0
LINE
  5
184
100
AcDbEntity
100
AcDbLine
  8
0
 62
256
370
-1
  6
ByLayer
 10
44.338083399564887
 20
24.0
 30
0.0
 11
77.83807939956489
 21
57.499995999999982
 31
0.0
  0
LINE
  5
185
100
AcDbEntity
100
AcDbLine
  8
0
 62
256
370
-1
  6
ByLayer
 10
52.823364773803469
 20
24.0
 30
0.0
 11
86.323360773803458
 21
57.499995999999982
 31
0.0
  0
LINE
  5
186
100
AcDbEntity
100
AcDbLine
  8
0
 62
256
370
-1
  6
ByLayer
 10
61.30864614804203
 20
24.0
 30
0.0
 11
96.000000000000043
 21
58.69135385195797
 31
0.0
  0
LINE
  5
187
100
AcDbEntity
100
AcDbLine
  8
0
 62
256
370
-1
  6
ByLayer
 10
69.793927522280612
 20
24.0
 30
0.0
 11
96.0
 21
50.206072477719388
 31
0.0
  0
LINE
  5
188
100
AcDbEntity
100
AcDbLine
  8
0
 62
256
370
-1
  6
ByLayer
 10
78.279208896519179
 20
24.0
 30
0.0
 11
96.0
 21
41.720791103480813
 31
0.0
  0
LINE
  5
189
100
AcDbEntity
100
AcDbLine
  8
0
 62
256
370
-1
  6
ByLayer
 10
86.764490270757776
 20
24.0
 30
0.0
 11
96.0
 21
33.235509729242231
 31
0.0
  0
LINE
  5
18A
100
AcDbEntity
100
AcDbLine
  8
0
 62
256
370
-1
  6
ByLayer
 10
95.249771644996358
 20
24.0
 30
0.0
 11
96.0
 21
24.750228355003639
 31
0.0
  0
LINE
  5
18B
100
AcDbEntity
100
AcDbLine
  8
0
 62
256
370
-1
  6
ByLayer
 10
59.228316995509317
 20
24.0
 30
0.0
 11
28.228356995509301
 21
54.999959999999987
 31
0.0
  0
LINE
  5
18C
100
AcDbEntity
100
AcDbLine
  8
0
 62
256
370
-1
  6
ByLayer
 10
50.743035621270742
 20
24.0
 30
0.0
 11
19.74307562127073
 21
54.999959999999987
 31
0.0
  0
LINE
  5
18D
100
AcDbEntity
100
AcDbLine
  8
0
 62
256
370
-1
  6
ByLayer
 10
42.257754247032167
 20
24.0
 30
0.0
 11
11.257794247032161
 21
54.999959999999987
 31
0.0
  0
LINE
  5
18E
100
AcDbEntity
100
AcDbLine
  8
0
 62
256
370
-1
  6
ByLayer
 10
33.772472872793593
 20
24.0
 30
0.0
 11
2.7725128727936008
 21
54.999959999999987
 31
0.0
  0
LINE
  5
18F
100
AcDbEntity
100
AcDbLine
  8
0
 62
256
370
-1
  6
ByLayer
 10
25.287191498555039
 20
24.0
 30
0.0
 11
-0.0000000000000071
 21
49.287191498555039
 31
0.0
  0
LINE
  5
190
100
AcDbEntity
100
AcDbLine
  8
0
 62
256
370
-1
  6
ByLayer
 10
16.801910124316461
 20
24.0
 30
0.0
 11
-0.0000000000000071
 21
40.801910124316457
 31
0.0
  0
LINE
  5
191
100
AcDbEntity
100
AcDbLine
  8
0
 62
256
370
-1
  6
ByLayer
 10
8.3166287500778964
 20
24.0
 30
0.0
 11
-0.0000000000000071
 21
32.316628750077911
 31
0.0
  0
LINE
  5
192
100
AcDbEntity
100
AcDbLine
  8
0
 62
256
370
-1
  6
ByLayer
 10
67.713598369747899
 20
24.0
 30
0.0
 11
33.675202065757311
 21
58.038396303990567
 31
0.0
  0
LINE
  5
193
100
AcDbEntity
100
AcDbLine
  8
0
 62
256
370
-1
  6
ByLayer
 10
76.198879743986453
 20
24.0
 30
0.0
 11
40.698880413874427
 21
59.499999330112018
 31
0.0
  0
LINE
  5
194
100
AcDbEntity
100
AcDbLine
  8
0
 62
256
370
-1
  6
ByLayer
 10
84.684161118225035
 20
24.0
 30
0.0
 11
49.184162636641162
 21
59.49999848158388
 31
0.0
  0
LINE
  5
195
100
AcDbEntity
100
AcDbLine
  8
0
 62
256
370
-1
  6
ByLayer
 10
93.169442492463588
 20
24.0
 30
0.0
 11
57.669444859407882
 21
59.499997633055713
 31
0.0
  0
LINE
  5
196
100
AcDbEntity
100
AcDbLine
  8
0
 62
256
370
-1
  6
ByLayer
 10
95.999999999999957
 20
29.65472386670217
 30
0.0
 11
66.154727082174603
 21
59.499996784527568
 31
0.0
  0
LINE
  5
197
100
AcDbEntity
100
AcDbLine
  8
0
 62
256
370
-1
  6
ByLayer
 10
96.0
 20
38.140005240940731
 30
0.0
 11
76.640009240940714
 21
57.499995999999982
 31
0.0
  0
LINE
  5
198
100
AcDbEntity
100
AcDbLine
  8
0
 62
256
370
-1
  6
ByLayer
 10
96.0
 20
46.625286615179313
 30
0.0
 11
85.125290615179296
 21
57.499995999999982
 31
0.0
  0
LINE
  5
199
100
AcDbEntity
100
AcDbLine
  8
0
 62
256
370
-1
  6
ByLayer
 10
96.0
 20
55.110567989417859
 30
0.0
 11
93.569107424278741
 21
57.541460565139111
 31
0.0
  0
LINE
  5
19A
100
AcDbEntity
100
AcDbLine
  8
0
 62
256
370
-1
  6
ByLayer
 10
-0.098894018957985
 20
-5.0
 30
0.0
 11
3.9011059810420221
 21
-1.0
 31
0.0
  0
LINE
  5
19B
100
AcDbEntity
100
AcDbLine
  8
0
 62
256
370
-1
  6
ByLayer
 10
89.901105981041994
 20
85.0
 30
0.0
 11
93.901105981041994
 21
89.0
 31
0.0
  0
LINE
  5
19C
100
AcDbEntity
100
AcDbLine
  8
0
 62
256
370
-1
  6
ByLayer
 10
-2.22021436251763
 20
-5.0
 30
0.0
 11
1.7797856374823759
 21
-1.0
 31
0.0
  0
LINE
  5
19D
100
AcDbEntity
100
AcDbLine
  8
0
 62
256
370
-1
  6
ByLayer
 10
87.779785637482377
 20
85.0
 30
0.0
 11
91.779785637482377
 21
89.0
 31
0.0
  0
LINE
  5
19E
100
AcDbEntity
100
AcDbLine
  8
0
 62
256
370
-1
  6
ByLayer
 10
-4.3415347060772671
 20
-5.0
 30
0.0
 11
-0.3415347060772618
 21
-1.0
 31
0.0
  0
LINE
  5
19F
100
AcDbEntity
100
AcDbLine
  8
0
 62
256
370
-1
  6
ByLayer
 10
85.658465293922717
 20
85.0
 30
0.0
 11
89.658465293922717
 21
89.0
 31
0.0
  0
LINE
  5
1A0
100
AcDbEntity
100
AcDbLine
  8
0
 62
256
370
-1
  6
ByLayer
 10
-5.0
 20
-3.5371449503630839
 30
0.0
 11
-1.0000000000000071
 21
0.4628550496369144
 31
0.0
  0
LINE
  5
1A1
100
AcDbEntity
100
AcDbLine
  8
0
 62
256
370
-1
  6
ByLayer
 10
83.537144950363086
 20
85.0
 30
0.0
 11
87.537144950363114
 21
89.0
 31
0.0
  0
LINE
  5
1A2
100
AcDbEntity
100
AcDbLine
  8
0
 62
256
370
-1
  6
ByLayer
 10
-5.0
 20
-1.4158246068034539
 30
0.0
 11
-1.0000000000000071
 21
2.5841753931965439
 31
0.0
  0
LINE
  5
1A3
100
AcDbEntity
100
AcDbLine
  8
0
 62
256
370
-1
  6
ByLayer
 10
81.415824606803454
 20
85.0
 30
0.0
 11
85.415824606803454
 21
89.0
 31
0.0
  0
LINE
  5
1A4
100
AcDbEntity
100
AcDbLine
  8
0
 62
256
370
-1
  6
ByLayer
 10
-5.0
 20
0.7054957367561912
 30
0.0
 11
-1.0000000000000071
 21
4.7054957367561983
 31
0.0
  0
LINE
  5
1A5
100
AcDbEntity
100
AcDbLine
  8
0
 62
256
370
-1
  6
ByLayer
 10
79.294504263243795
 20
85.0
 30
0.0
 11
83.294504263243795
 21
89.0
 31
0.0
  0
LINE
  5
1A6
100
AcDbEntity
100
AcDbLine
  8
0
 62
256
370
-1
  6
ByLayer
 10
-5.0
 20
2.8268160803158362
 30
0.0
 11
-1.0000000000000071
 21
6.8268160803158349
 31
0.0
  0
LINE
  5
1A7
100
AcDbEntity
100
AcDbLine
  8
0
 62
256
370
-1
  6
ByLayer
 10
77.173183919684149
 20
85.0
 30
0.0
 11
81.173183919684149
 21
89.0
 31
0.0
  0
LINE
  5
1A8
100
AcDbEntity
100
AcDbLine
  8
0
 62
256
370
-1
  6
ByLayer
 10
-5.0
 20
4.9481364238754741
 30
0.0
 11
-1.0000000000000071
 21
8.9481364238754821
 31
0.0
  0
LINE
  5
1A9
100
AcDbEntity
100
AcDbLine
  8
0
 62
256
370
-1
  6
ByLayer
 10
75.051863576124504
 20
85.0
 30
0.0
 11
79.051863576124489
 21
89.0
 31
0.0
  0
LINE
  5
1AA
100
AcDbEntity
100
AcDbLine
  8
0
 62
256
370
-1
  6
ByLayer
 10
-5.0
 20
7.0694567674351196
 30
0.0
 11
-1.0
 21
11.06945676743511
 31
0.0
  0
LINE
  5
1AB
100
AcDbEntity
100
AcDbLine
  8
0
 62
256
370
-1
  6
ByLayer
 10
72.930543232564872
 20
85.0
 30
0.0
 11
76.930543232564872
 21
89.0
 31
0.0
  0
LINE
  5
1AC
100
AcDbEntity
100
AcDbLine
  8
0
 62
256
370
-1
  6
ByLayer
 10
-5.0
 20
9.190777110994766
 30
0.0
 11
-1.0
 21
13.190777110994761
 31
0.0
  0
LINE
  5
1AD
100
AcDbEntity
100
AcDbLine
  8
0
 62
256
370
-1
  6
ByLayer
 10
70.809222889005227
 20
85.0
 30
0.0
 11
74.809222889005227
 21
89.0
 31
0.0
  0
LINE
  5
1AE
100
AcDbEntity
100
AcDbLine
  8
0
 62
256
370
-1
  6
ByLayer
 10
-5.0
 20
11.312097454554401
 30
0.0
 11
-1.0
 21
15.312097454554401
 31
0.0
  0
LINE
  5
1AF
100
AcDbEntity
100
AcDbLine
  8
0
 62
256
370
-1
  6
ByLayer
 10
68.687902545445581
 20
85.0
 30
0.0
 11
72.687902545445581
 21
89.0
 31
0.0
  0
LINE
  5
1B0
100
AcDbEntity
100
AcDbLine
  8
0
 62
256
370
-1
  6
ByLayer
 10
-5.0000000000000062
 20
13.43341779811405
 30
0.0
 11
-1.0
 21
17.43341779811405
 31
0.0
  0
LINE
  5
1B1
100
AcDbEntity
100
AcDbLine
  8
0
 62
256
370
-1
  6
ByLayer
 10
66.566582201885936
 20
85.0
 30
0.0
 11
70.566582201885964
 21
89.0
 31
0.0
  0
LINE
  5
1B2
100
AcDbEntity
100
AcDbLine
  8
0
 62
256
370
-1
  6
ByLayer
 10
-5.0000000000000062
 20
15.55473814167369
 30
0.0
 11
-1.0
 21
19.554738141673688
 31
0.0
  0
LINE
  5
1B3
100
AcDbEntity
100
AcDbLine
  8
0
 62
256
370
-1
  6
ByLayer
 10
64.445261858326305
 20
85.0
 30
0.0
 11
68.445261858326305
 21
89.0
 31
0.0
  0
LINE
  5
1B4
100
AcDbEntity
100
AcDbLine
  8
0
 62
256
370
-1
  6
ByLayer
 10
-5.0000000000000062
 20
17.67605848523332
 30
0.0
 11
-1.0
 21
21.676058485233341
 31
0.0
  0
LINE
  5
1B5
100
AcDbEntity
100
AcDbLine
  8
0
 62
256
370
-1
  6
ByLayer
 10
62.323941514766652
 20
85.0
 30
0.0
 11
66.323941514766659
 21
89.0
 31
0.0
  0
LINE
  5
1B6
100
AcDbEntity
100
AcDbLine
  8
0
 62
256
370
-1
  6
ByLayer
 10
-5.0000000000000062
 20
19.797378828792962
 30
0.0
 11
-1.0
 21
23.797378828792979
 31
0.0
  0
LINE
  5
1B7
100
AcDbEntity
100
AcDbLine
  8
0
 62
256
370
-1
  6
ByLayer
 10
60.202621171207007
 20
85.0
 30
0.0
 11
64.202621171207014
 21
89.0
 31
0.0
  0
LINE
  5
1B8
100
AcDbEntity
100
AcDbLine
  8
0
 62
256
370
-1
  6
ByLayer
 10
-5.0000000000000062
 20
21.918699172352621
 30
0.0
 11
-2.918699172352623
 21
24.0
 31
0.0
  0
LINE
  5
1B9
100
AcDbEntity
100
AcDbLine
  8
0
 62
256
370
-1
  6
ByLayer
 10
58.081300827647368
 20
85.0
 30
0.0
 11
62.081300827647361
 21
89.0
 31
0.0
  0
LINE
  5
1BA
100
AcDbEntity
100
AcDbLine
  8
0
 62
256
370
-1
  6
ByLayer
 10
55.959980484087708
 20
85.0
 30
0.0
 11
59.959980484087737
 21
89.0
 31
0.0
  0
LINE
  5
1BB
100
AcDbEntity
100
AcDbLine
  8
0
 62
256
370
-1
  6
ByLayer
 10
53.838660140528091
 20
85.0
 30
0.0
 11
57.838660140528098
 21
89.0
 31
0.0
  0
LINE
  5
1BC
100
AcDbEntity
100
AcDbLine
  8
0
 62
256
370
-1
  6
ByLayer
 10
51.71733979696846
 20
85.0
 30
0.0
 11
55.71733979696846
 21
89.0
 31
0.0
  0
LINE
  5
1BD
100
AcDbEntity
100
AcDbLine
  8
0
 62
256
370
-1
  6
ByLayer
 10
49.596019453408822
 20
85.0
 30
0.0
 11
53.596019453408807
 21
89.0
 31
0.0
  0
LINE
  5
1BE
100
AcDbEntity
100
AcDbLine
  8
0
 62
256
370
-1
  6
ByLayer
 10
47.474699109849169
 20
85.0
 30
0.0
 11
51.474699109849162
 21
89.0
 31
0.0
  0
LINE
  5
1BF
100
AcDbEntity
100
AcDbLine
  8
0
 62
256
370
-1
  6
ByLayer
 10
45.353378766289516
 20
85.0
 30
0.0
 11
49.353378766289531
 21
89.0
 31
0.0
  0
LINE
  5
1C0
100
AcDbEntity
100
AcDbLine
  8
0
 62
256
370
-1
  6
ByLayer
 10
43.232058422729857
 20
85.0
 30
0.0
 11
47.232058422729878
 21
89.0
 31
0.0
  0
LINE
  5
1C1
100
AcDbEntity
100
AcDbLine
  8
0
 62
256
370
-1
  6
ByLayer
 10
41.110738079170218
 20
85.0
 30
0.0
 11
45.11073807917024
 21
89.0
 31
0.0
  0
LINE
  5
1C2
100
AcDbEntity
100
AcDbLine
  8
0
 62
256
370
-1
  6
ByLayer
 10
38.989417735610601
 20
85.0
 30
0.0
 11
42.989417735610601
 21
89.0
 31
0.0
  0
LINE
  5
1C3
100
AcDbEntity
100
AcDbLine
  8
0
 62
256
370
-1
  6
ByLayer
 10
36.868097392050949
 20
85.0
 30
0.0
 11
40.868097392050949
 21
89.0
 31
0.0
  0
LINE
  5
1C4
100
AcDbEntity
100
AcDbLine
  8
0
 62
256
370
-1
  6
ByLayer
 10
34.746777048491303
 20
85.0
 30
0.0
 11
38.74677704849131
 21
89.0
 31
0.0
  0
LINE
  5
1C5
100
AcDbEntity
100
AcDbLine
  8
0
 62
256
370
-1
  6
ByLayer
 10
32.625456704931658
 20
85.0
 30
0.0
 11
36.625456704931658
 21
89.0
 31
0.0
  0
LINE
  5
1C6
100
AcDbEntity
100
AcDbLine
  8
0
 62
256
370
-1
  6
ByLayer
 10
30.504136361372019
 20
85.0
 30
0.0
 11
34.504136361372034
 21
89.0
 31
0.0
  0
LINE
  5
1C7
100
AcDbEntity
100
AcDbLine
  8
0
 62
256
370
-1
  6
ByLayer
 10
28.382816017812381
 20
85.0
 30
0.0
 11
32.382816017812381
 21
89.0
 31
0.0
  0
LINE
  5
1C8
100
AcDbEntity
100
AcDbLine
  8
0
 62
256
370
-1
  6
ByLayer
 10
-2.738544325747255
 20
55.999959999999987
 30
0.0
 11
-1.0000000000000071
 21
57.73850432574725
 31
0.0
  0
LINE
  5
1C9
100
AcDbEntity
100
AcDbLine
  8
0
 62
256
370
-1
  6
ByLayer
 10
26.261495674252739
 20
85.0
 30
0.0
 11
30.261495674252739
 21
89.0
 31
0.0
  0
LINE
  5
1CA
100
AcDbEntity
100
AcDbLine
  8
0
 62
256
370
-1
  6
ByLayer
 10
-4.8598646693069014
 20
55.999959999999987
 30
0.0
 11
-1.0000000000000071
 21
59.859824669306889
 31
0.0
  0
LINE
  5
1CB
100
AcDbEntity
100
AcDbLine
  8
0
 62
256
370
-1
  6
ByLayer
 10
24.140175330693079
 20
85.0
 30
0.0
 11
28.140175330693079
 21
89.0
 31
0.0
  0
LINE
  5
1CC
100
AcDbEntity
100
AcDbLine
  8
0
 62
256
370
-1
  6
ByLayer
 10
-5.0000000000000062
 20
57.981145012866527
 30
0.0
 11
-1.0000000000000071
 21
61.981145012866527
 31
0.0
  0
LINE
  5
1CD
100
AcDbEntity
100
AcDbLine
  8
0
 62
256
370
-1
  6
ByLayer
 10
22.018854987133452
 20
85.0
 30
0.0
 11
26.018854987133452
 21
89.0
 31
0.0
  0
LINE
  5
1CE
100
AcDbEntity
100
AcDbLine
  8
0
 62
256
370
-1
  6
ByLayer
 10
-5.0000000000000062
 20
60.10246535642618
 30
0.0
 11
-1.0000000000000071
 21
64.10246535642618
 31
0.0
  0
LINE
  5
1CF
100
AcDbEntity
100
AcDbLine
  8
0
 62
256
370
-1
  6
ByLayer
 10
19.897534643573799
 20
85.0
 30
0.0
 11
23.89753464357381
 21
89.0
 31
0.0
  0
LINE
  5
1D0
100
AcDbEntity
100
AcDbLine
  8
0
 62
256
370
-1
  6
ByLayer
 10
-5.0000000000000062
 20
62.223785699985818
 30
0.0
 11
-1.0000000000000071
 21
66.223785699985825
 31
0.0
  0
LINE
  5
1D1
100
AcDbEntity
100
AcDbLine
  8
0
 62
256
370
-1
  6
ByLayer
 10
17.776214300014161
 20
85.0
 30
0.0
 11
21.776214300014171
 21
89.0
 31
0.0
  0
LINE
  5
1D2
100
AcDbEntity
100
AcDbLine
  8
0
 62
256
370
-1
  6
ByLayer
 10
-5.0000000000000062
 20
64.345106043545471
 30
0.0
 11
-1.0000000000000071
 21
68.345106043545471
 31
0.0
  0
LINE
  5
1D3
100
AcDbEntity
100
AcDbLine
  8
0
 62
256
370
-1
  6
ByLayer
 10
15.65489395645452
 20
85.0
 30
0.0
 11
19.654893956454529
 21
89.0
 31
0.0
  0
LINE
  5
1D4
100
AcDbEntity
100
AcDbLine
  8
0
 62
256
370
-1
  6
ByLayer
 10
-5.0000000000000062
 20
66.466426387105116
 30
0.0
 11
-1.0000000000000071
 21
70.466426387105116
 31
0.0
  0
LINE
  5
1D5
100
AcDbEntity
100
AcDbLine
  8
0
 62
256
370
-1
  6
ByLayer
 10
13.53357361289488
 20
85.0
 30
0.0
 11
17.53357361289488
 21
89.0
 31
0.0
  0
LINE
  5
1D6
100
AcDbEntity
100
AcDbLine
  8
0
 62
256
370
-1
  6
ByLayer
 10
-5.0000000000000062
 20
68.587746730664733
 30
0.0
 11
-1.0000000000000071
 21
72.587746730664747
 31
0.0
  0
LINE
  5
1D7
100
AcDbEntity
100
AcDbLine
  8
0
 62
256
370
-1
  6
ByLayer
 10
11.412253269335229
 20
85.0
 30
0.0
 11
15.412253269335221
 21
89.0
 31
0.0
  0
LINE
  5
1D8
100
AcDbEntity
100
AcDbLine
  8
0
 62
256
370
-1
  6
ByLayer
 10
-5.0000000000000062
 20
70.709067074224393
 30
0.0
 11
-1.0000000000000071
 21
74.709067074224393
 31
0.0
  0
LINE
  5
1D9
100
AcDbEntity
100
AcDbLine
  8
0
 62
256
370
-1
  6
ByLayer
 10
9.2909329257755982
 20
85.0
 30
0.0
 11
13.2909329257756
 21
89.0
 31
0.0
  0
LINE
  5
1DA
100
AcDbEntity
100
AcDbLine
  8
0
 62
256
370
-1
  6
ByLayer
 10
-5.0000000000000062
 20
72.830387417784038
 30
0.0
 11
-1.0000000000000071
 21
76.830387417784024
 31
0.0
  0
LINE
  5
1DB
100
AcDbEntity
100
AcDbLine
  8
0
 62
256
370
-1
  6
ByLayer
 10
7.1696125822159606
 20
85.0
 30
0.0
 11
11.169612582215951
 21
89.0
 31
0.0
  0
LINE
  5
1DC
100
AcDbEntity
100
AcDbLine
  8
0
 62
256
370
-1
  6
ByLayer
 10
-5.0000000000000062
 20
74.95170776134367
 30
0.0
 11
-1.0000000000000071
 21
78.95170776134367
 31
0.0
  0
LINE
  5
1DD
100
AcDbEntity
100
AcDbLine
  8
0
 62
256
370
-1
  6
ByLayer
 10
5.048292238656316
 20
85.0
 30
0.0
 11
9.0482922386563231
 21
89.0
 31
0.0
  0
LINE
  5
1DE
100
AcDbEntity
100
AcDbLine
  8
0
 62
256
370
-1
  6
ByLayer
 10
-5.0000000000000062
 20
77.073028104903315
 30
0.0
 11
-1.0000000000000071
 21
81.073028104903315
 31
0.0
  0
LINE
  5
1DF
100
AcDbEntity
100
AcDbLine
  8
0
 62
256
370
-1
  6
ByLayer
 10
2.9269718950966692
 20
85.0
 30
0.0
 11
6.9269718950966768
 21
89.0
 31
0.0
  0
LINE
  5
1E0
100
AcDbEntity
100
AcDbLine
  8
0
 62
256
370
-1
  6
ByLayer
 10
-5.0000000000000062
 20
79.194348448462947
 30
0.0
 11
-1.0000000000000071
 21
83.194348448462975
 31
0.0
  0
LINE
  5
1E1
100
AcDbEntity
100
AcDbLine
  8
0
 62
256
370
-1
  6
ByLayer
 10
0.8056515515370319
 20
85.0
 30
0.0
 11
4.8056515515370322
 21
89.0
 31
0.0
  0
LINE
  5
1E2
100
AcDbEntity
100
AcDbLine
  8
0
 62
256
370
-1
  6
ByLayer
 10
-5.0000000000000062
 20
81.315668792022578
 30
0.0
 11
2.684331207977392
 21
89.0
 31
0.0
  0
LINE
  5
1E3
100
AcDbEntity
100
AcDbLine
  8
0
 62
256
370
-1
  6
ByLayer
 10
-5.0000000000000062
 20
83.436989135582266
 30
0.0
 11
0.5630108644177483
 21
89.0
 31
0.0
  0
LINE
  5
1E4
100
AcDbEntity
100
AcDbLine
  8
0
 62
256
370
-1
  6
ByLayer
 10
-5.0000000000000062
 20
85.558309479141855
 30
0.0
 11
-1.558309479141889
 21
89.0
 31
0.0
  0
LINE
  5
1E5
100
AcDbEntity
100
AcDbLine
  8
0
 62
256
370
-1
  6
ByLayer
 10
-5.0000000000000062
 20
87.679629822701528
 30
0.0
 11
-3.6796298227015352
 21
89.0
 31
0.0
  0
LINE
  5
1E6
100
AcDbEntity
100
AcDbLine
  8
0
 62
256
370
-1
  6
ByLayer
 10
2.0224263246016592
 20
-5.0
 30
0.0
 11
6.0224263246016587
 21
-1.0
 31
0.0
  0
LINE
  5
1E7
100
AcDbEntity
100
AcDbLine
  8
0
 62
256
370
-1
  6
ByLayer
 10
92.022426324601668
 20
85.0
 30
0.0
 11
96.022426324601682
 21
89.0
 31
0.0
  0
LINE
  5
1E8
100
AcDbEntity
100
AcDbLine
  8
0
 62
256
370
-1
  6
ByLayer
 10
4.143746668161298
 20
-5.0
 30
0.0
 11
8.1437466681613042
 21
-1.0
 31
0.0
  0
LINE
  5
1E9
100
AcDbEntity
100
AcDbLine
  8
0
 62
256
370
-1
  6
ByLayer
 10
94.143746668161285
 20
85.0
 30
0.0
 11
98.143746668161299
 21
89.0
 31
0.0
  0
LINE
  5
1EA
100
AcDbEntity
100
AcDbLine
  8
0
 62
256
370
-1
  6
ByLayer
 10
6.2650670117209426
 20
-5.0
 30
0.0
 11
10.265067011720941
 21
-1.0
 31
0.0
  0
LINE
  5
1EB
100
AcDbEntity
100
AcDbLine
  8
0
 62
256
370
-1
  6
ByLayer
 10
96.26506701172093
 20
85.0
 30
0.0
 11
100.2650670117209
 21
89.0
 31
0.0
  0
LINE
  5
1EC
100
AcDbEntity
100
AcDbLine
  8
0
 62
256
370
-1
  6
ByLayer
 10
8.3863873552805792
 20
-5.0
 30
0.0
 11
12.38638735528059
 21
-1.0
 31
0.0
  0
LINE
  5
1ED
100
AcDbEntity
100
AcDbLine
  8
0
 62
256
370
-1
  6
ByLayer
 10
97.0
 20
83.61361264471941
 30
0.0
 11
101.0
 21
87.613612644719424
 31
0.0
  0
LINE
  5
1EE
100
AcDbEntity
100
AcDbLine
  8
0
 62
256
370
-1
  6
ByLayer
 10
10.507707698840219
 20
-5.0
 30
0.0
 11
14.50770769884023
 21
-1.0
 31
0.0
  0
LINE
  5
1EF
100
AcDbEntity
100
AcDbLine
  8
0
 62
256
370
-1
  6
ByLayer
 10
97.0
 20
81.492292301159765
 30
0.0
 11
101.0
 21
85.492292301159779
 31
0.0
  0
LINE
  5
1F0
100
AcDbEntity
100
AcDbLine
  8
0
 62
256
370
-1
  6
ByLayer
 10
12.62902804239987
 20
-5.0
 30
0.0
 11
16.629028042399881
 21
-1.0
 31
0.0
  0
LINE
  5
1F1
100
AcDbEntity
100
AcDbLine
  8
0
 62
256
370
-1
  6
ByLayer
 10
97.0
 20
79.370971957600133
 30
0.0
 11
101.0
 21
83.370971957600133
 31
0.0
  0
LINE
  5
1F2
100
AcDbEntity
100
AcDbLine
  8
0
 62
256
370
-1
  6
ByLayer
 10
14.75034838595951
 20
-5.0
 30
0.0
 11
18.750348385959519
 21
-1.0
 31
0.0
  0
LINE
  5
1F3
100
AcDbEntity
100
AcDbLine
  8
0
 62
256
370
-1
  6
ByLayer
 10
97.0
 20
77.249651614040474
 30
0.0
 11
101.0
 21
81.249651614040502
 31
0.0
  0
LINE
  5
1F4
100
AcDbEntity
100
AcDbLine
  8
0
 62
256
370
-1
  6
ByLayer
 10
16.871668729519151
 20
-5.0
 30
0.0
 11
20.87166872951914
 21
-1.0
 31
0.0
  0
LINE
  5
1F5
100
AcDbEntity
100
AcDbLine
  8
0
 62
256
370
-1
  6
ByLayer
 10
97.0
 20
75.128331270480842
 30
0.0
 11
101.0
 21
79.128331270480842
 31
0.0
  0
LINE
  5
1F6
100
AcDbEntity
100
AcDbLine
  8
0
 62
256
370
-1
  6
ByLayer
 10
18.9929890730788
 20
-5.0
 30
0.0
 11
22.9929890730788
 21
-1.0
 31
0.0
  0
LINE
  5
1F7
100
AcDbEntity
100
AcDbLine
  8
0
 62
256
370
-1
  6
ByLayer
 10
97.0
 20
73.007010926921183
 30
0.0
 11
101.0
 21
77.007010926921211
 31
0.0
  0
LINE
  5
1F8
100
AcDbEntity
100
AcDbLine
  8
0
 62
256
370
-1
  6
ByLayer
 10
21.114309416638449
 20
-5.0
 30
0.0
 11
25.114309416638442
 21
-1.0
 31
0.0
  0
LINE
  5
1F9
100
AcDbEntity
100
AcDbLine
  8
0
 62
256
370
-1
  6
ByLayer
 10
97.0
 20
70.885690583361551
 30
0.0
 11
101.0
 21
74.885690583361566
 31
0.0
  0
LINE
  5
1FA
100
AcDbEntity
100
AcDbLine
  8
0
 62
256
370
-1
  6
ByLayer
 10
23.235629760198069
 20
-5.0
 30
0.0
 11
27.23562976019808
 21
-1.0
 31
0.0
  0
LINE
  5
1FB
100
AcDbEntity
100
AcDbLine
  8
0
 62
256
370
-1
  6
ByLayer
 10
97.0
 20
68.764370239801906
 30
0.0
 11
101.0
 21
72.764370239801934
 31
0.0
  0
LINE
  5
1FC
100
AcDbEntity
100
AcDbLine
  8
0
 62
256
370
-1
  6
ByLayer
 10
25.356950103757711
 20
-5.0
 30
0.0
 11
29.356950103757729
 21
-1.0
 31
0.0
  0
LINE
  5
1FD
100
AcDbEntity
100
AcDbLine
  8
0
 62
256
370
-1
  6
ByLayer
 10
97.0
 20
66.643049896242275
 30
0.0
 11
101.0
 21
70.643049896242289
 31
0.0
  0
LINE
  5
1FE
100
AcDbEntity
100
AcDbLine
  8
0
 62
256
370
-1
  6
ByLayer
 10
27.478270447317371
 20
-5.0
 30
0.0
 11
30.0
 21
-2.47827044731737
 31
0.0
  0
LINE
  5
1FF
100
AcDbEntity
100
AcDbLine
  8
0
 62
256
370
-1
  6
ByLayer
 10
97.0
 20
64.521729552682629
 30
0.0
 11
101.0
 21
68.521729552682643
 31
0.0
  0
LINE
  5
200
100
AcDbEntity
100
AcDbLine
  8
0
 62
256
370
-1
  6
ByLayer
 10
29.599590790877009
 20
-5.0
 30
0.0
 11
30.0
 21
-4.5995907908770164
 31
0.0
  0
LINE
  5
201
100
AcDbEntity
100
AcDbLine
  8
0
 62
256
370
-1
  6
ByLayer
 10
97.0
 20
62.400409209122969
 30
0.0
 11
101.0
 21
66.400409209122998
 31
0.0
  0
LINE
  5
202
100
AcDbEntity
100
AcDbLine
  8
0
 62
256
370
-1
  6
ByLayer
 10
97.0
 20
60.279088865563352
 30
0.0
 11
101.0
 21
64.279088865563352
 31
0.0
  0
LINE
  5
203
100
AcDbEntity
100
AcDbLine
  8
0
 62
256
370
-1
  6
ByLayer
 10
98.842231477996293
 20
60.0
 30
0.0
 11
101.0
 21
62.157768522003707
 31
0.0
  0
LINE
  5
204
100
AcDbEntity
100
AcDbLine
  8
0
 62
256
370
-1
  6
ByLayer
 10
100.9635518215558
 20
60.0
 30
0.0
 11
101.0
 21
60.036448178444061
 31
0.0
  0
LINE
  5
205
100
AcDbEntity
100
AcDbLine
  8
0
 62
256
370
-1
  6
ByLayer
 10
66.0
 20
-2.5407162878312728
 30
0.0
 11
67.540716287831273
 21
-0.9999999999999856
 31
0.0
  0
LINE
  5
206
100
AcDbEntity
100
AcDbLine
  8
0
 62
256
370
-1
  6
ByLayer
 10
66.0
 20
-4.662036631390917
 30
0.0
 11
69.662036631390919
 21
-0.9999999999999856
 31
0.0
  0
LINE
  5
207
100
AcDbEntity
100
AcDbLine
  8
0
 62
256
370
-1
  6
ByLayer
 10
67.783356974950564
 20
-5.0
 30
0.0
 11
71.783356974950564
 21
-0.9999999999999856
 31
0.0
  0
LINE
  5
208
100
AcDbEntity
100
AcDbLine
  8
0
 62
256
370
-1
  6
ByLayer
 10
69.90467731851021
 20
-5.0
 30
0.0
 11
73.904677318510196
 21
-0.9999999999999856
 31
0.0
  0
LINE
  5
209
100
AcDbEntity
100
AcDbLine
  8
0
 62
256
370
-1
  6
ByLayer
 10
97.0
 20
22.09532268148978
 30
0.0
 11
98.90467731851021
 21
24.0
 31
0.0
  0
LINE
  5
20A
100
AcDbEntity
100
AcDbLine
  8
0
 62
256
370
-1
  6
ByLayer
 10
72.025997662069855
 20
-5.0
 30
0.0
 11
76.025997662069841
 21
-0.9999999999999856
 31
0.0
  0
LINE
  5
20B
100
AcDbEntity
100
AcDbLine
  8
0
 62
256
370
-1
  6
ByLayer
 10
97.0
 20
19.974002337930141
 30
0.0
 11
101.0
 21
23.974002337930141
 31
0.0
  0
LINE
  5
20C
100
AcDbEntity
100
AcDbLine
  8
0
 62
256
370
-1
  6
ByLayer
 10
74.147318005629486
 20
-5.0
 30
0.0
 11
78.147318005629501
 21
-0.9999999999999856
 31
0.0
  0
LINE
  5
20D
100
AcDbEntity
100
AcDbLine
  8
0
 62
256
370
-1
  6
ByLayer
 10
97.0
 20
17.852681994370499
 30
0.0
 11
101.0
 21
21.852681994370499
 31
0.0
  0
LINE
  5
20E
100
AcDbEntity
100
AcDbLine
  8
0
 62
256
370
-1
  6
ByLayer
 10
76.268638349189132
 20
-5.0
 30
0.0
 11
80.268638349189132
 21
-0.9999999999999856
 31
0.0
  0
LINE
  5
20F
100
AcDbEntity
100
AcDbLine
  8
0
 62
256
370
-1
  6
ByLayer
 10
97.0
 20
15.731361650810859
 30
0.0
 11
101.0
 21
19.731361650810861
 31
0.0
  0
LINE
  5
210
100
AcDbEntity
100
AcDbLine
  8
0
 62
256
370
-1
  6
ByLayer
 10
78.389958692748792
 20
-5.0
 30
0.0
 11
82.389958692748763
 21
-0.9999999999999856
 31
0.0
  0
LINE
  5
211
100
AcDbEntity
100
AcDbLine
  8
0
 62
256
370
-1
  6
ByLayer
 10
97.0
 20
13.61004130725121
 30
0.0
 11
101.0
 21
17.610041307251219
 31
0.0
  0
LINE
  5
212
100
AcDbEntity
100
AcDbLine
  8
0
 62
256
370
-1
  6
ByLayer
 10
80.511279036308423
 20
-5.0
 30
0.0
 11
84.511279036308423
 21
-0.9999999999999856
 31
0.0
  0
LINE
  5
213
100
AcDbEntity
100
AcDbLine
  8
0
 62
256
370
-1
  6
ByLayer
 10
97.0
 20
11.488720963691559
 30
0.0
 11
101.0
 21
15.48872096369157
 31
0.0
  0
LINE
  5
214
100
AcDbEntity
100
AcDbLine
  8
0
 62
256
370
-1
  6
ByLayer
 10
82.632599379868054
 20
-5.0
 30
0.0
 11
86.632599379868054
 21
-0.9999999999999856
 31
0.0
  0
LINE
  5
215
100
AcDbEntity
100
AcDbLine
  8
0
 62
256
370
-1
  6
ByLayer
 10
97.0
 20
9.3674006201319315
 30
0.0
 11
101.0
 21
13.36740062013193
 31
0.0
  0
LINE
  5
216
100
AcDbEntity
100
AcDbLine
  8
0
 62
256
370
-1
  6
ByLayer
 10
84.753919723427686
 20
-5.0
 30
0.0
 11
88.753919723427714
 21
-0.9999999999999856
 31
0.0
  0
LINE
  5
217
100
AcDbEntity
100
AcDbLine
  8
0
 62
256
370
-1
  6
ByLayer
 10
97.0
 20
7.246080276572286
 30
0.0
 11
101.0
 21
11.24608027657229
 31
0.0
  0
LINE
  5
218
100
AcDbEntity
100
AcDbLine
  8
0
 62
256
370
-1
  6
ByLayer
 10
86.875240066987345
 20
-5.0
 30
0.0
 11
90.875240066987345
 21
-0.9999999999999856
 31
0.0
  0
LINE
  5
219
100
AcDbEntity
100
AcDbLine
  8
0
 62
256
370
-1
  6
ByLayer
 10
97.0
 20
5.1247599330126388
 30
0.0
 11
101.0
 21
9.1247599330126494
 31
0.0
  0
LINE
  5
21A
100
AcDbEntity
100
AcDbLine
  8
0
 62
256
370
-1
  6
ByLayer
 10
88.996560410547005
 20
-5.0
 30
0.0
 11
92.996560410546991
 21
-0.9999999999999856
 31
0.0
  0
LINE
  5
21B
100
AcDbEntity
100
AcDbLine
  8
0
 62
256
370
-1
  6
ByLayer
 10
97.0
 20
3.0034395894529951
 30
0.0
 11
101.0
 21
7.0034395894530093
 31
0.0
  0
LINE
  5
21C
100
AcDbEntity
100
AcDbLine
  8
0
 62
256
370
-1
  6
ByLayer
 10
91.117880754106636
 20
-5.0
 30
0.0
 11
95.117880754106636
 21
-0.9999999999999856
 31
0.0
  0
LINE
  5
21D
100
AcDbEntity
100
AcDbLine
  8
0
 62
256
370
-1
  6
ByLayer
 10
97.0
 20
0.8821192458933636
 30
0.0
 11
101.0
 21
4.8821192458933629
 31
0.0
  0
LINE
  5
21E
100
AcDbEntity
100
AcDbLine
  8
0
 62
256
370
-1
  6
ByLayer
 10
93.239201097666282
 20
-5.0
 30
0.0
 11
101.0
 21
2.7607989023337178
 31
0.0
  0
LINE
  5
21F
100
AcDbEntity
100
AcDbLine
  8
0
 62
256
370
-1
  6
ByLayer
 10
95.360521441225913
 20
-5.0
 30
0.0
 11
101.0
 21
0.6394785587740728
 31
0.0
  0
LINE
  5
220
100
AcDbEntity
100
AcDbLine
  8
0
 62
256
370
-1
  6
ByLayer
 10
97.481841784785559
 20
-5.0
 30
0.0
 11
101.0
 21
-1.4818417847855581
 31
0.0
  0
LINE
  5
221
100
AcDbEntity
100
AcDbLine
  8
0
 62
256
370
-1
  6
ByLayer
 10
99.603162128345218
 20
-5.0
 30
0.0
 11
101.0
 21
-3.6031621283452031
 31
0.0
  0
LINE
  5
222
100
AcDbEntity
100
AcDbLine
  8
0
 62
256
370
-1
  6
ByLayer
 10
93.214035251664157
 20
-5.0
 30
0.0
 11
89.214035251664143
 21
-0.9999999999999856
 31
0.0
  0
LINE
  5
223
100
AcDbEntity
100
AcDbLine
  8
0
 62
256
370
-1
  6
ByLayer
 10
3.2140352516641628
 20
85.0
 30
0.0
 11
-0.7859647483358501
 21
89.0
 31
0.0
  0
LINE
  5
224
100
AcDbEntity
100
AcDbLine
  8
0
 62
256
370
-1
  6
ByLayer
 10
91.092714908104512
 20
-5.0
 30
0.0
 11
87.092714908104512
 21
-0.9999999999999856
 31
0.0
  0
LINE
  5
225
100
AcDbEntity
100
AcDbLine
  8
0
 62
256
370
-1
  6
ByLayer
 10
1.0927149081045171
 20
85.0
 30
0.0
 11
-2.907285091895488
 21
89.0
 31
0.0
  0
LINE
  5
226
100
AcDbEntity
100
AcDbLine
  8
0
 62
256
370
-1
  6
ByLayer
 10
88.971394564544866
 20
-5.0
 30
0.0
 11
84.971394564544823
 21
-0.9999999999999856
 31
0.0
  0
LINE
  5
227
100
AcDbEntity
100
AcDbLine
  8
0
 62
256
370
-1
  6
ByLayer
 10
-1.0000000000000071
 20
84.971394564544894
 30
0.0
 11
-5.0000000000000062
 21
88.971394564544866
 31
0.0
  0
LINE
  5
228
100
AcDbEntity
100
AcDbLine
  8
0
 62
256
370
-1
  6
ByLayer
 10
86.850074220985221
 20
-5.0
 30
0.0
 11
82.850074220985206
 21
-0.9999999999999856
 31
0.0
  0
LINE
  5
229
100
AcDbEntity
100
AcDbLine
  8
0
 62
256
370
-1
  6
ByLayer
 10
-1.0000000000000071
 20
82.850074220985235
 30
0.0
 11
-5.0000000000000062
 21
86.850074220985221
 31
0.0
  0
LINE
  5
22A
100
AcDbEntity
100
AcDbLine
  8
0
 62
256
370
-1
  6
ByLayer
 10
84.728753877425589
 20
-5.0
 30
0.0
 11
80.728753877425561
 21
-0.9999999999999856
 31
0.0
  0
LINE
  5
22B
100
AcDbEntity
100
AcDbLine
  8
0
 62
256
370
-1
  6
ByLayer
 10
-1.0000000000000071
 20
80.728753877425589
 30
0.0
 11
-5.0000000000000062
 21
84.728753877425589
 31
0.0
  0
LINE
  5
22C
100
AcDbEntity
100
AcDbLine
  8
0
 62
256
370
-1
  6
ByLayer
 10
82.607433533865958
 20
-5.0
 30
0.0
 11
78.607433533865944
 21
-0.9999999999999856
 31
0.0
  0
LINE
  5
22D
100
AcDbEntity
100
AcDbLine
  8
0
 62
256
370
-1
  6
ByLayer
 10
-1.0000000000000071
 20
78.607433533865944
 30
0.0
 11
-5.0000000000000062
 21
82.607433533865944
 31
0.0
  0
LINE
  5
22E
100
AcDbEntity
100
AcDbLine
  8
0
 62
256
370
-1
  6
ByLayer
 10
80.486113190306298
 20
-5.0
 30
0.0
 11
76.486113190306284
 21
-0.9999999999999856
 31
0.0
  0
LINE
  5
22F
100
AcDbEntity
100
AcDbLine
  8
0
 62
256
370
-1
  6
ByLayer
 10
-1.0000000000000071
 20
76.486113190306298
 30
0.0
 11
-5.0000000000000062
 21
80.486113190306298
 31
0.0
  0
LINE
  5
230
100
AcDbEntity
100
AcDbLine
  8
0
 62
256
370
-1
  6
ByLayer
 10
78.364792846746653
 20
-5.0
 30
0.0
 11
74.364792846746639
 21
-0.9999999999999856
 31
0.0
  0
LINE
  5
231
100
AcDbEntity
100
AcDbLine
  8
0
 62
256
370
-1
  6
ByLayer
 10
-1.0000000000000071
 20
74.364792846746667
 30
0.0
 11
-5.0000000000000062
 21
78.364792846746653
 31
0.0
  0
LINE
  5
232
100
AcDbEntity
100
AcDbLine
  8
0
 62
256
370
-1
  6
ByLayer
 10
76.243472503187022
 20
-5.0
 30
0.0
 11
72.243472503186993
 21
-0.9999999999999856
 31
0.0
  0
LINE
  5
233
100
AcDbEntity
100
AcDbLine
  8
0
 62
256
370
-1
  6
ByLayer
 10
-1.0000000000000071
 20
72.243472503187022
 30
0.0
 11
-5.0000000000000062
 21
76.243472503187022
 31
0.0
  0
LINE
  5
234
100
AcDbEntity
100
AcDbLine
  8
0
 62
256
370
-1
  6
ByLayer
 10
74.122152159627376
 20
-5.0
 30
0.0
 11
70.122152159627362
 21
-0.9999999999999856
 31
0.0
  0
LINE
  5
235
100
AcDbEntity
100
AcDbLine
  8
0
 62
256
370
-1
  6
ByLayer
 10
-1.0000000000000071
 20
70.122152159627376
 30
0.0
 11
-5.0000000000000062
 21
74.122152159627376
 31
0.0
  0
LINE
  5
236
100
AcDbEntity
100
AcDbLine
  8
0
 62
256
370
-1
  6
ByLayer
 10
72.000831816067731
 20
-5.0
 30
0.0
 11
68.000831816067716
 21
-0.9999999999999856
 31
0.0
  0
LINE
  5
237
100
AcDbEntity
100
AcDbLine
  8
0
 62
256
370
-1
  6
ByLayer
 10
-1.0000000000000071
 20
68.000831816067731
 30
0.0
 11
-5.0000000000000062
 21
72.000831816067731
 31
0.0
  0
LINE
  5
238
100
AcDbEntity
100
AcDbLine
  8
0
 62
256
370
-1
  6
ByLayer
 10
69.879511472508071
 20
-5.0
 30
0.0
 11
66.0
 21
-1.1204885274919141
 31
0.0
  0
LINE
  5
239
100
AcDbEntity
100
AcDbLine
  8
0
 62
256
370
-1
  6
ByLayer
 10
-1.0000000000000071
 20
65.879511472508099
 30
0.0
 11
-5.0000000000000062
 21
69.879511472508071
 31
0.0
  0
LINE
  5
23A
100
AcDbEntity
100
AcDbLine
  8
0
 62
256
370
-1
  6
ByLayer
 10
67.758191128948425
 20
-5.0
 30
0.0
 11
66.0
 21
-3.24180887105156
 31
0.0
  0
LINE
  5
23B
100
AcDbEntity
100
AcDbLine
  8
0
 62
256
370
-1
  6
ByLayer
 10
-1.0000000000000071
 20
63.758191128948447
 30
0.0
 11
-5.0000000000000062
 21
67.758191128948454
 31
0.0
  0
LINE
  5
23C
100
AcDbEntity
100
AcDbLine
  8
0
 62
256
370
-1
  6
ByLayer
 10
-1.0000000000000071
 20
61.636870785388808
 30
0.0
 11
-5.0000000000000062
 21
65.636870785388808
 31
0.0
  0
LINE
  5
23D
100
AcDbEntity
100
AcDbLine
  8
0
 62
256
370
-1
  6
ByLayer
 10
-1.0000000000000071
 20
59.515550441829149
 30
0.0
 11
-5.0000000000000062
 21
63.515550441829163
 31
0.0
  0
LINE
  5
23E
100
AcDbEntity
100
AcDbLine
  8
0
 62
256
370
-1
  6
ByLayer
 10
-1.0000000000000071
 20
57.394230098269531
 30
0.0
 11
-5.0000000000000062
 21
61.394230098269531
 31
0.0
  0
LINE
  5
23F
100
AcDbEntity
100
AcDbLine
  8
0
 62
256
370
-1
  6
ByLayer
 10
-1.7270502452901211
 20
55.999959999999987
 30
0.0
 11
-5.0000000000000062
 21
59.272909754709879
 31
0.0
  0
LINE
  5
240
100
AcDbEntity
100
AcDbLine
  8
0
 62
256
370
-1
  6
ByLayer
 10
-3.8483705888497681
 20
55.999959999999987
 30
0.0
 11
-5.0000000000000062
 21
57.15158941115024
 31
0.0
  0
LINE
  5
241
100
AcDbEntity
100
AcDbLine
  8
0
 62
256
370
-1
  6
ByLayer
 10
30.0
 20
-1.1829343680058311
 30
0.0
 11
29.817065631994161
 21
-1.0
 31
0.0
  0
LINE
  5
242
100
AcDbEntity
100
AcDbLine
  8
0
 62
256
370
-1
  6
ByLayer
 10
30.0
 20
-3.304254711565477
 30
0.0
 11
27.695745288434519
 21
-1.0
 31
0.0
  0
LINE
  5
243
100
AcDbEntity
100
AcDbLine
  8
0
 62
256
370
-1
  6
ByLayer
 10
29.57442494487487
 20
-5.0
 30
0.0
 11
25.57442494487487
 21
-1.0
 31
0.0
  0
LINE
  5
244
100
AcDbEntity
100
AcDbLine
  8
0
 62
256
370
-1
  6
ByLayer
 10
27.453104601315228
 20
-5.0
 30
0.0
 11
23.453104601315228
 21
-1.0
 31
0.0
  0
LINE
  5
245
100
AcDbEntity
100
AcDbLine
  8
0
 62
256
370
-1
  6
ByLayer
 10
-1.0
 20
23.453104601315228
 30
0.0
 11
-1.54689539868476
 21
24.0
 31
0.0
  0
LINE
  5
246
100
AcDbEntity
100
AcDbLine
  8
0
 62
256
370
-1
  6
ByLayer
 10
25.331784257755601
 20
-5.0
 30
0.0
 11
21.331784257755569
 21
-1.0
 31
0.0
  0
LINE
  5
247
100
AcDbEntity
100
AcDbLine
  8
0
 62
256
370
-1
  6
ByLayer
 10
-1.0
 20
21.331784257755601
 30
0.0
 11
-3.6682157422443988
 21
24.0
 31
0.0
  0
LINE
  5
248
100
AcDbEntity
100
AcDbLine
  8
0
 62
256
370
-1
  6
ByLayer
 10
23.210463914195941
 20
-5.0
 30
0.0
 11
19.210463914195952
 21
-1.0
 31
0.0
  0
LINE
  5
249
100
AcDbEntity
100
AcDbLine
  8
0
 62
256
370
-1
  6
ByLayer
 10
-1.0
 20
19.210463914195952
 30
0.0
 11
-5.0000000000000062
 21
23.210463914195959
 31
0.0
  0
LINE
  5
24A
100
AcDbEntity
100
AcDbLine
  8
0
 62
256
370
-1
  6
ByLayer
 10
21.08914357063631
 20
-5.0
 30
0.0
 11
17.08914357063631
 21
-1.0
 31
0.0
  0
LINE
  5
24B
100
AcDbEntity
100
AcDbLine
  8
0
 62
256
370
-1
  6
ByLayer
 10
-1.0
 20
17.08914357063631
 30
0.0
 11
-5.0000000000000062
 21
21.08914357063631
 31
0.0
  0
LINE
  5
24C
100
AcDbEntity
100
AcDbLine
  8
0
 62
256
370
-1
  6
ByLayer
 10
18.967823227076671
 20
-5.0
 30
0.0
 11
14.96782322707665
 21
-1.0
 31
0.0
  0
LINE
  5
24D
100
AcDbEntity
100
AcDbLine
  8
0
 62
256
370
-1
  6
ByLayer
 10
-1.0
 20
14.96782322707667
 30
0.0
 11
-5.0000000000000062
 21
18.967823227076671
 31
0.0
  0
LINE
  5
24E
100
AcDbEntity
100
AcDbLine
  8
0
 62
256
370
-1
  6
ByLayer
 10
16.846502883517019
 20
-5.0
 30
0.0
 11
12.846502883517021
 21
-1.0
 31
0.0
  0
LINE
  5
24F
100
AcDbEntity
100
AcDbLine
  8
0
 62
256
370
-1
  6
ByLayer
 10
-1.0000000000000071
 20
12.846502883517029
 30
0.0
 11
-5.0
 21
16.846502883517019
 31
0.0
  0
LINE
  5
250
100
AcDbEntity
100
AcDbLine
  8
0
 62
256
370
-1
  6
ByLayer
 10
14.72518253995738
 20
-5.0
 30
0.0
 11
10.72518253995738
 21
-1.0
 31
0.0
  0
LINE
  5
251
100
AcDbEntity
100
AcDbLine
  8
0
 62
256
370
-1
  6
ByLayer
 10
-1.0000000000000071
 20
10.72518253995738
 30
0.0
 11
-5.0
 21
14.72518253995738
 31
0.0
  0
LINE
  5
252
100
AcDbEntity
100
AcDbLine
  8
0
 62
256
370
-1
  6
ByLayer
 10
12.60386219639774
 20
-5.0
 30
0.0
 11
8.6038621963977331
 21
-1.0
 31
0.0
  0
LINE
  5
253
100
AcDbEntity
100
AcDbLine
  8
0
 62
256
370
-1
  6
ByLayer
 10
-1.0000000000000071
 20
8.6038621963977491
 30
0.0
 11
-5.0
 21
12.60386219639774
 31
0.0
  0
LINE
  5
254
100
AcDbEntity
100
AcDbLine
  8
0
 62
256
370
-1
  6
ByLayer
 10
10.4825418528381
 20
-5.0
 30
0.0
 11
6.4825418528380956
 21
-1.0
 31
0.0
  0
LINE
  5
255
100
AcDbEntity
100
AcDbLine
  8
0
 62
256
370
-1
  6
ByLayer
 10
-1.0000000000000071
 20
6.4825418528381098
 30
0.0
 11
-5.0
 21
10.4825418528381
 31
0.0
  0
LINE
  5
256
100
AcDbEntity
100
AcDbLine
  8
0
 62
256
370
-1
  6
ByLayer
 10
8.3612215092784563
 20
-5.0
 30
0.0
 11
4.3612215092784501
 21
-1.0
 31
0.0
  0
LINE
  5
257
100
AcDbEntity
100
AcDbLine
  8
0
 62
256
370
-1
  6
ByLayer
 10
-1.0000000000000071
 20
4.3612215092784652
 30
0.0
 11
-5.0
 21
8.3612215092784563
 31
0.0
  0
LINE
  5
258
100
AcDbEntity
100
AcDbLine
  8
0
 62
256
370
-1
  6
ByLayer
 10
6.2399011657188179
 20
-5.0
 30
0.0
 11
2.2399011657188121
 21
-1.0
 31
0.0
  0
LINE
  5
259
100
AcDbEntity
100
AcDbLine
  8
0
 62
256
370
-1
  6
ByLayer
 10
-1.0000000000000071
 20
2.2399011657188179
 30
0.0
 11
-5.0
 21
6.2399011657188117
 31
0.0
  0
LINE
  5
25A
100
AcDbEntity
100
AcDbLine
  8
0
 62
256
370
-1
  6
ByLayer
 10
4.1185808221591742
 20
-5.0
 30
0.0
 11
0.1185808221591671
 21
-1.0
 31
0.0
  0
LINE
  5
25B
100
AcDbEntity
100
AcDbLine
  8
0
 62
256
370
-1
  6
ByLayer
 10
-1.0000000000000071
 20
0.1185808221591884
 30
0.0
 11
-5.0
 21
4.1185808221591742
 31
0.0
  0
LINE
  5
25C
100
AcDbEntity
100
AcDbLine
  8
0
 62
256
370
-1
  6
ByLayer
 10
1.9972604785995269
 20
-5.0
 30
0.0
 11
-5.0
 21
1.9972604785995269
 31
0.0
  0
LINE
  5
25D
100
AcDbEntity
100
AcDbLine
  8
0
 62
256
370
-1
  6
ByLayer
 10
-0.1240598649601097
 20
-5.0
 30
0.0
 11
-5.0
 21
-0.1240598649601168
 31
0.0
  0
LINE
  5
25E
100
AcDbEntity
100
AcDbLine
  8
0
 62
256
370
-1
  6
ByLayer
 10
-2.2453802085197552
 20
-5.0
 30
0.0
 11
-5.0
 21
-2.2453802085197609
 31
0.0
  0
LINE
  5
25F
100
AcDbEntity
100
AcDbLine
  8
0
 62
256
370
-1
  6
ByLayer
 10
-4.3667005520793927
 20
-5.0
 30
0.0
 11
-5.0
 21
-4.3667005520793927
 31
0.0
  0
LINE
  5
260
100
AcDbEntity
100
AcDbLine
  8
0
 62
256
370
-1
  6
ByLayer
 10
95.335355595223788
 20
-5.0
 30
0.0
 11
91.335355595223774
 21
-0.9999999999999856
 31
0.0
  0
LINE
  5
261
100
AcDbEntity
100
AcDbLine
  8
0
 62
256
370
-1
  6
ByLayer
 10
5.3353555952238079
 20
85.0
 30
0.0
 11
1.3353555952237941
 21
89.0
 31
0.0
  0
LINE
  5
262
100
AcDbEntity
100
AcDbLine
  8
0
 62
256
370
-1
  6
ByLayer
 10
97.456675938783434
 20
-5.0
 30
0.0
 11
93.456675938783434
 21
-0.9999999999999856
 31
0.0
  0
LINE
  5
263
100
AcDbEntity
100
AcDbLine
  8
0
 62
256
370
-1
  6
ByLayer
 10
7.456675938783448
 20
85.0
 30
0.0
 11
3.45667593878344
 21
89.0
 31
0.0
  0
LINE
  5
264
100
AcDbEntity
100
AcDbLine
  8
0
 62
256
370
-1
  6
ByLayer
 10
99.577996282343122
 20
-5.0
 30
0.0
 11
95.577996282343065
 21
-0.9999999999999856
 31
0.0
  0
LINE
  5
265
100
AcDbEntity
100
AcDbLine
  8
0
 62
256
370
-1
  6
ByLayer
 10
9.5779962823430917
 20
85.0
 30
0.0
 11
5.5779962823430784
 21
89.0
 31
0.0
  0
LINE
  5
266
100
AcDbEntity
100
AcDbLine
  8
0
 62
256
370
-1
  6
ByLayer
 10
101.0
 20
-4.3006833740972592
 30
0.0
 11
97.0
 21
-0.3006833740972752
 31
0.0
  0
LINE
  5
267
100
AcDbEntity
100
AcDbLine
  8
0
 62
256
370
-1
  6
ByLayer
 10
11.69931662590273
 20
85.0
 30
0.0
 11
7.699316625902723
 21
89.0
 31
0.0
  0
LINE
  5
268
100
AcDbEntity
100
AcDbLine
  8
0
 62
256
370
-1
  6
ByLayer
 10
101.0
 20
-2.1793630305376288
 30
0.0
 11
97.0
 21
1.8206369694623701
 31
0.0
  0
LINE
  5
269
100
AcDbEntity
100
AcDbLine
  8
0
 62
256
370
-1
  6
ByLayer
 10
13.82063696946236
 20
85.0
 30
0.0
 11
9.8206369694623703
 21
89.0
 31
0.0
  0
LINE
  5
26A
100
AcDbEntity
100
AcDbLine
  8
0
 62
256
370
-1
  6
ByLayer
 10
101.0
 20
-0.0580426869779842
 30
0.0
 11
97.0
 21
3.941957313022014
 31
0.0
  0
LINE
  5
26B
100
AcDbEntity
100
AcDbLine
  8
0
 62
256
370
-1
  6
ByLayer
 10
15.94195731302201
 20
85.0
 30
0.0
 11
11.941957313022
 21
89.0
 31
0.0
  0
LINE
  5
26C
100
AcDbEntity
100
AcDbLine
  8
0
 62
256
370
-1
  6
ByLayer
 10
101.0
 20
2.06327765658166
 30
0.0
 11
97.0
 21
6.0632776565816533
 31
0.0
  0
LINE
  5
26D
100
AcDbEntity
100
AcDbLine
  8
0
 62
256
370
-1
  6
ByLayer
 10
18.063277656581651
 20
85.0
 30
0.0
 11
14.06327765658164
 21
89.0
 31
0.0
  0
LINE
  5
26E
100
AcDbEntity
100
AcDbLine
  8
0
 62
256
370
-1
  6
ByLayer
 10
101.0
 20
4.1845980001412917
 30
0.0
 11
97.0
 21
8.1845980001412855
 31
0.0
  0
LINE
  5
26F
100
AcDbEntity
100
AcDbLine
  8
0
 62
256
370
-1
  6
ByLayer
 10
20.184598000141289
 20
85.0
 30
0.0
 11
16.184598000141271
 21
89.0
 31
0.0
  0
LINE
  5
270
100
AcDbEntity
100
AcDbLine
  8
0
 62
256
370
-1
  6
ByLayer
 10
101.0
 20
6.3059183437009372
 30
0.0
 11
97.0
 21
10.305918343700929
 31
0.0
  0
LINE
  5
271
100
AcDbEntity
100
AcDbLine
  8
0
 62
256
370
-1
  6
ByLayer
 10
22.305918343700931
 20
85.0
 30
0.0
 11
18.30591834370092
 21
89.0
 31
0.0
  0
LINE
  5
272
100
AcDbEntity
100
AcDbLine
  8
0
 62
256
370
-1
  6
ByLayer
 10
101.0
 20
8.4272386872605765
 30
0.0
 11
97.0
 21
12.427238687260569
 31
0.0
  0
LINE
  5
273
100
AcDbEntity
100
AcDbLine
  8
0
 62
256
370
-1
  6
ByLayer
 10
24.42723868726058
 20
85.0
 30
0.0
 11
20.427238687260559
 21
89.0
 31
0.0
  0
LINE
  5
274
100
AcDbEntity
100
AcDbLine
  8
0
 62
256
370
-1
  6
ByLayer
 10
101.0
 20
10.54855903082022
 30
0.0
 11
97.0
 21
14.548559030820201
 31
0.0
  0
LINE
  5
275
100
AcDbEntity
100
AcDbLine
  8
0
 62
256
370
-1
  6
ByLayer
 10
26.548559030820218
 20
85.0
 30
0.0
 11
22.548559030820211
 21
89.0
 31
0.0
  0
LINE
  5
276
100
AcDbEntity
100
AcDbLine
  8
0
 62
256
370
-1
  6
ByLayer
 10
101.0
 20
12.66987937437985
 30
0.0
 11
97.0
 21
16.66987937437986
 31
0.0
  0
LINE
  5
277
100
AcDbEntity
100
AcDbLine
  8
0
 62
256
370
-1
  6
ByLayer
 10
28.669879374379871
 20
85.0
 30
0.0
 11
24.66987937437986
 21
89.0
 31
0.0
  0
LINE
  5
278
100
AcDbEntity
100
AcDbLine
  8
0
 62
256
370
-1
  6
ByLayer
 10
101.0
 20
14.791199717939501
 30
0.0
 11
97.0
 21
18.791199717939499
 31
0.0
  0
LINE
  5
279
100
AcDbEntity
100
AcDbLine
  8
0
 62
256
370
-1
  6
ByLayer
 10
30.791199717939499
 20
85.0
 30
0.0
 11
26.791199717939499
 21
89.0
 31
0.0
  0
LINE
  5
27A
100
AcDbEntity
100
AcDbLine
  8
0
 62
256
370
-1
  6
ByLayer
 10
101.0
 20
16.912520061499151
 30
0.0
 11
97.0
 21
20.912520061499141
 31
0.0
  0
LINE
  5
27B
100
AcDbEntity
100
AcDbLine
  8
0
 62
256
370
-1
  6
ByLayer
 10
32.912520061499137
 20
85.0
 30
0.0
 11
28.912520061499141
 21
89.0
 31
0.0
  0
LINE
  5
27C
100
AcDbEntity
100
AcDbLine
  8
0
 62
256
370
-1
  6
ByLayer
 10
101.0
 20
19.033840405058779
 30
0.0
 11
97.0
 21
23.033840405058779
 31
0.0
  0
LINE
  5
27D
100
AcDbEntity
100
AcDbLine
  8
0
 62
256
370
-1
  6
ByLayer
 10
35.033840405058797
 20
85.0
 30
0.0
 11
31.033840405058768
 21
89.0
 31
0.0
  0
LINE
  5
27E
100
AcDbEntity
100
AcDbLine
  8
0
 62
256
370
-1
  6
ByLayer
 10
101.0
 20
21.155160748618421
 30
0.0
 11
98.155160748618428
 21
24.0
 31
0.0
  0
LINE
  5
27F
100
AcDbEntity
100
AcDbLine
  8
0
 62
256
370
-1
  6
ByLayer
 10
37.155160748618428
 20
85.0
 30
0.0
 11
33.155160748618428
 21
89.0
 31
0.0
  0
LINE
  5
280
100
AcDbEntity
100
AcDbLine
  8
0
 62
256
370
-1
  6
ByLayer
 10
101.0
 20
23.276481092178059
 30
0.0
 11
100.2764810921779
 21
24.0
 31
0.0
  0
LINE
  5
281
100
AcDbEntity
100
AcDbLine
  8
0
 62
256
370
-1
  6
ByLayer
 10
39.276481092178088
 20
85.0
 30
0.0
 11
35.276481092178059
 21
89.0
 31
0.0
  0
LINE
  5
282
100
AcDbEntity
100
AcDbLine
  8
0
 62
256
370
-1
  6
ByLayer
 10
41.397801435737719
 20
85.0
 30
0.0
 11
37.397801435737719
 21
89.0
 31
0.0
  0
LINE
  5
283
100
AcDbEntity
100
AcDbLine
  8
0
 62
256
370
-1
  6
ByLayer
 10
43.519121779297357
 20
85.0
 30
0.0
 11
39.51912177929735
 21
89.0
 31
0.0
  0
LINE
  5
284
100
AcDbEntity
100
AcDbLine
  8
0
 62
256
370
-1
  6
ByLayer
 10
45.64044212285701
 20
85.0
 30
0.0
 11
41.640442122856989
 21
89.0
 31
0.0
  0
LINE
  5
285
100
AcDbEntity
100
AcDbLine
  8
0
 62
256
370
-1
  6
ByLayer
 10
47.761762466416641
 20
85.0
 30
0.0
 11
43.761762466416648
 21
89.0
 31
0.0
  0
LINE
  5
286
100
AcDbEntity
100
AcDbLine
  8
0
 62
256
370
-1
  6
ByLayer
 10
49.883082809976301
 20
85.0
 30
0.0
 11
45.883082809976287
 21
89.0
 31
0.0
  0
LINE
  5
287
100
AcDbEntity
100
AcDbLine
  8
0
 62
256
370
-1
  6
ByLayer
 10
52.004403153535918
 20
85.0
 30
0.0
 11
48.004403153535932
 21
89.0
 31
0.0
  0
LINE
  5
288
100
AcDbEntity
100
AcDbLine
  8
0
 62
256
370
-1
  6
ByLayer
 10
54.125723497095578
 20
85.0
 30
0.0
 11
50.125723497095557
 21
89.0
 31
0.0
  0
LINE
  5
289
100
AcDbEntity
100
AcDbLine
  8
0
 62
256
370
-1
  6
ByLayer
 10
56.247043840655223
 20
85.0
 30
0.0
 11
52.247043840655209
 21
89.0
 31
0.0
  0
LINE
  5
28A
100
AcDbEntity
100
AcDbLine
  8
0
 62
256
370
-1
  6
ByLayer
 10
58.368364184214869
 20
85.0
 30
0.0
 11
54.368364184214848
 21
89.0
 31
0.0
  0
LINE
  5
28B
100
AcDbEntity
100
AcDbLine
  8
0
 62
256
370
-1
  6
ByLayer
 10
60.489684527774507
 20
85.0
 30
0.0
 11
56.489684527774493
 21
89.0
 31
0.0
  0
LINE
  5
28C
100
AcDbEntity
100
AcDbLine
  8
0
 62
256
370
-1
  6
ByLayer
 10
62.611004871334153
 20
85.0
 30
0.0
 11
58.611004871334138
 21
89.0
 31
0.0
  0
LINE
  5
28D
100
AcDbEntity
100
AcDbLine
  8
0
 62
256
370
-1
  6
ByLayer
 10
64.732325214893791
 20
85.0
 30
0.0
 11
60.732325214893763
 21
89.0
 31
0.0
  0
LINE
  5
28E
100
AcDbEntity
100
AcDbLine
  8
0
 62
256
370
-1
  6
ByLayer
 10
66.853645558453422
 20
85.0
 30
0.0
 11
62.853645558453429
 21
89.0
 31
0.0
  0
LINE
  5
28F
100
AcDbEntity
100
AcDbLine
  8
0
 62
256
370
-1
  6
ByLayer
 10
68.974965902013082
 20
85.0
 30
0.0
 11
64.974965902013068
 21
89.0
 31
0.0
  0
LINE
  5
290
100
AcDbEntity
100
AcDbLine
  8
0
 62
256
370
-1
  6
ByLayer
 10
71.096286245572742
 20
85.0
 30
0.0
 11
67.096286245572713
 21
89.0
 31
0.0
  0
LINE
  5
291
100
AcDbEntity
100
AcDbLine
  8
0
 62
256
370
-1
  6
ByLayer
 10
98.217606589132345
 20
60.0
 30
0.0
 11
97.0
 21
61.217606589132359
 31
0.0
  0
LINE
  5
292
100
AcDbEntity
100
AcDbLine
  8
0
 62
256
370
-1
  6
ByLayer
 10
73.217606589132373
 20
85.0
 30
0.0
 11
69.217606589132345
 21
89.0
 31
0.0
  0
LINE
  5
293
100
AcDbEntity
100
AcDbLine
  8
0
 62
256
370
-1
  6
ByLayer
 10
100.3389269326919
 20
60.0
 30
0.0
 11
97.0
 21
63.338926932691997
 31
0.0
  0
LINE
  5
294
100
AcDbEntity
100
AcDbLine
  8
0
 62
256
370
-1
  6
ByLayer
 10
75.338926932692004
 20
85.0
 30
0.0
 11
71.33892693269199
 21
89.0
 31
0.0
  0
LINE
  5
295
100
AcDbEntity
100
AcDbLine
  8
0
 62
256
370
-1
  6
ByLayer
 10
101.0
 20
61.460247276251643
 30
0.0
 11
97.0
 21
65.46024727625165
 31
0.0
  0
LINE
  5
296
100
AcDbEntity
100
AcDbLine
  8
0
 62
256
370
-1
  6
ByLayer
 10
77.460247276251664
 20
85.0
 30
0.0
 11
73.460247276251621
 21
89.0
 31
0.0
  0
LINE
  5
297
100
AcDbEntity
100
AcDbLine
  8
0
 62
256
370
-1
  6
ByLayer
 10
101.0
 20
63.581567619811281
 30
0.0
 11
97.0
 21
67.581567619811295
 31
0.0
  0
LINE
  5
298
100
AcDbEntity
100
AcDbLine
  8
0
 62
256
370
-1
  6
ByLayer
 10
79.581567619811295
 20
85.0
 30
0.0
 11
75.581567619811281
 21
89.0
 31
0.0
  0
LINE
  5
299
100
AcDbEntity
100
AcDbLine
  8
0
 62
256
370
-1
  6
ByLayer
 10
101.0
 20
65.702887963370898
 30
0.0
 11
97.0
 21
69.702887963370927
 31
0.0
  0
LINE
  5
29A
100
AcDbEntity
100
AcDbLine
  8
0
 62
256
370
-1
  6
ByLayer
 10
81.702887963370927
 20
85.0
 30
0.0
 11
77.702887963370927
 21
89.0
 31
0.0
  0
LINE
  5
29B
100
AcDbEntity
100
AcDbLine
  8
0
 62
256
370
-1
  6
ByLayer
 10
101.0
 20
67.824208306930544
 30
0.0
 11
97.0
 21
71.824208306930558
 31
0.0
  0
LINE
  5
29C
100
AcDbEntity
100
AcDbLine
  8
0
 62
256
370
-1
  6
ByLayer
 10
83.824208306930586
 20
85.0
 30
0.0
 11
79.824208306930544
 21
89.0
 31
0.0
  0
LINE
  5
29D
100
AcDbEntity
100
AcDbLine
  8
0
 62
256
370
-1
  6
ByLayer
 10
101.0
 20
69.945528650490203
 30
0.0
 11
97.0
 21
73.945528650490203
 31
0.0
  0
LINE
  5
29E
100
AcDbEntity
100
AcDbLine
  8
0
 62
256
370
-1
  6
ByLayer
 10
85.945528650490218
 20
85.0
 30
0.0
 11
81.945528650490218
 21
89.0
 31
0.0
  0
LINE
  5
29F
100
AcDbEntity
100
AcDbLine
  8
0
 62
256
370
-1
  6
ByLayer
 10
101.0
 20
72.066848994049849
 30
0.0
 11
97.0
 21
76.066848994049863
 31
0.0
  0
LINE
  5
2A0
100
AcDbEntity
100
AcDbLine
  8
0
 62
256
370
-1
  6
ByLayer
 10
88.066848994049877
 20
85.0
 30
0.0
 11
84.066848994049835
 21
89.0
 31
0.0
  0
LINE
  5
2A1
100
AcDbEntity
100
AcDbLine
  8
0
 62
256
370
-1
  6
ByLayer
 10
101.0
 20
74.18816933760948
 30
0.0
 11
97.0
 21
78.188169337609523
 31
0.0
  0
LINE
  5
2A2
100
AcDbEntity
100
AcDbLine
  8
0
 62
256
370
-1
  6
ByLayer
 10
90.188169337609494
 20
85.0
 30
0.0
 11
86.188169337609509
 21
89.0
 31
0.0
  0
LINE
  5
2A3
100
AcDbEntity
100
AcDbLine
  8
0
 62
256
370
-1
  6
ByLayer
 10
101.0
 20
76.309489681169126
 30
0.0
 11
97.0
 21
80.309489681169154
 31
0.0
  0
LINE
  5
2A4
100
AcDbEntity
100
AcDbLine
  8
0
 62
256
370
-1
  6
ByLayer
 10
92.309489681169154
 20
85.0
 30
0.0
 11
88.309489681169126
 21
89.0
 31
0.0
  0
LINE
  5
2A5
100
AcDbEntity
100
AcDbLine
  8
0
 62
256
370
-1
  6
ByLayer
 10
101.0
 20
78.430810024728771
 30
0.0
 11
97.0
 21
82.430810024728785
 31
0.0
  0
LINE
  5
2A6
100
AcDbEntity
100
AcDbLine
  8
0
 62
256
370
-1
  6
ByLayer
 10
94.430810024728785
 20
85.0
 30
0.0
 11
90.430810024728771
 21
89.0
 31
0.0
  0
LINE
  5
2A7
100
AcDbEntity
100
AcDbLine
  8
0
 62
256
370
-1
  6
ByLayer
 10
101.0
 20
80.552130368288417
 30
0.0
 11
97.0
 21
84.552130368288417
 31
0.0
  0
LINE
  5
2A8
100
AcDbEntity
100
AcDbLine
  8
0
 62
256
370
-1
  6
ByLayer
 10
96.552130368288445
 20
85.0
 30
0.0
 11
92.552130368288445
 21
89.0
 31
0.0
  0
LINE
  5
2A9
100
AcDbEntity
100
AcDbLine
  8
0
 62
256
370
-1
  6
ByLayer
 10
101.0
 20
82.673450711848062
 30
0.0
 11
94.673450711848091
 21
89.0
 31
0.0
  0
LINE
  5
2AA
100
AcDbEntity
100
AcDbLine
  8
0
 62
256
370
-1
  6
ByLayer
 10
101.0
 20
84.794771055407708
 30
0.0
 11
96.794771055407722
 21
89.0
 31
0.0
  0
LINE
  5
2AB
100
AcDbEntity
100
AcDbLine
  8
0
 62
256
370
-1
  6
ByLayer
 10
101.0
 20
86.916091398967325
 30
0.0
 11
98.916091398967353
 21
89.0
 31
0.0
  0
ENDBLK
  5
2AC
100
AcDbEntity
  8
0
100
AcDbBlockEnd
  0
BLOCK
  5
2AD
100
AcDbEntity
  8
0
100
AcDbBlockBegin
  2
MIKROWELLENGERÄT
 70
0
 10
0.0
 20
0.0
 30
0.0
  3
MIKROWELLENGERÄT
  1

  0
LWPOLYLINE
  5
2AE
  8
0
 62
256
370
-1
  6
ByLayer
100
AcDbEntity
100
AcDbPolyline
 90
4
 70
1
 10
18.5
 20
4.5
 10
18.5
 20
5.5
 10
21.499999999999989
 20
5.5
 10
21.499999999999989
 20
4.5
  0
LWPOLYLINE
  5
2AF
  8
0
 62
256
370
-1
  6
ByLayer
100
AcDbEntity
100
AcDbPolyline
 90
4
 70
1
 10
18.5
 20
3.0
 10
18.5
 20
4.0
 10
21.499999999999989
 20
4.0
 10
21.499999999999989
 20
3.0
  0
LINE
  5
2B0
100
AcDbEntity
100
AcDbLine
  8
0
 62
256
370
-1
  6
ByLayer
 10
19.0
 20
6.0
 30
0.0
 11
19.0
 21
7.0
 31
0.0
  0
LINE
  5
2B1
100
AcDbEntity
100
AcDbLine
  8
0
 62
256
370
-1
  6
ByLayer
 10
20.0
 20
6.0
 30
0.0
 11
18.0
 21
6.0
 31
0.0
  0
LINE
  5
2B2
100
AcDbEntity
100
AcDbLine
  8
0
 62
256
370
-1
  6
ByLayer
 10
20.0
 20
7.0
 30
0.0
 11
20.0
 21
6.0
 31
0.0
  0
LINE
  5
2B3
100
AcDbEntity
100
AcDbLine
  8
0
 62
256
370
-1
  6
ByLayer
 10
21.0
 20
7.0
 30
0.0
 11
21.0
 21
11.0
 31
0.0
  0
LINE
  5
2B4
100
AcDbEntity
100
AcDbLine
  8
0
 62
256
370
-1
  6
ByLayer
 10
20.0
 20
11.0
 30
0.0
 11
20.0
 21
7.0
 31
0.0
  0
LINE
  5
2B5
100
AcDbEntity
100
AcDbLine
  8
0
 62
256
370
-1
  6
ByLayer
 10
19.0
 20
7.0
 30
0.0
 11
19.0
 21
11.0
 31
0.0
  0
LINE
  5
2B6
100
AcDbEntity
100
AcDbLine
  8
0
 62
256
370
-1
  6
ByLayer
 10
22.0
 20
7.0
 30
0.0
 11
18.0
 21
7.0
 31
0.0
  0
LINE
  5
2B7
100
AcDbEntity
100
AcDbLine
  8
0
 62
256
370
-1
  6
ByLayer
 10
18.0
 20
8.0
 30
0.0
 11
22.0
 21
8.0
 31
0.0
  0
LINE
  5
2B8
100
AcDbEntity
100
AcDbLine
  8
0
 62
256
370
-1
  6
ByLayer
 10
22.0
 20
9.0
 30
0.0
 11
18.0
 21
9.0
 31
0.0
  0
LINE
  5
2B9
100
AcDbEntity
100
AcDbLine
  8
0
 62
256
370
-1
  6
ByLayer
 10
18.0
 20
10.0
 30
0.0
 11
22.0
 21
10.0
 31
0.0
  0
LWPOLYLINE
  5
2BA
  8
0
 62
256
370
-1
  6
ByLayer
100
AcDbEntity
100
AcDbPolyline
 90
4
 70
1
 10
18.0
 20
2.0
 10
18.0
 20
11.0
 10
22.0
 20
11.0
 10
22.0
 20
2.0
  0
LWPOLYLINE
  5
2BB
  8
0
 62
256
370
-1
  6
ByLayer
100
AcDbEntity
100
AcDbPolyline
 90
4
 70
1
 10
18.0
 20
12.0
 10
18.0
 20
16.0
 10
22.0
 20
16.0
 10
22.0
 20
12.0
  0
LWPOLYLINE
  5
2BC
  8
0
 62
256
370
-1
  6
ByLayer
100
AcDbEntity
100
AcDbPolyline
 90
4
 70
1
 10
2.5
 20
2.5
 10
2.5
 20
15.5
 10
14.5
 20
15.5
 10
14.5
 20
2.5
  0
LWPOLYLINE
  5
2BD
  8
0
 62
256
370
-1
  6
ByLayer
100
AcDbEntity
100
AcDbPolyline
 90
4
 70
1
 10
1.0
 20
1.0
 10
1.0
 20
17.0
 10
16.0
 20
17.0
 10
16.0
 20
1.0
  0
LWPOLYLINE
  5
2BE
  8
0
 62
256
370
-1
  6
ByLayer
100
AcDbEntity
100
AcDbPolyline
 90
4
 70
1
 10
17.0
 20
1.0
 10
17.0
 20
17.0
 10
23.0
 20
17.0
 10
23.0
 20
1.0
  0
LWPOLYLINE
  5
2BF
  8
0
 62
256
370
-1
  6
ByLayer
100
AcDbEntity
100
AcDbPolyline
 90
4
 70
1
 10
0.0
 20
0.0
 10
0.0
 20
18.0
 10
24.0
 20
18.0
 10
24.0
 20
0.0
  0
ENDBLK
  5
2C0
100
AcDbEntity
  8
0
100
AcDbBlockEnd
  0
BLOCK
  5
2C1
100
AcDbEntity
  8
0
100
AcDbBlockBegin
  2
TELEFONSTECKDOSE
 70
0
 10
0.0
 20
0.0
 30
0.0
  3
TELEFONSTECKDOSE
  1

  0
LINE
  5
2C2
100
AcDbEntity
100
AcDbLine
  8
0
 62
256
370
-1
  6
ByLayer
 10
-0.125
 20
0.5
 30
0.0
 11
0.125
 21
0.5
 31
0.0
  0
CIRCLE
  5
2C3
100
AcDbEntity
100
AcDbCircle
  8
0
 62
256
370
-1
  6
ByLayer
 10
0.0
 20
0.5
 30
0.0
 40
0.125
  0
CIRCLE
  5
2C4
100
AcDbEntity
100
AcDbCircle
  8
0
 62
256
370
-1
  6
ByLayer
 10
0.0
 20
4.5
 30
0.0
 40
0.125
  0
LINE
  5
2C5
100
AcDbEntity
100
AcDbLine
  8
0
 62
256
370
-1
  6
ByLayer
 10
-0.125
 20
4.5
 30
0.0
 11
0.125
 21
4.5
 31
0.0
  0
LWPOLYLINE
  5
2C6
  8
0
 62
256
370
-1
  6
ByLayer
100
AcDbEntity
100
AcDbPolyline
 90
4
 70
0
 10
-0.1894000000000346
 20
2.4158000000000182
 10
-0.1894000000000346
 20
2.6658000000000182
 10
0.1855999999999653
 20
2.6658000000000182
 10
0.1855999999999653
 20
2.4158000000000182
  0
LWPOLYLINE
  5
2C7
  8
0
 62
256
370
-1
  6
ByLayer
100
AcDbEntity
100
AcDbPolyline
 90
2
 70
0
 10
0.0605999999999654
 20
2.2908000000000182
 10
-0.0644000000000347
 20
2.2908000000000182
  0
LINE
  5
2C8
100
AcDbEntity
100
AcDbLine
  8
0
 62
256
370
-1
  6
ByLayer
 10
0.1230999999999653
 20
2.4158000000000182
 30
0.0
 11
0.1855999999999653
 21
2.4158000000000182
 31
0.0
  0
LINE
  5
2C9
100
AcDbEntity
100
AcDbLine
  8
0
 62
256
370
-1
  6
ByLayer
 10
0.1230999999999653
 20
2.3845000000000018
 30
0.0
 11
0.1230999999999653
 21
2.4158000000000182
 31
0.0
  0
LINE
  5
2CA
100
AcDbEntity
100
AcDbLine
  8
0
 62
256
370
-1
  6
ByLayer
 10
0.0917999999999779
 20
2.3845000000000018
 30
0.0
 11
0.1230999999999653
 21
2.3845000000000018
 31
0.0
  0
LINE
  5
2CB
100
AcDbEntity
100
AcDbLine
  8
0
 62
256
370
-1
  6
ByLayer
 10
0.0917999999999779
 20
2.3533000000000182
 30
0.0
 11
0.0917999999999779
 21
2.3845000000000018
 31
0.0
  0
LINE
  5
2CC
100
AcDbEntity
100
AcDbLine
  8
0
 62
256
370
-1
  6
ByLayer
 10
0.0605999999999654
 20
2.3533000000000182
 30
0.0
 11
0.0917999999999779
 21
2.3533000000000182
 31
0.0
  0
LINE
  5
2CD
100
AcDbEntity
100
AcDbLine
  8
0
 62
256
370
-1
  6
ByLayer
 10
-0.1269000000000346
 20
2.4158000000000182
 30
0.0
 11
-0.1894000000000346
 21
2.4158000000000182
 31
0.0
  0
LINE
  5
2CE
100
AcDbEntity
100
AcDbLine
  8
0
 62
256
370
-1
  6
ByLayer
 10
-0.1269000000000346
 20
2.3845000000000018
 30
0.0
 11
-0.1269000000000346
 21
2.4158000000000182
 31
0.0
  0
LINE
  5
2CF
100
AcDbEntity
100
AcDbLine
  8
0
 62
256
370
-1
  6
ByLayer
 10
-0.0957000000000221
 20
2.3845000000000018
 30
0.0
 11
-0.1269000000000346
 21
2.3845000000000018
 31
0.0
  0
LINE
  5
2D0
100
AcDbEntity
100
AcDbLine
  8
0
 62
256
370
-1
  6
ByLayer
 10
-0.0957000000000221
 20
2.3533000000000182
 30
0.0
 11
-0.0957000000000221
 21
2.3845000000000018
 31
0.0
  0
LINE
  5
2D1
100
AcDbEntity
100
AcDbLine
  8
0
 62
256
370
-1
  6
ByLayer
 10
-0.0644000000000347
 20
2.3533000000000182
 30
0.0
 11
-0.0957000000000221
 21
2.3533000000000182
 31
0.0
  0
LINE
  5
2D2
100
AcDbEntity
100
AcDbLine
  8
0
 62
256
370
-1
  6
ByLayer
 10
0.0605999999999654
 20
2.3533000000000182
 30
0.0
 11
0.0605999999999654
 21
2.2908000000000182
 31
0.0
  0
LINE
  5
2D3
100
AcDbEntity
100
AcDbLine
  8
0
 62
256
370
-1
  6
ByLayer
 10
-0.0644000000000347
 20
2.2908000000000182
 30
0.0
 11
-0.0644000000000347
 21
2.3533000000000182
 31
0.0
  0
CIRCLE
  5
2D4
100
AcDbEntity
100
AcDbCircle
  8
0
 62
256
370
-1
  6
ByLayer
 10
0.0
 20
2.5
 30
0.0
 40
0.5
  0
LINE
  5
2D5
100
AcDbEntity
100
AcDbLine
  8
0
 62
256
370
-1
  6
ByLayer
 10
1.25
 20
0.25
 30
0.0
 11
1.5
 21
0.0
 31
0.0
  0
LINE
  5
2D6
100
AcDbEntity
100
AcDbLine
  8
0
 62
256
370
-1
  6
ByLayer
 10
1.25
 20
4.75
 30
0.0
 11
1.5
 21
5.0
 31
0.0
  0
LINE
  5
2D7
100
AcDbEntity
100
AcDbLine
  8
0
 62
256
370
-1
  6
ByLayer
 10
-1.25
 20
4.75
 30
0.0
 11
-1.5
 21
5.0
 31
0.0
  0
LINE
  5
2D8
100
AcDbEntity
100
AcDbLine
  8
0
 62
256
370
-1
  6
ByLayer
 10
-1.25
 20
0.25
 30
0.0
 11
-1.5
 21
0.0
 31
0.0
  0
LINE
  5
2D9
100
AcDbEntity
100
AcDbLine
  8
0
 62
256
370
-1
  6
ByLayer
 10
1.25
 20
0.25
 30
0.0
 11
-1.25
 21
0.25
 31
0.0
  0
LINE
  5
2DA
100
AcDbEntity
100
AcDbLine
  8
0
 62
256
370
-1
  6
ByLayer
 10
1.25
 20
4.75
 30
0.0
 11
1.25
 21
0.25
 31
0.0
  0
LINE
  5
2DB
100
AcDbEntity
100
AcDbLine
  8
0
 62
256
370
-1
  6
ByLayer
 10
-1.25
 20
4.75
 30
0.0
 11
1.25
 21
4.75
 31
0.0
  0
LINE
  5
2DC
100
AcDbEntity
100
AcDbLine
  8
0
 62
256
370
-1
  6
ByLayer
 10
-1.25
 20
0.25
 30
0.0
 11
-1.25
 21
4.75
 31
0.0
  0
LWPOLYLINE
  5
2DD
  8
0
 62
256
370
-1
  6
ByLayer
100
AcDbEntity
100
AcDbPolyline
 90
4
 70
1
 10
-1.5
 20
0.0
 10
-1.5
 20
5.0
 10
1.5
 20
5.0
 10
1.5
 20
0.0
  0
ENDBLK
  5
2DE
100
AcDbEntity
  8
0
100
AcDbBlockEnd
  0
BLOCK
  5
2DF
100
AcDbEntity
  8
0
100
AcDbBlockBegin
  2
HERD_-_76_CM_IN_VORDERANSI
 70
0
 10
0.0
 20
0.0
 30
0.0
  3
HERD_-_76_CM_IN_VORDERANSI
  1

  0
CIRCLE
  5
2E0
100
AcDbEntity
100
AcDbCircle
  8
0
 62
256
370
-1
  6
ByLayer
 10
26.0
 20
34.500050000000002
 30
0.0
 40
1.0
  0
CIRCLE
  5
2E1
100
AcDbEntity
100
AcDbCircle
  8
0
 62
256
370
-1
  6
ByLayer
 10
16.0
 20
34.500050000000002
 30
0.0
 40
1.0
  0
CIRCLE
  5
2E2
100
AcDbEntity
100
AcDbCircle
  8
0
 62
256
370
-1
  6
ByLayer
 10
11.0
 20
34.500050000000002
 30
0.0
 40
1.0
  0
CIRCLE
  5
2E3
100
AcDbEntity
100
AcDbCircle
  8
0
 62
256
370
-1
  6
ByLayer
 10
21.0
 20
34.500050000000002
 30
0.0
 40
1.0
  0
LWPOLYLINE
  5
2E4
  8
0
 62
256
370
-1
  6
ByLayer
100
AcDbEntity
100
AcDbPolyline
 90
4
 70
1
 10
1.0
 20
33.500050000000002
 10
1.0
 20
35.500050000000002
 10
7.0
 20
35.500050000000002
 10
7.0
 20
33.500050000000002
  0
LWPOLYLINE
  5
2E5
  8
0
 62
256
370
-1
  6
ByLayer
100
AcDbEntity
100
AcDbPolyline
 90
4
 70
1
 10
2.0
 20
31.000050000000002
 10
2.0
 20
32.000050000000002
 10
28.0
 20
32.000050000000002
 10
28.0
 20
31.000050000000002
  0
LINE
  5
2E6
100
AcDbEntity
100
AcDbLine
  8
0
 62
256
370
-1
  6
ByLayer
 10
0.0
 20
33.000050000000002
 30
0.0
 11
30.0
 21
33.000050000000002
 31
0.0
  0
LINE
  5
2E7
100
AcDbEntity
100
AcDbLine
  8
0
 62
256
370
-1
  6
ByLayer
 10
30.0
 20
10.0
 30
0.0
 11
0.0
 21
10.0
 31
0.0
  0
LINE
  5
2E8
100
AcDbEntity
100
AcDbLine
  8
0
 62
256
370
-1
  6
ByLayer
 10
0.0
 20
5.0
 30
0.0
 11
30.0
 21
5.0
 31
0.0
  0
LWPOLYLINE
  5
2E9
  8
0
 62
256
370
-1
  6
ByLayer
100
AcDbEntity
100
AcDbPolyline
 90
4
 70
1
 10
0.0
 20
0.0
 10
0.0
 20
36.000050000000002
 10
30.0
 20
36.000050000000002
 10
30.0
 20
0.0
  0
ENDBLK
  5
2EA
100
AcDbEntity
  8
0
100
AcDbBlockEnd
  0
BLOCK
  5
2EB
100
AcDbEntity
  8
0
100
AcDbBlockBegin
  2
HERD_-_76_CM_IN_DRAUFSICHT
 70
0
 10
0.0
 20
0.0
 30
0.0
  3
HERD_-_76_CM_IN_DRAUFSICHT
  1

  0
CIRCLE
  5
2EC
100
AcDbEntity
100
AcDbCircle
  8
0
 62
256
370
-1
  6
ByLayer
 10
24.0
 20
-9.0000001999999988
 30
0.0
 40
1.0
  0
LINE
  5
2ED
100
AcDbEntity
100
AcDbLine
  8
0
 62
256
370
-1
  6
ByLayer
 10
12.0
 20
-6.0
 30
0.0
 11
18.0
 21
-6.0
 31
0.0
  0
CIRCLE
  5
2EE
100
AcDbEntity
100
AcDbCircle
  8
0
 62
256
370
-1
  6
ByLayer
 10
6.0000000000000018
 20
-9.0000001999999988
 30
0.0
 40
1.0
  0
LINE
  5
2EF
100
AcDbEntity
100
AcDbLine
  8
0
 62
256
370
-1
  6
ByLayer
 10
0.0
 20
-3.0
 30
0.0
 11
30.0
 21
-3.0
 31
0.0
  0
CIRCLE
  5
2F0
100
AcDbEntity
100
AcDbCircle
  8
0
 62
256
370
-1
  6
ByLayer
 10
24.0
 20
-18.0
 30
0.0
 40
4.0
  0
CIRCLE
  5
2F1
100
AcDbEntity
100
AcDbCircle
  8
0
 62
256
370
-1
  6
ByLayer
 10
24.0
 20
-18.0
 30
0.0
 40
3.0
  0
CIRCLE
  5
2F2
100
AcDbEntity
100
AcDbCircle
  8
0
 62
256
370
-1
  6
ByLayer
 10
24.0
 20
-18.0
 30
0.0
 40
2.0
  0
CIRCLE
  5
2F3
100
AcDbEntity
100
AcDbCircle
  8
0
 62
256
370
-1
  6
ByLayer
 10
24.0
 20
-18.0
 30
0.0
 40
1.0
  0
LINE
  5
2F4
100
AcDbEntity
100
AcDbLine
  8
0
 62
256
370
-1
  6
ByLayer
 10
22.0
 20
-24.999995999999999
 30
0.0
 11
22.0
 21
-23.999995999999999
 31
0.0
  0
LINE
  5
2F5
100
AcDbEntity
100
AcDbLine
  8
0
 62
256
370
-1
  6
ByLayer
 10
24.0
 20
-23.999995999999999
 30
0.0
 11
24.0
 21
-24.999995999999999
 31
0.0
  0
LINE
  5
2F6
100
AcDbEntity
100
AcDbLine
  8
0
 62
256
370
-1
  6
ByLayer
 10
18.0
 20
-19.999995999999989
 30
0.0
 11
12.0
 21
-19.999995999999989
 31
0.0
  0
LINE
  5
2F7
100
AcDbEntity
100
AcDbLine
  8
0
 62
256
370
-1
  6
ByLayer
 10
8.0000000000000018
 20
-24.999995999999999
 30
0.0
 11
8.0000000000000018
 21
-23.999995999999999
 31
0.0
  0
CIRCLE
  5
2F8
100
AcDbEntity
100
AcDbCircle
  8
0
 62
256
370
-1
  6
ByLayer
 10
6.0000000000000018
 20
-18.0
 30
0.0
 40
1.0
  0
LINE
  5
2F9
100
AcDbEntity
100
AcDbLine
  8
0
 62
256
370
-1
  6
ByLayer
 10
6.0000000000000018
 20
-23.999995999999999
 30
0.0
 11
6.0000000000000018
 21
-24.999995999999999
 31
0.0
  0
LWPOLYLINE
  5
2FA
  8
0
 62
256
370
-1
  6
ByLayer
100
AcDbEntity
100
AcDbPolyline
 90
4
 70
1
 10
2.0000000000000031
 20
-25.999995999999999
 10
2.0000000000000031
 20
-24.999995999999999
 10
28.0
 20
-24.999995999999999
 10
28.0
 20
-25.999995999999999
  0
CIRCLE
  5
2FB
100
AcDbEntity
100
AcDbCircle
  8
0
 62
256
370
-1
  6
ByLayer
 10
6.0000000000000018
 20
-18.0
 30
0.0
 40
3.0
  0
CIRCLE
  5
2FC
100
AcDbEntity
100
AcDbCircle
  8
0
 62
256
370
-1
  6
ByLayer
 10
6.0000000000000018
 20
-18.0
 30
0.0
 40
2.0
  0
LINE
  5
2FD
100
AcDbEntity
100
AcDbLine
  8
0
 62
256
370
-1
  6
ByLayer
 10
17.0
 20
-19.999995999999989
 30
0.0
 11
17.0
 21
-6.0
 31
0.0
  0
LINE
  5
2FE
100
AcDbEntity
100
AcDbLine
  8
0
 62
256
370
-1
  6
ByLayer
 10
16.0
 20
-6.0
 30
0.0
 11
16.0
 21
-19.999995999999989
 31
0.0
  0
LINE
  5
2FF
100
AcDbEntity
100
AcDbLine
  8
0
 62
256
370
-1
  6
ByLayer
 10
15.0
 20
-19.999995999999989
 30
0.0
 11
15.0
 21
-6.0
 31
0.0
  0
LINE
  5
300
100
AcDbEntity
100
AcDbLine
  8
0
 62
256
370
-1
  6
ByLayer
 10
14.0
 20
-6.0
 30
0.0
 11
14.0
 21
-19.999995999999989
 31
0.0
  0
LINE
  5
301
100
AcDbEntity
100
AcDbLine
  8
0
 62
256
370
-1
  6
ByLayer
 10
13.0
 20
-19.999995999999989
 30
0.0
 11
13.0
 21
-6.0
 31
0.0
  0
LWPOLYLINE
  5
302
  8
0
 62
256
370
-1
  6
ByLayer
100
AcDbEntity
100
AcDbPolyline
 90
4
 70
1
 10
12.0
 20
-20.999995999999989
 10
12.0
 20
-5.0
 10
18.0
 20
-5.0
 10
18.0
 20
-20.999995999999989
  0
CIRCLE
  5
303
100
AcDbEntity
100
AcDbCircle
  8
0
 62
256
370
-1
  6
ByLayer
 10
24.0
 20
-9.0000001999999988
 30
0.0
 40
3.0
  0
CIRCLE
  5
304
100
AcDbEntity
100
AcDbCircle
  8
0
 62
256
370
-1
  6
ByLayer
 10
24.0
 20
-9.0000001999999988
 30
0.0
 40
2.0
  0
CIRCLE
  5
305
100
AcDbEntity
100
AcDbCircle
  8
0
 62
256
370
-1
  6
ByLayer
 10
6.0000000000000018
 20
-9.0000001999999988
 30
0.0
 40
4.0
  0
CIRCLE
  5
306
100
AcDbEntity
100
AcDbCircle
  8
0
 62
256
370
-1
  6
ByLayer
 10
6.0000000000000018
 20
-9.0000001999999988
 30
0.0
 40
3.0
  0
CIRCLE
  5
307
100
AcDbEntity
100
AcDbCircle
  8
0
 62
256
370
-1
  6
ByLayer
 10
6.0000000000000018
 20
-9.0000001999999988
 30
0.0
 40
2.0
  0
LWPOLYLINE
  5
308
  8
0
 62
256
370
-1
  6
ByLayer
100
AcDbEntity
100
AcDbPolyline
 90
4
 70
1
 10
0.0
 20
-23.999995999999999
 10
0.0
 20
0.0
 10
30.0
 20
0.0
 10
30.0
 20
-23.999995999999999
  0
ENDBLK
  5
309
100
AcDbEntity
  8
0
100
AcDbBlockEnd
  0
BLOCK
  5
30A
100
AcDbEntity
  8
0
100
AcDbBlockBegin
  2
HERDABZUGSHAUBE_-_76_CM_IN
 70
0
 10
0.0
 20
0.0
 30
0.0
  3
HERDABZUGSHAUBE_-_76_CM_IN
  1

  0
LWPOLYLINE
  5
30B
  8
0
 62
256
370
-1
  6
ByLayer
100
AcDbEntity
100
AcDbPolyline
 90
4
 70
1
 10
23.0
 20
-5.75
 10
23.0
 20
-4.25
 10
29.0
 20
-4.25
 10
29.0
 20
-5.75
  0
CIRCLE
  5
30C
100
AcDbEntity
100
AcDbCircle
  8
0
 62
256
370
-1
  6
ByLayer
 10
4.0
 20
-5.0
 30
0.0
 40
0.75
  0
CIRCLE
  5
30D
100
AcDbEntity
100
AcDbCircle
  8
0
 62
256
370
-1
  6
ByLayer
 10
2.0
 20
-5.0
 30
0.0
 40
0.75
  0
LINE
  5
30E
100
AcDbEntity
100
AcDbLine
  8
0
 62
256
370
-1
  6
ByLayer
 10
0.0
 20
-4.0
 30
0.0
 11
30.000100000000199
 21
-4.0
 31
0.0
  0
LWPOLYLINE
  5
30F
  8
0
 62
256
370
-1
  6
ByLayer
100
AcDbEntity
100
AcDbPolyline
 90
4
 70
1
 10
0.0
 20
-6.0
 10
0.0
 20
0.0
 10
30.000100000000199
 20
0.0
 10
30.000100000000199
 20
-6.0
  0
ENDBLK
  5
310
100
AcDbEntity
  8
0
100
AcDbBlockEnd
  0
BLOCK
  5
311
100
AcDbEntity
  8
0
100
AcDbBlockBegin
  2
KÜHLSCHRANK_-_ZWEITÜRIGER_
 70
0
 10
0.0
 20
0.0
 30
0.0
  3
KÜHLSCHRANK_-_ZWEITÜRIGER_
  1

  0
LWPOLYLINE
  5
312
  8
0
 62
256
370
-1
  6
ByLayer
100
AcDbEntity
100
AcDbPolyline
 90
4
 70
1
 10
11.0
 20
36.0
 10
11.0
 20
52.000000000000007
 10
13.0
 20
52.000000000000007
 10
13.0
 20
36.0
  0
LINE
  5
313
100
AcDbEntity
100
AcDbLine
  8
0
 62
256
370
-1
  6
ByLayer
 10
12.0
 20
5.0
 30
0.0
 11
12.0
 21
64.0
 31
0.0
  0
LWPOLYLINE
  5
314
  8
0
 62
256
370
-1
  6
ByLayer
100
AcDbEntity
100
AcDbPolyline
 90
4
 70
1
 10
0.0
 20
0.0
 10
0.0
 20
64.0
 10
36.0
 20
64.0
 10
36.0
 20
0.0
  0
LINE
  5
315
100
AcDbEntity
100
AcDbLine
  8
0
 62
256
370
-1
  6
ByLayer
 10
0.0
 20
5.0
 30
0.0
 11
36.0
 21
5.0
 31
0.0
  0
ENDBLK
  5
316
100
AcDbEntity
  8
0
100
AcDbBlockEnd
  0
BLOCK
  5
317
100
AcDbEntity
  8
0
100
AcDbBlockBegin
  2
KÜHLSCHRANK_-_ZWEITÜRIGER0
 70
0
 10
0.0
 20
0.0
 30
0.0
  3
KÜHLSCHRANK_-_ZWEITÜRIGER0
  1

  0
LINE
  5
318
100
AcDbEntity
100
AcDbLine
  8
0
 62
256
370
-1
  6
ByLayer
 10
12.0
 20
-26.999998999999988
 30
0.0
 11
12.0
 21
-28.999998999999999
 31
0.0
  0
LINE
  5
319
100
AcDbEntity
100
AcDbLine
  8
0
 62
256
370
-1
  6
ByLayer
 10
13.0
 20
-28.999998999999999
 30
0.0
 11
13.0
 21
-27.999998999999988
 31
0.0
  0
LINE
  5
31A
100
AcDbEntity
100
AcDbLine
  8
0
 62
256
370
-1
  6
ByLayer
 10
11.0
 20
-28.999998999999999
 30
0.0
 11
13.0
 21
-28.999998999999999
 31
0.0
  0
LINE
  5
31B
100
AcDbEntity
100
AcDbLine
  8
0
 62
256
370
-1
  6
ByLayer
 10
11.0
 20
-27.999998999999988
 30
0.0
 11
11.0
 21
-28.999998999999999
 31
0.0
  0
LINE
  5
31C
100
AcDbEntity
100
AcDbLine
  8
0
 62
256
370
-1
  6
ByLayer
 10
0.0
 20
-26.999998999999988
 30
0.0
 11
36.0
 21
-26.999998999999988
 31
0.0
  0
LWPOLYLINE
  5
31D
  8
0
 62
256
370
-1
  6
ByLayer
100
AcDbEntity
100
AcDbPolyline
 90
4
 70
1
 10
0.0
 20
-27.999998999999988
 10
0.0
 20
0.0
 10
36.0
 20
0.0
 10
36.0
 20
-27.999998999999988
  0
ENDBLK
  5
31E
100
AcDbEntity
  8
0
100
AcDbBlockEnd
  0
BLOCK
  5
31F
100
AcDbEntity
  8
0
100
AcDbBlockBegin
  2
SPÜLE_-_DOPPELSPÜLE_MIT_91
 70
0
 10
0.0
 20
0.0
 30
0.0
  3
SPÜLE_-_DOPPELSPÜLE_MIT_91
  1

  0
ARC
  5
320
100
AcDbEntity
  8
0
 62
256
370
-1
  6
ByLayer
100
AcDbCircle
 10
15.5
 20
-6.5
 30
0.0
 40
1.0
100
AcDbArc
 50
0.0
 51
90.0
  0
ARC
  5
321
100
AcDbEntity
  8
0
 62
256
370
-1
  6
ByLayer
100
AcDbCircle
 10
16.5
 20
-1.5
 30
0.0
 40
1.5
100
AcDbArc
 50
0.0
 51
90.0
  0
CIRCLE
  5
322
100
AcDbEntity
100
AcDbCircle
  8
0
 62
256
370
-1
  6
ByLayer
 10
8.5
 20
-12.5
 30
0.0
 40
0.5
  0
CIRCLE
  5
323
100
AcDbEntity
100
AcDbCircle
  8
0
 62
256
370
-1
  6
ByLayer
 10
8.5
 20
-12.5
 30
0.0
 40
1.0
  0
ARC
  5
324
100
AcDbEntity
  8
0
 62
256
370
-1
  6
ByLayer
100
AcDbCircle
 10
15.5
 20
-18.5
 30
0.0
 40
1.0
100
AcDbArc
 50
270.0
 51
0.0
  0
ARC
  5
325
100
AcDbEntity
  8
0
 62
256
370
-1
  6
ByLayer
100
AcDbCircle
 10
16.5
 20
-19.5
 30
0.0
 40
1.5
100
AcDbArc
 50
270.0
 51
0.0
  0
LWPOLYLINE
  5
326
  8
0
 62
256
370
-1
  6
ByLayer
100
AcDbEntity
100
AcDbPolyline
 90
2
 70
0
 10
16.5
 20
-6.5
 10
16.5
 20
-18.5
  0
LWPOLYLINE
  5
327
  8
0
 62
256
370
-1
  6
ByLayer
100
AcDbEntity
100
AcDbPolyline
 90
2
 70
0
 10
18.0
 20
-1.5
 10
18.0
 20
-19.5
  0
ARC
  5
328
100
AcDbEntity
  8
0
 62
256
370
-1
  6
ByLayer
100
AcDbCircle
 10
1.75
 20
-6.5
 30
0.0
 40
1.0
100
AcDbArc
 50
90.0
 51
180.0
  0
ARC
  5
329
100
AcDbEntity
  8
0
 62
256
370
-1
  6
ByLayer
100
AcDbCircle
 10
-1.75
 20
-6.5
 30
0.0
 40
1.0
100
AcDbArc
 50
0.0
 51
90.0
  0
ARC
  5
32A
100
AcDbEntity
  8
0
 62
256
370
-1
  6
ByLayer
100
AcDbCircle
 10
-15.5
 20
-6.5
 30
0.0
 40
1.0
100
AcDbArc
 50
90.0
 51
180.0
  0
ARC
  5
32B
100
AcDbEntity
  8
0
 62
256
370
-1
  6
ByLayer
100
AcDbCircle
 10
-16.5
 20
-1.5
 30
0.0
 40
1.5
100
AcDbArc
 50
90.0
 51
180.0
  0
LWPOLYLINE
  5
32C
  8
0
 62
256
370
-1
  6
ByLayer
100
AcDbEntity
100
AcDbPolyline
 90
2
 70
0
 10
-15.5
 20
-5.5
 10
-1.75
 20
-5.5
  0
ARC
  5
32D
100
AcDbEntity
  8
0
 62
256
370
-1
  6
ByLayer
100
AcDbCircle
 10
1.75
 20
-18.5
 30
0.0
 40
1.0
100
AcDbArc
 50
180.0
 51
270.0
  0
ARC
  5
32E
100
AcDbEntity
  8
0
 62
256
370
-1
  6
ByLayer
100
AcDbCircle
 10
-1.75
 20
-18.5
 30
0.0
 40
1.0
100
AcDbArc
 50
270.0
 51
0.0
  0
CIRCLE
  5
32F
100
AcDbEntity
100
AcDbCircle
  8
0
 62
256
370
-1
  6
ByLayer
 10
-8.5
 20
-12.5
 30
0.0
 40
0.5
  0
CIRCLE
  5
330
100
AcDbEntity
100
AcDbCircle
  8
0
 62
256
370
-1
  6
ByLayer
 10
-8.5
 20
-12.5
 30
0.0
 40
1.0
  0
ARC
  5
331
100
AcDbEntity
  8
0
 62
256
370
-1
  6
ByLayer
100
AcDbCircle
 10
-15.5
 20
-18.5
 30
0.0
 40
1.0
100
AcDbArc
 50
180.0
 51
270.0
  0
ARC
  5
332
100
AcDbEntity
  8
0
 62
256
370
-1
  6
ByLayer
100
AcDbCircle
 10
-16.5
 20
-19.5
 30
0.0
 40
1.5
100
AcDbArc
 50
180.0
 51
270.0
  0
LWPOLYLINE
  5
333
  8
0
 62
256
370
-1
  6
ByLayer
100
AcDbEntity
100
AcDbPolyline
 90
2
 70
0
 10
-1.75
 20
-19.5
 10
-15.5
 20
-19.5
  0
LWPOLYLINE
  5
334
  8
0
 62
256
370
-1
  6
ByLayer
100
AcDbEntity
100
AcDbPolyline
 90
2
 70
0
 10
-16.5
 20
-18.5
 10
-16.5
 20
-6.5
  0
LWPOLYLINE
  5
335
  8
0
 62
256
370
-1
  6
ByLayer
100
AcDbEntity
100
AcDbPolyline
 90
2
 70
0
 10
-18.0
 20
-19.5
 10
-18.0
 20
-1.5
  0
LINE
  5
336
100
AcDbEntity
100
AcDbLine
  8
0
 62
256
370
-1
  6
ByLayer
 10
0.75
 20
-6.5
 30
0.0
 11
0.75
 21
-18.5
 31
0.0
  0
LINE
  5
337
100
AcDbEntity
100
AcDbLine
  8
0
 62
256
370
-1
  6
ByLayer
 10
-0.75
 20
-18.5
 30
0.0
 11
-0.75
 21
-6.5
 31
0.0
  0
LWPOLYLINE
  5
338
  8
0
 62
256
370
-1
  6
ByLayer
100
AcDbEntity
100
AcDbPolyline
 90
2
 70
0
 10
16.5
 20
-21.0
 10
-16.5
 20
-21.0
  0
LWPOLYLINE
  5
339
  8
0
 62
256
370
-1
  6
ByLayer
100
AcDbEntity
100
AcDbPolyline
 90
2
 70
0
 10
-16.5
 20
0.0
 10
16.5
 20
0.0
  0
LINE
  5
33A
100
AcDbEntity
100
AcDbLine
  8
0
 62
256
370
-1
  6
ByLayer
 10
-18.0
 20
-4.0
 30
0.0
 11
18.0
 21
-4.0
 31
0.0
  0
LWPOLYLINE
  5
33B
  8
0
 62
256
370
-1
  6
ByLayer
100
AcDbEntity
100
AcDbPolyline
 90
2
 70
0
 10
1.75
 20
-5.5
 10
15.5
 20
-5.5
  0
LWPOLYLINE
  5
33C
  8
0
 62
256
370
-1
  6
ByLayer
100
AcDbEntity
100
AcDbPolyline
 90
2
 70
0
 10
15.5
 20
-19.5
 10
1.75
 20
-19.5
  0
ENDBLK
  5
33D
100
AcDbEntity
  8
0
100
AcDbBlockEnd
  0
BLOCK
  5
33E
100
AcDbEntity
  8
0
100
AcDbBlockBegin
  2
SPÜLE_-_EINZELSPÜLE_MIT_76
 70
0
 10
0.0
 20
0.0
 30
0.0
  3
SPÜLE_-_EINZELSPÜLE_MIT_76
  1

  0
ARC
  5
33F
100
AcDbEntity
  8
0
 62
256
370
-1
  6
ByLayer
100
AcDbCircle
 10
12.5
 20
-6.4999960000000012
 30
0.0
 40
1.0
100
AcDbArc
 50
0.0
 51
90.0
  0
ARC
  5
340
100
AcDbEntity
  8
0
 62
256
370
-1
  6
ByLayer
100
AcDbCircle
 10
-12.5
 20
-6.4999960000000012
 30
0.0
 40
1.0
100
AcDbArc
 50
90.0
 51
180.0
  0
CIRCLE
  5
341
100
AcDbEntity
100
AcDbCircle
  8
0
 62
256
370
-1
  6
ByLayer
 10
0.0
 20
-11.999995999999999
 30
0.0
 40
0.5
  0
CIRCLE
  5
342
100
AcDbEntity
100
AcDbCircle
  8
0
 62
256
370
-1
  6
ByLayer
 10
0.0
 20
-11.999995999999999
 30
0.0
 40
1.0
  0
LWPOLYLINE
  5
343
  8
0
 62
256
370
-1
  6
ByLayer
100
AcDbEntity
100
AcDbPolyline
 90
2
 70
0
 10
-12.5
 20
-5.4999960000000012
 10
12.5
 20
-5.4999960000000012
  0
ARC
  5
344
100
AcDbEntity
  8
0
 62
256
370
-1
  6
ByLayer
100
AcDbCircle
 10
12.5
 20
-17.499995999999989
 30
0.0
 40
1.0
100
AcDbArc
 50
270.0
 51
0.0
  0
ARC
  5
345
100
AcDbEntity
  8
0
 62
256
370
-1
  6
ByLayer
100
AcDbCircle
 10
13.5
 20
-18.499995999999999
 30
0.0
 40
1.5
100
AcDbArc
 50
270.0
 51
0.0
  0
ARC
  5
346
100
AcDbEntity
  8
0
 62
256
370
-1
  6
ByLayer
100
AcDbCircle
 10
-12.5
 20
-17.499995999999989
 30
0.0
 40
1.0
100
AcDbArc
 50
180.0
 51
270.0
  0
ARC
  5
347
100
AcDbEntity
  8
0
 62
256
370
-1
  6
ByLayer
100
AcDbCircle
 10
-13.5
 20
-18.499995999999999
 30
0.0
 40
1.5
100
AcDbArc
 50
180.0
 51
270.0
  0
LWPOLYLINE
  5
348
  8
0
 62
256
370
-1
  6
ByLayer
100
AcDbEntity
100
AcDbPolyline
 90
2
 70
0
 10
13.5
 20
-19.999995999999989
 10
-13.5
 20
-19.999995999999989
  0
LWPOLYLINE
  5
349
  8
0
 62
256
370
-1
  6
ByLayer
100
AcDbEntity
100
AcDbPolyline
 90
2
 70
0
 10
12.5
 20
-18.499995999999999
 10
-12.5
 20
-18.499995999999999
  0
LWPOLYLINE
  5
34A
  8
0
 62
256
370
-1
  6
ByLayer
100
AcDbEntity
100
AcDbPolyline
 90
2
 70
0
 10
-13.5
 20
-17.499995999999989
 10
-13.5
 20
-6.4999960000000012
  0
LWPOLYLINE
  5
34B
  8
0
 62
256
370
-1
  6
ByLayer
100
AcDbEntity
100
AcDbPolyline
 90
2
 70
0
 10
13.5
 20
-6.4999960000000012
 10
13.5
 20
-17.499995999999989
  0
ARC
  5
34C
100
AcDbEntity
  8
0
 62
256
370
-1
  6
ByLayer
100
AcDbCircle
 10
13.5
 20
-1.5
 30
0.0
 40
1.5
100
AcDbArc
 50
0.0
 51
90.0
  0
LWPOLYLINE
  5
34D
  8
0
 62
256
370
-1
  6
ByLayer
100
AcDbEntity
100
AcDbPolyline
 90
2
 70
0
 10
15.0
 20
-1.5
 10
15.0
 20
-18.499995999999999
  0
ARC
  5
34E
100
AcDbEntity
  8
0
 62
256
370
-1
  6
ByLayer
100
AcDbCircle
 10
-13.5
 20
-1.5
 30
0.0
 40
1.5
100
AcDbArc
 50
90.0
 51
180.0
  0
LWPOLYLINE
  5
34F
  8
0
 62
256
370
-1
  6
ByLayer
100
AcDbEntity
100
AcDbPolyline
 90
2
 70
0
 10
-15.0
 20
-18.499995999999999
 10
-15.0
 20
-1.5
  0
LWPOLYLINE
  5
350
  8
0
 62
256
370
-1
  6
ByLayer
100
AcDbEntity
100
AcDbPolyline
 90
2
 70
0
 10
-13.5
 20
0.0
 10
13.5
 20
0.0
  0
LINE
  5
351
100
AcDbEntity
100
AcDbLine
  8
0
 62
256
370
-1
  6
ByLayer
 10
-15.0
 20
-3.9999960000000012
 30
0.0
 11
15.0
 21
-3.9999960000000012
 31
0.0
  0
ENDBLK
  5
352
100
AcDbEntity
  8
0
100
AcDbBlockEnd
  0
BLOCK
  5
353
100
AcDbEntity
  8
0
100
AcDbBlockBegin
  2
LICHTSCHALTER_-_DOPPELSCHA
 70
0
 10
0.0
 20
0.0
 30
0.0
  3
LICHTSCHALTER_-_DOPPELSCHA
  1

  0
LWPOLYLINE
  5
354
  8
0
 62
256
370
-1
  6
ByLayer
100
AcDbEntity
100
AcDbPolyline
 90
6
 70
0
 10
-0.7818000000000041
 20
3.0
 10
-0.75
 20
3.0
 10
-0.75
 20
2.0
 10
-1.25
 20
2.0
 10
-1.25
 20
3.0
 10
-1.221900000000004
 20
3.0
  0
LINE
  5
355
100
AcDbEntity
100
AcDbLine
  8
0
 62
256
370
-1
  6
ByLayer
 10
-0.7854000000000099
 20
2.5
 30
0.0
 11
-1.2182999999999991
 21
2.5
 31
0.0
  0
LWPOLYLINE
  5
356
  8
0
 62
256
370
-1
  6
ByLayer
100
AcDbEntity
100
AcDbPolyline
 90
4
 70
1
 10
-0.7800000000000013
 20
3.125
 10
-0.7800000000000013
 20
2.0
 10
-1.2199999999999971
 20
2.0
 10
-1.2199999999999971
 20
3.125
  0
LINE
  5
357
100
AcDbEntity
100
AcDbLine
  8
0
 62
256
370
-1
  6
ByLayer
 10
-0.875
 20
4.0
 30
0.0
 11
-1.125
 21
4.0
 31
0.0
  0
CIRCLE
  5
358
100
AcDbEntity
100
AcDbCircle
  8
0
 62
256
370
-1
  6
ByLayer
 10
-1.0
 20
4.0
 30
0.0
 40
0.125
  0
LINE
  5
359
100
AcDbEntity
100
AcDbLine
  8
0
 62
256
370
-1
  6
ByLayer
 10
-0.875
 20
1.0
 30
0.0
 11
-1.125
 21
1.0
 31
0.0
  0
CIRCLE
  5
35A
100
AcDbEntity
100
AcDbCircle
  8
0
 62
256
370
-1
  6
ByLayer
 10
-1.0
 20
1.0
 30
0.0
 40
0.125
  0
LWPOLYLINE
  5
35B
  8
0
 62
256
370
-1
  6
ByLayer
100
AcDbEntity
100
AcDbPolyline
 90
6
 70
0
 10
0.781700000000001
 20
2.0
 10
0.75
 20
2.0
 10
0.75
 20
3.0
 10
1.25
 20
3.0
 10
1.25
 20
2.0
 10
1.2218999999999749
 20
2.0
  0
LINE
  5
35C
100
AcDbEntity
100
AcDbLine
  8
0
 62
256
370
-1
  6
ByLayer
 10
0.7853999999999815
 20
2.5
 30
0.0
 11
1.2181999999999951
 21
2.5
 31
0.0
  0
LWPOLYLINE
  5
35D
  8
0
 62
256
370
-1
  6
ByLayer
100
AcDbEntity
100
AcDbPolyline
 90
4
 70
1
 10
0.7800000000000013
 20
1.875
 10
0.7800000000000013
 20
3.0
 10
1.2199999999999971
 20
3.0
 10
1.2199999999999971
 20
1.875
  0
LINE
  5
35E
100
AcDbEntity
100
AcDbLine
  8
0
 62
256
370
-1
  6
ByLayer
 10
0.875
 20
1.0
 30
0.0
 11
1.125
 21
1.0
 31
0.0
  0
CIRCLE
  5
35F
100
AcDbEntity
100
AcDbCircle
  8
0
 62
256
370
-1
  6
ByLayer
 10
1.0
 20
1.0
 30
0.0
 40
0.125
  0
LINE
  5
360
100
AcDbEntity
100
AcDbLine
  8
0
 62
256
370
-1
  6
ByLayer
 10
0.875
 20
4.0
 30
0.0
 11
1.125
 21
4.0
 31
0.0
  0
CIRCLE
  5
361
100
AcDbEntity
100
AcDbCircle
  8
0
 62
256
370
-1
  6
ByLayer
 10
1.0
 20
4.0
 30
0.0
 40
0.125
  0
LINE
  5
362
100
AcDbEntity
100
AcDbLine
  8
0
 62
256
370
-1
  6
ByLayer
 10
2.25
 20
0.25
 30
0.0
 11
2.5
 21
0.0
 31
0.0
  0
LINE
  5
363
100
AcDbEntity
100
AcDbLine
  8
0
 62
256
370
-1
  6
ByLayer
 10
2.25
 20
4.75
 30
0.0
 11
2.5
 21
5.0
 31
0.0
  0
LINE
  5
364
100
AcDbEntity
100
AcDbLine
  8
0
 62
256
370
-1
  6
ByLayer
 10
2.25
 20
0.25
 30
0.0
 11
-2.25
 21
0.25
 31
0.0
  0
LINE
  5
365
100
AcDbEntity
100
AcDbLine
  8
0
 62
256
370
-1
  6
ByLayer
 10
2.25
 20
4.75
 30
0.0
 11
2.25
 21
0.25
 31
0.0
  0
LINE
  5
366
100
AcDbEntity
100
AcDbLine
  8
0
 62
256
370
-1
  6
ByLayer
 10
-2.25
 20
4.75
 30
0.0
 11
2.25
 21
4.75
 31
0.0
  0
LWPOLYLINE
  5
367
  8
0
 62
256
370
-1
  6
ByLayer
100
AcDbEntity
100
AcDbPolyline
 90
4
 70
1
 10
-2.5
 20
0.0
 10
-2.5
 20
5.0
 10
2.5
 20
5.0
 10
2.5
 20
0.0
  0
LINE
  5
368
100
AcDbEntity
100
AcDbLine
  8
0
 62
256
370
-1
  6
ByLayer
 10
-2.25
 20
4.75
 30
0.0
 11
-2.5
 21
5.0
 31
0.0
  0
LINE
  5
369
100
AcDbEntity
100
AcDbLine
  8
0
 62
256
370
-1
  6
ByLayer
 10
-2.25
 20
0.25
 30
0.0
 11
-2.5
 21
0.0
 31
0.0
  0
LINE
  5
36A
100
AcDbEntity
100
AcDbLine
  8
0
 62
256
370
-1
  6
ByLayer
 10
-2.25
 20
0.25
 30
0.0
 11
-2.25
 21
4.75
 31
0.0
  0
ENDBLK
  5
36B
100
AcDbEntity
  8
0
100
AcDbBlockEnd
  0
BLOCK
  5
36C
100
AcDbEntity
  8
0
100
AcDbBlockBegin
  2
HÄNGESCHRANK_-_46_X_30_CM_
 70
0
 10
0.0
 20
0.0
 30
0.0
  3
HÄNGESCHRANK_-_46_X_30_CM_
  1

  0
LWPOLYLINE
  5
36D
  8
0
 62
256
370
-1
  6
ByLayer
100
AcDbEntity
100
AcDbPolyline
 90
4
 70
1
 10
-13.0
 20
-16.5
 10
-13.0
 20
-1.5
 10
-12.5
 20
-1.5
 10
-12.5
 20
-16.5
  0
LWPOLYLINE
  5
36E
  8
0
 62
256
370
-1
  6
ByLayer
100
AcDbEntity
100
AcDbPolyline
 90
4
 70
1
 10
-12.0
 20
-18.0
 10
-12.0
 20
0.0
 10
0.0
 20
0.0
 10
0.0
 20
-18.0
  0
ENDBLK
  5
36F
100
AcDbEntity
  8
0
100
AcDbBlockEnd
  0
BLOCK
  5
370
100
AcDbEntity
  8
0
100
AcDbBlockBegin
  2
HÄNGESCHRANK_-_46_X_91_CM_
 70
0
 10
0.0
 20
0.0
 30
0.0
  3
HÄNGESCHRANK_-_46_X_91_CM_
  1

  0
LINE
  5
371
100
AcDbEntity
100
AcDbLine
  8
0
 62
256
370
-1
  6
ByLayer
 10
18.5
 20
-16.5
 30
0.0
 11
18.5
 21
-1.5
 31
0.0
  0
LINE
  5
372
100
AcDbEntity
100
AcDbLine
  8
0
 62
256
370
-1
  6
ByLayer
 10
17.5
 20
-1.5
 30
0.0
 11
17.5
 21
-16.5
 31
0.0
  0
LWPOLYLINE
  5
373
  8
0
 62
256
370
-1
  6
ByLayer
100
AcDbEntity
100
AcDbPolyline
 90
4
 70
0
 10
18.5
 20
-1.5
 10
34.5
 20
-1.5
 10
34.5
 20
-16.5
 10
18.5
 20
-16.5
  0
LWPOLYLINE
  5
374
  8
0
 62
256
370
-1
  6
ByLayer
100
AcDbEntity
100
AcDbPolyline
 90
4
 70
0
 10
17.5
 20
-16.5
 10
1.5
 20
-16.5
 10
1.5
 20
-1.5
 10
17.5
 20
-1.5
  0
LWPOLYLINE
  5
375
  8
0
 62
256
370
-1
  6
ByLayer
100
AcDbEntity
100
AcDbPolyline
 90
4
 70
1
 10
0.0
 20
-18.0
 10
0.0
 20
0.0
 10
36.0
 20
0.0
 10
36.0
 20
-18.0
  0
ENDBLK
  5
376
100
AcDbEntity
  8
0
100
AcDbBlockEnd
  0
ENDSEC
  0
SECTION
  2
ENTITIES
  0
INSERT
  5
377
100
AcDbEntity
100
AcDbBlockReference
  8
0
 62
256
370
-1
  6
ByLayer
  2
SCHRANK_-_SCHRANKTÜR_1_IN_
 10
24.331368346318101
 20
144.8344702039895
 30
0.0
  0
INSERT
  5
378
100
AcDbEntity
100
AcDbBlockReference
  8
0
 62
256
370
-1
  6
ByLayer
  2
SCHRANK_-_SCHRANKTÜR_1_MIT
 10
29.6830998410204
 20
145.04317761806359
 30
0.0
  0
INSERT
  5
379
100
AcDbEntity
100
AcDbBlockReference
  8
0
 62
256
370
-1
  6
ByLayer
  2
GESCHIRRSPÜLMASCHINE
 10
60.105710772110569
 20
145.04317761806359
 30
0.0
  0
INSERT
  5
37A
100
AcDbEntity
100
AcDbBlockReference
  8
0
 62
256
370
-1
  6
ByLayer
  2
ARMATUR_-_KÜCHENARMATUR_IN
 10
98.54882786903454
 20
171.85263706733321
 30
0.0
  0
INSERT
  5
37B
100
AcDbEntity
100
AcDbBlockReference
  8
0
 62
256
370
-1
  6
ByLayer
  2
ARMATUR_-_KÜCHENARMATUR_I0
 10
99.378535322428206
 20
164.94298264937009
 30
0.0
  0
INSERT
  5
37C
100
AcDbEntity
100
AcDbBlockReference
  8
0
 62
256
370
-1
  6
ByLayer
  2
ARMATUR_-_EINHEBELMISCHER_
 10
119.2915171402322
 20
172.4054092157217
 30
0.0
  0
INSERT
  5
37D
100
AcDbEntity
100
AcDbBlockReference
  8
0
 62
256
370
-1
  6
ByLayer
  2
ARMATUR_-_EINHEBELMISCHER0
 10
118.46180968683881
 20
164.6665965751759
 30
0.0
  0
INSERT
  5
37E
100
AcDbEntity
100
AcDbBlockReference
  8
0
 62
256
370
-1
  6
ByLayer
  2
EIS-_UND_WASSERSPENDER
 10
132.56362930600071
 20
159.60502300407529
 30
0.0
  0
INSERT
  5
37F
100
AcDbEntity
100
AcDbBlockReference
  8
0
 62
256
370
-1
  6
ByLayer
  2
KÜCHENBLOCK_-_2100_X_2400_
 10
6.0898855669328213
 20
42.533505871986719
 30
0.0
  0
INSERT
  5
380
100
AcDbEntity
100
AcDbBlockReference
  8
0
 62
256
370
-1
  6
ByLayer
  2
MIKROWELLENGERÄT
 10
122.4536224511608
 20
113.92970571603421
 30
0.0
  0
INSERT
  5
381
100
AcDbEntity
100
AcDbBlockReference
  8
0
 62
256
370
-1
  6
ByLayer
  2
TELEFONSTECKDOSE
 10
156.63571516314519
 20
126.3204868920714
 30
0.0
  0
INSERT
  5
382
100
AcDbEntity
100
AcDbBlockReference
  8
0
 62
256
370
-1
  6
ByLayer
  2
HERD_-_76_CM_IN_VORDERANSI
 10
168.3676038291764
 20
96.411705033417491
 30
0.0
  0
INSERT
  5
383
100
AcDbEntity
100
AcDbBlockReference
  8
0
 62
256
370
-1
  6
ByLayer
  2
HERD_-_76_CM_IN_DRAUFSICHT
 10
204.1519799347677
 20
131.447706764809
 30
0.0
  0
INSERT
  5
384
100
AcDbEntity
100
AcDbBlockReference
  8
0
 62
256
370
-1
  6
ByLayer
  2
HERDABZUGSHAUBE_-_76_CM_IN
 10
120.4058526729516
 20
81.884582426818653
 30
0.0
  0
INSERT
  5
385
100
AcDbEntity
100
AcDbBlockReference
  8
0
 62
256
370
-1
  6
ByLayer
  2
KÜHLSCHRANK_-_ZWEITÜRIGER_
 10
164.4152973919943
 20
23.348823860774409
 30
0.0
  0
INSERT
  5
386
100
AcDbEntity
100
AcDbBlockReference
  8
0
 62
256
370
-1
  6
ByLayer
  2
KÜHLSCHRANK_-_ZWEITÜRIGER0
 10
205.86108504018389
 20
87.011802299556436
 30
0.0
  0
INSERT
  5
387
100
AcDbEntity
100
AcDbBlockReference
  8
0
 62
256
370
-1
  6
ByLayer
  2
SPÜLE_-_DOPPELSPÜLE_MIT_91
 10
20.53095125746756
 20
22.067018709510929
 30
0.0
  0
INSERT
  5
388
100
AcDbEntity
100
AcDbBlockReference
  8
0
 62
256
370
-1
  6
ByLayer
  2
SPÜLE_-_EINZELSPÜLE_MIT_76
 10
63.258567147448161
 20
22.494287215318121
 30
0.0
  0
INSERT
  5
389
100
AcDbEntity
100
AcDbBlockReference
  8
0
 62
256
370
-1
  6
ByLayer
  2
LICHTSCHALTER_-_DOPPELSCHA
 10
92.313346304997708
 20
17.794335482229481
 30
0.0
  0
INSERT
  5
38A
100
AcDbEntity
100
AcDbBlockReference
  8
0
 62
256
370
-1
  6
ByLayer
  2
HÄNGESCHRANK_-_46_X_30_CM_
 10
117.0953632862777
 20
20.785213924405522
 30
0.0
  0
INSERT
  5
38B
100
AcDbEntity
100
AcDbBlockReference
  8
0
 62
256
370
-1
  6
ByLayer
  2
HÄNGESCHRANK_-_46_X_91_CM_
 10
121.7954005643586
 20
20.785213924405522
 30
0.0
  0
MTEXT
  5
38C
100
AcDbEntity
100
AcDbMText
  8
0
 62
256
370
-1
  6
ByLayer
 10
164.14072445806653
 20
172.74198512835821
 30
0.0
 40
1.0
 41
100.0
 71
1
 72
0
  1
Kitchen\~View\~1.0\P6/14/2017\P
  7
normallatin1
 50
0.0
 73
1
 44
1.0
  0
ENDSEC
  0
SECTION
  2
OBJECTS
  0
DICTIONARY
  5
C
100
AcDbDictionary
280
0
281
1
  3
ACAD_GROUP
350
D
  3
ACAD_LAYOUT
350
1A
  3
ACAD_MLINESTYLE
350
17
  3
ACAD_PLOTSETTINGS
350
19
  3
ACAD_PLOTSTYLENAME
350
E
  3
AcDbVariableDictionary
350
38D
  0
DICTIONARY
  5
D
100
AcDbDictionary
280
0
281
1
  0
ACDBDICTIONARYWDFLT
  5
E
100
AcDbDictionary
281
1
  3
Normal
350
F
100
AcDbDictionaryWithDefault
340
F
  0
ACDBPLACEHOLDER
  5
F
  0
DICTIONARY
  5
17
100
AcDbDictionary
280
0
281
1
  3
Standard
350
18
  0
MLINESTYLE
  5
18
100
AcDbMlineStyle
  2
STANDARD
 70
0
  3

 62
256
 51
90.0
 52
90.0
 71
2
 49
0.5
 62
256
  6
BYLAYER
 49
-0.5
 62
256
  6
BYLAYER
  0
DICTIONARY
  5
19
100
AcDbDictionary
280
0
281
1
  0
DICTIONARY
  5
1A
100
AcDbDictionary
281
1
  3
Layout1
350
1E
  3
Layout2
350
26
  3
Model
350
22
  0
LAYOUT
  5
1E
100
AcDbPlotSettings
  1

  2
C:\Program Files\AutoCAD 2002\plotters\DWF ePlot (optimized for plotting).pc3
  4

  6

 40
0.0
 41
0.0
 42
0.0
 43
0.0
 44
0.0
 45
0.0
 46
0.0
 47
0.0
 48
0.0
 49
0.0
140
0.0
141
0.0
142
1.0
143
1.0
 70
688
 72
0
 73
0
 74
5
  7

 75
16
147
1.0
148
0.0
149
0.0
100
AcDbLayout
  1
Layout1
 70
1
 71
1
 10
0.0
 20
0.0
 11
420.0
 21
297.0
 12
0.0
 22
0.0
 32
0.0
 14
100000000000000000000.0
 24
100000000000000000000.0
 34
100000000000000000000.0
 15
-100000000000000000000.0
 25
-100000000000000000000.0
 35
-100000000000000000000.0
146
0.0
 13
0.0
 23
0.0
 33
0.0
 16
1.0
 26
0.0
 36
0.0
 17
0.0
 27
1.0
 37
0.0
 76
0
330
1B
  0
LAYOUT
  5
22
100
AcDbPlotSettings
  1

  2
C:\Program Files\AutoCAD 2002\plotters\DWF ePlot (optimized for plotting).pc3
  4

  6

 40
0.0
 41
0.0
 42
0.0
 43
0.0
 44
0.0
 45
0.0
 46
0.0
 47
0.0
 48
0.0
 49
0.0
140
0.0
141
0.0
142
1.0
143
1.0
 70
1712
 72
0
 73
0
 74
0
  7

 75
0
147
1.0
148
0.0
149
0.0
100
AcDbLayout
  1
Model
 70
1
 71
0
 10
0.0
 20
0.0
 11
12.0
 21
9.0
 12
0.0
 22
0.0
 32
0.0
 14
0.0
 24
0.0
 34
0.0
 15
0.0
 25
0.0
 35
0.0
146
0.0
 13
0.0
 23
0.0
 33
0.0
 16
1.0
 26
0.0
 36
0.0
 17
0.0
 27
1.0
 37
0.0
 76
0
330
1F
  0
LAYOUT
  5
26
100
AcDbPlotSettings
  1

  2
C:\Program Files\AutoCAD 2002\plotters\DWF ePlot (optimized for plotting).pc3
  4

  6

 40
0.0
 41
0.0
 42
0.0
 43
0.0
 44
0.0
 45
0.0
 46
0.0
 47
0.0
 48
0.0
 49
0.0
140
0.0
141
0.0
142
1.0
143
1.0
 70
688
 72
0
 73
0
 74
5
  7

 75
16
147
1.0
148
0.0
149
0.0
100
AcDbLayout
  1
Layout2
 70
1
 71
2
 10
0.0
 20
0.0
 11
12.0
 21
9.0
 12
0.0
 22
0.0
 32
0.0
 14
0.0
 24
0.0
 34
0.0
 15
0.0
 25
0.0
 35
0.0
146
0.0
 13
0.0
 23
0.0
 33
0.0
 16
1.0
 26
0.0
 36
0.0
 17
0.0
 27
1.0
 37
0.0
 76
0
330
23
  0
DICTIONARY
  5
38D
100
AcDbDictionary
281
1
  3
DIMASSOC
350
38F
  3
HIDETEXT
350
38E
  0
DICTIONARYVAR
  5
38E
100
DictionaryVariables
280
0
  1
2
  0
DICTIONARYVAR
  5
38F
100
DictionaryVariables
280
0
  1
1
  0
ENDSEC
  0
EOF
