  0
SECTION
  2
HEADER
  9
$ACADVER
  1
AC1009
  9
$INSBASE
 10
0.0
 20
0.0
 30
0.0
  9
$EXTMIN
 10
0.3313683463181007
 20
0.75635853773111
 30
0.0
  9
$EXTMAX
 10
241.86108504018389
 20
179.54317761806359
 30
0.0
  9
$LIMMIN
 10
0.0
 20
0.0
  9
$LIMMAX
 10
240.0
 20
180.0
  9
$ORTHOMODE
 70
     0
  9
$REGENMODE
 70
     1
  9
$FILLMODE
 70
     1
  9
$QTEXTMODE
 70
     0
  9
$MIRRTEXT
 70
     1
  9
$DRAGMODE
 70
     2
  9
$LTSCALE
 40
1.0
  9
$OSMODE
 70
    37
  9
$ATTMODE
 70
     1
  9
$TEXTSIZE
 40
0.2
  9
$TRACEWID
 40
0.05
  9
$TEXTSTYLE
  7
STANDARD
  9
$CLAYER
  8
0
  9
$CELTYPE
  6
BYLAYER
  9
$CECOLOR
 62
   256
  9
$DIMSCALE
 40
1.0
  9
$DIMASZ
 40
0.18
  9
$DIMEXO
 40
0.0625
  9
$DIMDLI
 40
0.38
  9
$DIMRND
 40
0.0
  9
$DIMDLE
 40
0.0
  9
$DIMEXE
 40
0.18
  9
$DIMTP
 40
0.0
  9
$DIMTM
 40
0.0
  9
$DIMTXT
 40
0.18
  9
$DIMCEN
 40
0.09
  9
$DIMTSZ
 40
0.0
  9
$DIMTOL
 70
     0
  9
$DIMLIM
 70
     0
  9
$DIMTIH
 70
     1
  9
$DIMTOH
 70
     1
  9
$DIMSE1
 70
     0
  9
$DIMSE2
 70
     0
  9
$DIMTAD
 70
     0
  9
$DIMZIN
 70
     0
  9
$DIMBLK
  1

  9
$DIMASO
 70
     1
  9
$DIMSHO
 70
     1
  9
$DIMPOST
  1

  9
$DIMAPOST
  1

  9
$DIMALT
 70
     0
  9
$DIMALTD
 70
     2
  9
$DIMALTF
 40
25.399999999999999
  9
$DIMLFAC
 40
1.0
  9
$DIMTOFL
 70
     0
  9
$DIMTVP
 40
0.0
  9
$DIMTIX
 70
     0
  9
$DIMSOXD
 70
     0
  9
$DIMSAH
 70
     0
  9
$DIMBLK1
  1

  9
$DIMBLK2
  1

  9
$DIMSTYLE
  2
STANDARD
  9
$DIMCLRD
 70
     0
  9
$DIMCLRE
 70
     0
  9
$DIMCLRT
 70
     0
  9
$DIMTFAC
 40
1.0
  9
$DIMGAP
 40
0.09
  9
$LUNITS
 70
     2
  9
$LUPREC
 70
     4
  9
$SKETCHINC
 40
0.1
  9
$FILLETRAD
 40
0.5
  9
$AUNITS
 70
     0
  9
$AUPREC
 70
     0
  9
$MENU
  1
.
  9
$ELEVATION
 40
0.0
  9
$PELEVATION
 40
0.0
  9
$THICKNESS
 40
0.0
  9
$LIMCHECK
 70
     0
  9
$BLIPMODE
 70
     0
  9
$CHAMFERA
 40
0.5
  9
$CHAMFERB
 40
0.5
  9
$SKPOLY
 70
     0
  9
$TDCREATE
 40
2451192.901182164
  9
$TDUPDATE
 40
2452556.8396023032
  9
$TDINDWG
 40
0.3019879282
  9
$TDUSRTIMER
 40
0.301987581
  9
$USRTIMER
 70
     1
  9
$ANGBASE
 50
0.0
  9
$ANGDIR
 70
     0
  9
$PDMODE
 70
     0
  9
$PDSIZE
 40
0.0
  9
$PLINEWID
 40
0.0
  9
$COORDS
 70
     1
  9
$SPLFRAME
 70
     0
  9
$SPLINETYPE
 70
     6
  9
$SPLINESEGS
 70
     8
  9
$ATTDIA
 70
     0
  9
$ATTREQ
 70
     1
  9
$HANDLING
 70
 22529
  9
$HANDSEED
  5
A9D
  9
$SURFTAB1
 70
     6
  9
$SURFTAB2
 70
     6
  9
$SURFTYPE
 70
     6
  9
$SURFU
 70
     6
  9
$SURFV
 70
     6
  9
$UCSNAME
  2

  9
$UCSORG
 10
0.0
 20
0.0
 30
0.0
  9
$UCSXDIR
 10
1.0
 20
0.0
 30
0.0
  9
$UCSYDIR
 10
0.0
 20
1.0
 30
0.0
  9
$PUCSNAME
  2

  9
$PUCSORG
 10
0.0
 20
0.0
 30
0.0
  9
$PUCSXDIR
 10
1.0
 20
0.0
 30
0.0
  9
$PUCSYDIR
 10
0.0
 20
1.0
 30
0.0
  9
$USERI1
 70
     0
  9
$USERI2
 70
     0
  9
$USERI3
 70
     0
  9
$USERI4
 70
     0
  9
$USERI5
 70
     0
  9
$USERR1
 40
0.0
  9
$USERR2
 40
0.0
  9
$USERR3
 40
0.0
  9
$USERR4
 40
0.0
  9
$USERR5
 40
0.0
  9
$WORLDVIEW
 70
     1
  9
$SHADEDGE
 70
     3
  9
$SHADEDIF
 70
    70
  9
$TILEMODE
 70
     1
  9
$MAXACTVP
 70
    64
  9
$PLIMCHECK
 70
     0
  9
$PEXTMIN
 10
1.0000000000000000E+020
 20
1.0000000000000000E+020
 30
1.0000000000000000E+020
  9
$PEXTMAX
 10
-1.0000000000000000E+020
 20
-1.0000000000000000E+020
 30
-1.0000000000000000E+020
  9
$PLIMMIN
 10
0.0
 20
0.0
  9
$PLIMMAX
 10
12.0
 20
9.0
  9
$UNITMODE
 70
     0
  9
$VISRETAIN
 70
     1
  9
$PLINEGEN
 70
     0
  9
$PSLTSCALE
 70
     1
  0
ENDSEC
  0
SECTION
  2
TABLES
  0
TABLE
  2
VPORT
 70
     2
  0
VPORT
  2
*ACTIVE
 70
     0
 10
0.0
 20
0.0
 11
1.0
 21
1.0
 12
171.1001742006836
 22
93.871468638243499
 13
0.0
 23
0.0
 14
0.5
 24
0.5
 15
12.0
 25
12.0
 16
0.0
 26
0.0
 36
1.0
 17
0.0
 27
0.0
 37
0.0
 40
197.73420228825569
 41
1.7416356877323409
 42
50.0
 43
0.0
 44
0.0
 50
0.0
 51
0.0
 71
     0
 72
   100
 73
     1
 74
     3
 75
     0
 76
     1
 77
     0
 78
     0
  0
ENDTAB
  0
TABLE
  2
LTYPE
 70
     1
  0
LTYPE
  2
CONTINUOUS
 70
     0
  3
Solid line
 72
    65
 73
     0
 40
0.0
  0
ENDTAB
  0
TABLE
  2
LAYER
 70
     1
  0
LAYER
  2
0
 70
     0
 62
     7
  6
CONTINUOUS
  0
ENDTAB
  0
TABLE
  2
STYLE
 70
     1
  0
STYLE
  2
STANDARD
 70
     0
 40
0.0
 41
1.0
 50
0.0
 71
     0
 42
0.2
  3
txt
  4

  0
ENDTAB
  0
TABLE
  2
VIEW
 70
     0
  0
ENDTAB
  0
TABLE
  2
UCS
 70
     0
  0
ENDTAB
  0
TABLE
  2
APPID
 70
     3
  0
APPID
  2
ACAD
 70
     0
  0
APPID
  2
CONTENTBLOCKDESCRIPTION
 70
     0
  0
APPID
  2
CONTENTBLOCKICON
 70
     0
  0
ENDTAB
  0
TABLE
  2
DIMSTYLE
 70
     1
  0
DIMSTYLE
  2
STANDARD
 70
     0
  3

  4

  5

  6

  7

 40
1.0
 41
0.18
 42
0.0625
 43
0.38
 44
0.18
 45
0.0
 46
0.0
 47
0.0
 48
0.0
140
0.18
141
0.09
142
0.0
143
25.399999999999999
144
1.0
145
0.0
146
1.0
147
0.09
 71
     0
 72
     0
 73
     1
 74
     1
 75
     0
 76
     0
 77
     0
 78
     0
170
     0
171
     2
172
     0
173
     0
174
     0
175
     0
176
     0
177
     0
178
     0
  0
ENDTAB
  0
ENDSEC
  0
SECTION
  2
BLOCKS
  0
BLOCK
  8
0
  2
ARMATUR_-_EINHEBELMISCHER0
 70
     2
 10
0.0
 20
0.0
 30
0.0
  3
ARMATUR_-_EINHEBELMISCHER0
  1
FAUCET_WASHERLESS_TOP
  0
POLYLINE
  5
12B
  8
0
 66
     1
 10
0.0
 20
0.0
 30
0.0
  0
VERTEX
  5
959
  8
0
 10
-0.0067515000000018
 20
-2.0
 30
0.0
  0
VERTEX
  5
95A
  8
0
 10
-0.1165915000000002
 20
-2.0
 30
0.0
  0
SEQEND
  5
95B
  8
0
  0
ARC
  5
12C
  8
0
 10
-0.0000015000000015
 20
-1.0
 30
0.0
 40
0.75
 50
269.22460000000001
 51
216.2304
  0
LINE
  5
12D
  8
0
 10
-2.261461499999998
 20
-4.3369999999999891
 30
0.0
 11
-1.3704615
 21
-4.790999999999995
 31
0.0
  0
ARC
  5
12E
  8
0
 10
3.9999984999999998
 20
-7.9282000000000021
 30
0.0
 40
0.5
 50
209.99999999999989
 51
30.0
  0
LINE
  5
12F
  8
0
 10
0.0793784999999989
 20
-0.2599999999999909
 30
0.0
 11
-2.261461499999998
 21
-4.3369999999999891
 31
0.0
  0
LINE
  5
130
  8
0
 10
-1.3704615
 20
-4.790999999999995
 30
0.0
 11
0.5507084999999991
 21
-0.5036999999999808
 31
0.0
  0
LINE
  5
131
  8
0
 10
-0.0600815000000008
 20
-1.895899999999983
 30
0.0
 11
3.5669884999999968
 21
-8.1782000000000021
 31
0.0
  0
LINE
  5
132
  8
0
 10
4.4330184999999984
 20
-7.6782000000000021
 30
0.0
 11
0.7182785000000003
 21
-1.244100000000002
 31
0.0
  0
POLYLINE
  5
133
  8
0
 66
     1
 10
0.0
 20
0.0
 30
0.0
  0
VERTEX
  5
95C
  8
0
 10
-0.9178414999999995
 20
-2.0
 30
0.0
  0
VERTEX
  5
95D
  8
0
 10
-5.9999985000000011
 20
-2.0
 30
0.0
  0
VERTEX
  5
95E
  8
0
 10
-5.9999985000000011
 20
0.0
 30
0.0
  0
VERTEX
  5
95F
  8
0
 10
5.9999985000000002
 20
0.0
 30
0.0
  0
VERTEX
  5
960
  8
0
 10
5.9999985000000002
 20
-2.0
 30
0.0
  0
VERTEX
  5
961
  8
0
 10
1.1565984999999981
 20
-2.0
 30
0.0
  0
SEQEND
  5
962
  8
0
  0
ENDBLK
  5
135
  8
0
  0
ENDSEC
  0
SECTION
  2
ENTITIES
  0
INSERT
  5
47
  8
0
  2
SCHRANK_-_SCHRANKTÜR_1_IN_
 10
24.331368346318101
 20
144.8344702039895
 30
0.0
  0
INSERT
  5
6E
  8
0
  2
SCHRANK_-_SCHRANKTÜR_1_MIT
 10
29.6830998410204
 20
145.04317761806359
 30
0.0
  0
INSERT
  5
AB
  8
0
  2
GESCHIRRSPÜLMASCHINE
 10
60.105710772110569
 20
145.04317761806359
 30
0.0
  0
INSERT
  5
E2
  8
0
  2
ARMATUR_-_KÜCHENARMATUR_IN
 10
98.54882786903454
 20
171.85263706733321
 30
0.0
  0
INSERT
  5
103
  8
0
  2
ARMATUR_-_KÜCHENARMATUR_I0
 10
99.378535322428206
 20
164.94298264937009
 30
0.0
  0
INSERT
  5
128
  8
0
  2
ARMATUR_-_EINHEBELMISCHER_
 10
119.2915171402322
 20
172.4054092157217
 30
0.0
  0
INSERT
  5
13B
  8
0
  2
ARMATUR_-_EINHEBELMISCHER0
 10
118.46180968683881
 20
164.6665965751759
 30
0.0
  0
INSERT
  5
19A
  8
0
  2
EIS-_UND_WASSERSPENDER
 10
132.56362930600071
 20
159.60502300407529
 30
0.0
  0
INSERT
  5
318
  8
0
  2
KÜCHENBLOCK_-_2100_X_2400_
 10
6.0898855669328213
 20
42.533505871986719
 30
0.0
  0
INSERT
  5
350
  8
0
  2
MIKROWELLENGERÄT
 10
122.4536224511608
 20
113.92970571603421
 30
0.0
  0
INSERT
  5
375
  8
0
  2
TELEFONSTECKDOSE
 10
156.63571516314519
 20
126.3204868920714
 30
0.0
  0
INSERT
  5
388
  8
0
  2
HERD_-_76_CM_IN_VORDERANSI
 10
168.3676038291764
 20
96.411705033417491
 30
0.0
  0
INSERT
  5
3AE
  8
0
  2
HERD_-_76_CM_IN_DRAUFSICHT
 10
204.1519799347677
 20
131.447706764809
 30
0.0
  0
INSERT
  5
3BC
  8
0
  2
HERDABZUGSHAUBE_-_76_CM_IN
 10
120.4058526729516
 20
81.884582426818653
 30
0.0
  0
INSERT
  5
3C9
  8
0
  2
KÜHLSCHRANK_-_ZWEITÜRIGER_
 10
164.4152973919943
 20
23.348823860774409
 30
0.0
  0
INSERT
  5
3D8
  8
0
  2
KÜHLSCHRANK_-_ZWEITÜRIGER0
 10
205.86108504018389
 20
87.011802299556436
 30
0.0
  0
INSERT
  5
3FE
  8
0
  2
SPÜLE_-_DOPPELSPÜLE_MIT_91
 10
20.53095125746756
 20
22.067018709510929
 30
0.0
  0
INSERT
  5
41A
  8
0
  2
SPÜLE_-_EINZELSPÜLE_MIT_76
 10
63.258567147448161
 20
22.494287215318121
 30
0.0
  0
INSERT
  5
43A
  8
0
  2
LICHTSCHALTER_-_DOPPELSCHA
 10
92.313346304997708
 20
17.794335482229481
 30
0.0
  0
INSERT
  5
445
  8
0
  2
HÄNGESCHRANK_-_46_X_30_CM_
 10
117.0953632862777
 20
20.785213924405522
 30
0.0
  0
INSERT
  5
453
  8
0
  2
HÄNGESCHRANK_-_46_X_91_CM_
 10
121.7954005643586
 20
20.785213924405522
 30
0.0
  0
ENDSEC
  0
EOF
